/* XPM */
static char * asset_enemy_xpm[] = {
"64 64 662 2",
"  	c #F8F8F8",
". 	c #F0F8F8",
"+ 	c #E8F0F8",
"@ 	c #E0E8F8",
"# 	c #E7E7E9",
"$ 	c #DCDCE0",
"% 	c #EAE9EB",
"& 	c #8A88A0",
"* 	c #DADADF",
"= 	c #EFF7F7",
"- 	c #7F7D94",
"; 	c #9290A8",
"> 	c #DAE1E4",
", 	c #8C8C9C",
"' 	c #8D8BA4",
") 	c #9492A9",
"! 	c #DBE1E4",
"~ 	c #9C9EA9",
"{ 	c #84829A",
"] 	c #9491AC",
"^ 	c #908FA6",
"/ 	c #AFB3BB",
"( 	c #7E7D93",
"_ 	c #8F8DA7",
": 	c #9593AD",
"< 	c #8E8DA3",
"[ 	c #C1C0C5",
"} 	c #7A788E",
"| 	c #8988A0",
"1 	c #9592AD",
"2 	c #8D8BA1",
"3 	c #E1E1E4",
"4 	c #DFDEE1",
"5 	c #D3D2D6",
"6 	c #76748A",
"7 	c #85829A",
"8 	c #918FA9",
"9 	c #9895B1",
"0 	c #9290AA",
"a 	c #8B899E",
"b 	c #E2E1E4",
"c 	c #F4F4F4",
"d 	c #E2E2E3",
"e 	c #DDDCDF",
"f 	c #A09FAA",
"g 	c #E4E4E6",
"h 	c #F6F6F6",
"i 	c #DEDEE0",
"j 	c #737185",
"k 	c #807E95",
"l 	c #8C8AA3",
"m 	c #9794AF",
"n 	c #9996B1",
"o 	c #E1E0E3",
"p 	c #F6F6F7",
"q 	c #9C9BA5",
"r 	c #ECECED",
"s 	c #F0F0F0",
"t 	c #93929C",
"u 	c #DDDCDE",
"v 	c #787689",
"w 	c #BBBAC1",
"x 	c #E5E5E7",
"y 	c #BFBFC7",
"z 	c #9795A4",
"A 	c #8D8B9E",
"B 	c #C6C6CC",
"C 	c #F5F5F5",
"D 	c #EDEDEE",
"E 	c #6F6D81",
"F 	c #7C7B91",
"G 	c #88869E",
"H 	c #9391AB",
"I 	c #9996B2",
"J 	c #8E8CA5",
"K 	c #848397",
"L 	c #ABABB3",
"M 	c #A8A7B0",
"N 	c #D5D5D8",
"O 	c #6E6C80",
"P 	c #E5E5E6",
"Q 	c #DDDDDF",
"R 	c #7B798D",
"S 	c #747287",
"T 	c #D4D4D8",
"U 	c #EFEEEF",
"V 	c #807E93",
"W 	c #89869F",
"X 	c #8C89A2",
"Y 	c #88869F",
"Z 	c #9391A3",
"` 	c #CCCCD1",
" .	c #F3F3F4",
"..	c #706F81",
"+.	c #7A798E",
"@.	c #8F8DA6",
"#.	c #9A97B2",
"$.	c #8B8AA3",
"%.	c #817F96",
"&.	c #7B798F",
"*.	c #79778D",
"=.	c #878796",
"-.	c #767489",
";.	c #A2A1AC",
">.	c #7F7D90",
",.	c #7A798F",
"'.	c #77758A",
").	c #E9E9EB",
"!.	c #E8E8E9",
"~.	c #B0AFB9",
"{.	c #828097",
"].	c #9392A3",
"^.	c #878995",
"/.	c #77758B",
"(.	c #8B89A1",
"_.	c #9895B0",
":.	c #85839B",
"<.	c #807F95",
"[.	c #7F7E93",
"}.	c #7F7E94",
"|.	c #818096",
"1.	c #838195",
"2.	c #F7F7F7",
"3.	c #DBDBDD",
"4.	c #C4C3C8",
"5.	c #D2D2D5",
"6.	c #767588",
"7.	c #86849C",
"8.	c #9693AF",
"9.	c #9794B0",
"0.	c #9492AC",
"a.	c #828096",
"b.	c #CECED2",
"c.	c #999CA5",
"d.	c #757388",
"e.	c #7D7B92",
"f.	c #87859D",
"g.	c #908EA7",
"h.	c #9693AE",
"i.	c #9290A9",
"j.	c #8D8CA5",
"k.	c #8B89A2",
"l.	c #838299",
"m.	c #8A899A",
"n.	c #918F9D",
"o.	c #737284",
"p.	c #EAEAEB",
"q.	c #F1F1F1",
"r.	c #AFAEB4",
"s.	c #76758A",
"t.	c #9592AC",
"u.	c #807F96",
"v.	c #C0C0C6",
"w.	c #A9ADB4",
"x.	c #757489",
"y.	c #7E7C92",
"z.	c #8D8CA4",
"A.	c #9491AB",
"B.	c #9794AE",
"C.	c #9390AB",
"D.	c #8C8CA4",
"E.	c #8A88A1",
"F.	c #848299",
"G.	c #7E7D92",
"H.	c #93929E",
"I.	c #B8B7BE",
"J.	c #7E7D8D",
"K.	c #D7D7DA",
"L.	c #F2F2F3",
"M.	c #E6E6E8",
"N.	c #E2E2E4",
"O.	c #DCDCDF",
"P.	c #D5DBDF",
"Q.	c #D0D5DA",
"R.	c #CDD2D8",
"S.	c #CDD3D8",
"T.	c #C2C6CD",
"U.	c #BEC2CA",
"V.	c #CFD5D9",
"W.	c #717082",
"X.	c #838198",
"Y.	c #918FAA",
"Z.	c #7E7C93",
"`.	c #BCC1C6",
" +	c #DBE2E4",
".+	c #7C7B8E",
"++	c #828197",
"@+	c #8987A0",
"#+	c #9795B0",
"$+	c #9A97B3",
"%+	c #9694AE",
"&+	c #928FA9",
"*+	c #8E8DA5",
"=+	c #87859E",
"-+	c #7B7A8F",
";+	c #7F7D93",
">+	c #838197",
",+	c #848199",
"'+	c #88859E",
")+	c #89879F",
"!+	c #838199",
"~+	c #EAF2F2",
"{+	c #B5B5BA",
"]+	c #79788D",
"^+	c #9390AA",
"/+	c #86849B",
"(+	c #807F91",
"_+	c #9D9AB5",
":+	c #9D9AB6",
"<+	c #9E9AB7",
"[+	c #9B98B4",
"}+	c #9290AB",
"|+	c #8A87A0",
"1+	c #8D8BA5",
"2+	c #817E96",
"3+	c #737186",
"4+	c #ABAEB6",
"5+	c #EEF5F6",
"6+	c #EEEEEF",
"7+	c #6D6B7C",
"8+	c #7C7A90",
"9+	c #928FAA",
"0+	c #908EA8",
"a+	c #9693AD",
"b+	c #9F9CB9",
"c+	c #A19DBA",
"d+	c #A19EBA",
"e+	c #A09CB9",
"f+	c #9E9BB7",
"g+	c #8E8CA6",
"h+	c #6D6B7F",
"i+	c #BAC0C4",
"j+	c #B8B7BC",
"k+	c #7D7C92",
"l+	c #7B7A90",
"m+	c #9C99B5",
"n+	c #A29FBC",
"o+	c #A4A0BD",
"p+	c #A4A1BE",
"q+	c #A4A1BF",
"r+	c #A29EBC",
"s+	c #717084",
"t+	c #6E6C7F",
"u+	c #CCD2D4",
"v+	c #E2E9F1",
"w+	c #737384",
"x+	c #716F84",
"y+	c #817F95",
"z+	c #807E94",
"A+	c #8F8EA7",
"B+	c #A29EBB",
"C+	c #A4A0BE",
"D+	c #A6A3C1",
"E+	c #A7A4C2",
"F+	c #A8A4C3",
"G+	c #A5A2C0",
"H+	c #A3A0BD",
"I+	c #78768C",
"J+	c #747286",
"K+	c #757584",
"L+	c #DFDFE1",
"M+	c #C2C8D1",
"N+	c #6A687B",
"O+	c #737286",
"P+	c #78778C",
"Q+	c #918EA9",
"R+	c #9F9BB8",
"S+	c #A39FBC",
"T+	c #A6A2C0",
"U+	c #A8A5C3",
"V+	c #AAA6C5",
"W+	c #ABA7C6",
"X+	c #9E9BB8",
"Y+	c #706F83",
"Z+	c #6A697C",
"`+	c #878894",
" @	c #9B9EA9",
".@	c #6C6B7E",
"+@	c #77768B",
"@@	c #86849D",
"#@	c #918EA8",
"$@	c #BE9399",
"%@	c #A28590",
"&@	c #9F9CB8",
"*@	c #A9A6C4",
"=@	c #ACA8C7",
"-@	c #A39FBD",
";@	c #676679",
">@	c #94979F",
",@	c #E8EFF0",
"'@	c #E1E8F1",
")@	c #7C7D8C",
"!@	c #7D7B91",
"~@	c #93859A",
"{@	c #FAB3A6",
"]@	c #DEA198",
"^@	c #AAA6C4",
"/@	c #ACA7C7",
"(@	c #ADA8C8",
"_@	c #A2A6AD",
":@	c #EDF4F5",
"<@	c #DCDBDD",
"[@	c #727084",
"}@	c #818095",
"|@	c #BB9096",
"1@	c #FFB4A8",
"2@	c #FFB9AD",
"3@	c #A58893",
"4@	c #A5A1BF",
"5@	c #ABA6C6",
"6@	c #ACA7C6",
"7@	c #8B88A1",
"8@	c #F1F1F2",
"9@	c #908F9A",
"0@	c #706E82",
"a@	c #CB9594",
"b@	c #FEB2A6",
"c@	c #FFB8AB",
"d@	c #B98A84",
"e@	c #A9A5C4",
"f@	c #9897A1",
"g@	c #6F6E82",
"h@	c #79788E",
"i@	c #757387",
"j@	c #BE8E91",
"k@	c #FDB0A4",
"l@	c #FFB7AA",
"m@	c #9F8988",
"n@	c #806F7D",
"o@	c #A19EBB",
"p@	c #737187",
"q@	c #716F83",
"r@	c #848291",
"s@	c #9493A2",
"t@	c #9695A5",
"u@	c #999AAB",
"v@	c #9FA1AF",
"w@	c #AEB1BE",
"x@	c #B4B8C4",
"y@	c #BCC2D2",
"z@	c #CAD0E1",
"A@	c #D2D9E9",
"B@	c #DAE1F1",
"C@	c #777685",
"D@	c #85849C",
"E@	c #BCBBC1",
"F@	c #8B8A98",
"G@	c #8C7C8E",
"H@	c #F4AA9E",
"I@	c #FFB4A7",
"J@	c #E2A297",
"K@	c #EBADA2",
"L@	c #918BA4",
"M@	c #8F8CA6",
"N@	c #83778A",
"O@	c #BB8580",
"P@	c #947C88",
"Q@	c #807F94",
"R@	c #87849C",
"S@	c #838098",
"T@	c #7A788D",
"U@	c #DBDBDE",
"V@	c #EDEDED",
"W@	c #686779",
"X@	c #716E83",
"Y@	c #8E8BA5",
"Z@	c #C9C7CE",
"`@	c #E2E1E2",
" #	c #91909D",
".#	c #9F7E88",
"+#	c #EFA79D",
"@#	c #FFB6A9",
"##	c #FFBAAD",
"$#	c #B38A8E",
"%#	c #757389",
"&#	c #B78582",
"*#	c #E7A195",
"=#	c #E8A296",
"-#	c #957C88",
";#	c #727085",
">#	c #818097",
",#	c #8D8BA3",
"'#	c #8C8AA2",
")#	c #7D7C8E",
"!#	c #DCDCDE",
"~#	c #7C7A91",
"{#	c #C5C4CC",
"]#	c #E9E8E9",
"^#	c #D9D8D9",
"/#	c #A1A0AA",
"(#	c #7E778C",
"_#	c #A18390",
":#	c #A28998",
"<#	c #908BA5",
"[#	c #8D7C8E",
"}#	c #9F7372",
"|#	c #88797A",
"1#	c #EEA699",
"2#	c #DF9B90",
"3#	c #7C758A",
"4#	c #726F84",
"5#	c #BDBCC3",
"6#	c #CECED1",
"7#	c #69677B",
"8#	c #BEBCC9",
"9#	c #E6E5E6",
"0#	c #DAD9DA",
"a#	c #BFBEC4",
"b#	c #7C7A8E",
"c#	c #8B88A2",
"d#	c #908DA8",
"e#	c #A67F85",
"f#	c #F7ACA0",
"g#	c #E7A196",
"h#	c #D39288",
"i#	c #E9A296",
"j#	c #E49F93",
"k#	c #B78585",
"l#	c #9796A1",
"m#	c #F0F0F1",
"n#	c #C1C1C5",
"o#	c #68677A",
"p#	c #828198",
"q#	c #A4A1B6",
"r#	c #DEDDDE",
"s#	c #F2F1F2",
"t#	c #DEDDDF",
"u#	c #A9A8B2",
"v#	c #817F97",
"w#	c #85829B",
"x#	c #888198",
"y#	c #D89890",
"z#	c #EEA69A",
"A#	c #C28A85",
"B#	c #6E6D80",
"C#	c #706E83",
"D#	c #6B6A7D",
"E#	c #9D9CA5",
"F#	c #BEBEC3",
"G#	c #686679",
"H#	c #757287",
"I#	c #78778D",
"J#	c #B4B3B9",
"K#	c #E7E6E7",
"L#	c #EDECED",
"M#	c #F0EFF1",
"N#	c #E3E1E3",
"O#	c #F7F5F7",
"P#	c #EAE8EB",
"Q#	c #BFBDC5",
"R#	c #888796",
"S#	c #79768C",
"T#	c #937782",
"U#	c #A27C81",
"V#	c #8A737F",
"W#	c #6D6C7F",
"X#	c #6D6C80",
"Y#	c #6C6A7D",
"Z#	c #646275",
"`#	c #848591",
" $	c #D0D7D9",
".$	c #92909A",
"+$	c #676578",
"@$	c #87869E",
"#$	c #A09EB2",
"$$	c #E2E1E3",
"%$	c #EAE9EA",
"&$	c #EEEDEE",
"*$	c #E0DFE0",
"=$	c #F3F2F3",
"-$	c #F6F4F6",
";$	c #F8F6F8",
">$	c #E0DFE2",
",$	c #BFBEC5",
"'$	c #9E9CA8",
")$	c #7C7A8C",
"!$	c #727086",
"~$	c #716F82",
"{$	c #848390",
"]$	c #9998A2",
"^$	c #68667A",
"/$	c #6E6D81",
"($	c #676579",
"_$	c #666578",
":$	c #646274",
"<$	c #70707F",
"[$	c #A1A5AC",
"}$	c #CCD2D5",
"|$	c #625F73",
"1$	c #656376",
"2$	c #6B697D",
"3$	c #B3B1BF",
"4$	c #E6E5E7",
"5$	c #F0EFF0",
"6$	c #F2F0F2",
"7$	c #E4E2E4",
"8$	c #F3F1F3",
"9$	c #D9D8DA",
"0$	c #D5D4D6",
"a$	c #C8C6C9",
"b$	c #DBDADC",
"c$	c #D3D1D4",
"d$	c #A5A3B1",
"e$	c #626073",
"f$	c #6E6D7D",
"g$	c #999CA4",
"h$	c #BCC1C5",
"i$	c #DEE5E6",
"j$	c #B9B9BF",
"k$	c #615F72",
"l$	c #636175",
"m$	c #AEACBC",
"n$	c #CBCACD",
"o$	c #EBEAEA",
"p$	c #E9E7E9",
"q$	c #E7E5E6",
"r$	c #EEEDEF",
"s$	c #ECEBEC",
"t$	c #DAD9D9",
"u$	c #E3E2E3",
"v$	c #CCCBCD",
"w$	c #D7D6D8",
"x$	c #B5B2BD",
"y$	c #69687B",
"z$	c #656375",
"A$	c #CAD0D3",
"B$	c #898A98",
"C$	c #666477",
"D$	c #6A687C",
"E$	c #918EA7",
"F$	c #BAB8C6",
"G$	c #EBEAEB",
"H$	c #DCDADC",
"I$	c #DFDEDF",
"J$	c #CDCCCE",
"K$	c #D3D2D4",
"L$	c #B7B6C0",
"M$	c #77748A",
"N$	c #656377",
"O$	c #AFB3B8",
"P$	c #ECF3F4",
"Q$	c #84829B",
"R$	c #9C98B5",
"S$	c #B0ADC0",
"T$	c #C0BEC8",
"U$	c #DBDADD",
"V$	c #E4E3E4",
"W$	c #D2D1D2",
"X$	c #E0DFE1",
"Y$	c #DBDADB",
"Z$	c #B6B5B9",
"`$	c #9F9DAF",
" %	c #6A6979",
".%	c #DBE1E3",
"+%	c #605E71",
"@%	c #646376",
"#%	c #827F97",
"$%	c #A09DB4",
"%%	c #B1AEBE",
"&%	c #AFADBA",
"*%	c #BFBDC6",
"=%	c #B5B3BF",
"-%	c #9C9AAD",
";%	c #B2B7BC",
">%	c #D8DEE0",
",%	c #636074",
"'%	c #605D71",
")%	c #615E72",
"!%	c #646276",
"~%	c #676678",
"{%	c #6C6B7F",
"]%	c #6F6D82",
"^%	c #747186",
"/%	c #E9F1F1",
"(%	c #D4DBE4",
"_%	c #666577",
":%	c #747187",
"<%	c #6E6C81",
"[%	c #616072",
"}%	c #D6D6D8",
"|%	c #DAE1EA",
"1%	c #5F5D70",
"2%	c #615E71",
"3%	c #6A697D",
"4%	c #6B6A7E",
"5%	c #BFC4CE",
"6%	c #5F5D6F",
"7%	c #5E5C6E",
"8%	c #625F72",
"9%	c #636174",
"0%	c #636274",
"a%	c #CCCCCF",
"b%	c #D5DCE4",
"c%	c #CFD6DE",
"d%	c #7B7C8A",
"e%	c #5E5C6F",
"f%	c #5E5D6F",
"g%	c #5D5C6E",
"h%	c #605E70",
"i%	c #666478",
"j%	c #615F73",
"k%	c #D0D0D3",
"l%	c #CFCFD1",
"m%	c #A7A6AD",
"n%	c #9F9EA5",
"o%	c #9F9FA6",
"p%	c #D3D2D5",
"q%	c #82818D",
"r%	c #CBD1DA",
"s%	c #F4F4F5",
"t%	c #C8CED1",
"u%	c #7D7E8A",
"v%	c #5C5A6D",
"w%	c #ECF4F4",
"x%	c #8F929A",
"y%	c #585768",
"z%	c #5B5A6C",
"A%	c #5C5B6D",
"B%	c #5B596C",
"C%	c #9B98B5",
"D%	c #6F6E81",
"E%	c #DDE4EC",
"F%	c #E8F0F0",
"G%	c #85878F",
"H%	c #4F4E5E",
"I%	c #525161",
"J%	c #565565",
"K%	c #94949B",
"L%	c #B6B5BA",
"M%	c #919098",
"N%	c #7B7B8A",
"O%	c #E7EFF7",
"P%	c #9DA1A6",
"Q%	c #535261",
"R%	c #545263",
"S%	c #5B5A6A",
"T%	c #84819A",
"U%	c #727185",
"V%	c #9799A6",
"W%	c #D0D6D8",
"X%	c #8D8F97",
"Y%	c #C0C5C8",
"Z%	c #E6EDEE",
"`%	c #78768B",
" &	c #817E95",
".&	c #79778C",
"+&	c #B7BBC6",
"@&	c #8A8B97",
"#&	c #807D94",
"$&	c #D6DDE5",
"%&	c #ADB0B7",
"&&	c #686579",
"*&	c #9091A1",
"=&	c #DEE5E7",
"-&	c #767582",
";&	c #5F5C6E",
">&	c #5F5E70",
",&	c #D9D9DB",
"'&	c #C6C6C9",
")&	c #A3A3A9",
"!&	c #8B8A93",
"~&	c #84838E",
"                . . . . . . . .                 . . . . . . . . . . . . + + + + @ @ @ @ + + + + . . . .                         ",
"                . . . . . . . .                 . . . . . . . . . . . . + + + + @ @ @ @ + + + + . . . .                         ",
"                . . . . . . . .                 . . . . . . . . . . . . + + + + @ @ @ @ + + + + . . . .                         ",
"                . . . . . . . .                 . . . . . . . . . . . . + + + + @ @ @ @ + + + + . . . .                         ",
"                                                                                                                . . . . . . . . ",
"                                                                                                                . . . . . . . . ",
"                                    # $                                                                         . . . . . . . . ",
"                                    % & *                                                                       . . . . . . . . ",
". . . .                         . . = - ; > . . . . . . . . . .                                         . . . . . . . . . . . . ",
". . . .                         . . . , ' ) ! . . . . . . . . .                                         . . . . . . . . . . . . ",
". . . .                         . . . ~ { ] ^ ! . . . . . . . .                                         . . . . . . . . . . . . ",
". . . .                         . . . / ( _ : < ! . . . . . . .                                         . . . . . . . . . . . . ",
". . . .                               [ } | : 1 2 3                       4                                     . . . . . . . . ",
". . . .                               5 6 7 8 9 0 a b     c     d       e f                                     . . . . . . . . ",
". . . .           g h                 i j k l m n _ a o p q r s t     u v w                                     . . . . . . . . ",
". . . .       x y z A B C             D E F G H I m J K L j M N O P Q R S T                                     . . . . . . . . ",
"              U V W X Y Z `  .        p ..+.7 @.m #.1 $.%.&.*.=.-.;.>.,.'.).                    . . . . . . . .                 ",
"            !.~.{.' H 1 8 G ].i         ^./.k (.H 9 _.0 (.:.<.[.}.}.|.<.1.2.3.4.                . . . . . . . .                 ",
"              5.6.7.8 8.9.0.l a.b.      c.d.e.f.g.1 h.1 i.j.k.G 7.:.l.%.m.n.o.p.h q.            . . . . . . . .                 ",
"                r.s.{ _ t.h.1 J u.v.    w.x.y.f.z.A.h.m B.: C.g.D.E.G F.G./.H.I.J.K.c L.# M.N.O.P.Q.R.S.T.U.V..                 ",
"                D W./.X.E.Y.m h.' Z.`. +.+,.++@+g.t.#+I $+#.9 %+0.&+*+k.=+F.Z.+.-+;+>+,+:.7.'+)+@+)+=+!+F ~ ~+. . . . . . . . . ",
"                  {+O ]+{.k.0.9 ^+/+-.(+-+|.'+' ^+m $+_+:+<+:+[+I m 1 }+@.l |+G '+(.l ' j.1+l @+:.2+&.3+4+5+. . . . . . . . . . ",
"                  6+7+3+8+7 J 9+@.l.]+-+}.:.E.0+a+I :+b+c+d+d+e+f+[+n m 0.0 _ l $.l g+' k.f.F.k -+x.h+i+. . . . . . . . . . . . ",
"                    j+h+'.( :.G 7.k+l+( ++'+' H _.m+e+n+o+p+q+o+r+e+:+$+9.0.&+J k.)+G :.{.}.l+'.s+t+u+. . . . . . . . . . . . . ",
"        . . . . + + v+w+x+*.k+y+G.,.k+z+F.|+A+] #.f+B+C+D+E+F+E+G+H+e+_+I h.0 J |+:.a.k+&.I+J+O K+L+                            ",
"        . . . . + + + M+N+O+P++.*.+.k+<.7.(.0+@+Q+R+S+T+U+V+W+V+U+G+r+X+$+h.0 j.Y X.k+P+S Y+Z+`+p.                              ",
"        . . . . + + + +  @.@S -.+@} k+|.@@k.#@$@%@&@S+D+*@W+=@=@V+E+-@b+[+8.0 ' f.|.l+x.O ;@>@,@                                ",
"        . . . . + + + + '@)@E 3+-.]+!@|.@@(.~@{@]@h.S+D+^@/@(@=@V+E+-@b+$+h.8 l 7.<.l+x.Z+_@:@.                                 ",
". . . .                   <@Z+[@d.P+-+}@:.@+|@1@2@3@B+4@U+5@6@W+*@T+r+<+I 1 0+7@:.}.l+-.O 8@    + + + + @ @ @ @                 ",
". . . .                     9@0@d.*.s.;+X.G a@b@c@d@] C+D+U+V+e@E+C+e+m+m 0 J W X.;+,.s.E d     + + + + @ @ @ @                 ",
". . . .                     f@g@d.h@} i@[.:.j@k@l@m@n@o@C+G+T+G+o+c+:+9 ] @.f.p@a.k++.s.q@r@s@t@u@v@w@x@y@z@A@B@                ",
". . . .                     C@0@-.+.D@E@F@8+G@H@I@J@K@L@c+r+S+r+e+:+I 1 M@N@O@P@Q@F ]+-.[@S - Y W )+Y R@7 S@- T@U@              ",
"                          V@W@X@6 8+Y@Z@`@ #&..#+#@###$#:+X+X+:+[+9 9+%#&#*#=#-#( l+I+%#;#d.>#l l ,#'#E.W '+7.;+)#x             ",
"                          !#W@q@s.~#M@{#]#^#/#,.(#_#:#<#m $+I I C.[#}#|#1#=#2#3#!@h@'.S 4#S - Y W '+R@{ {.{.F.- 5#              ",
"                          6#7#q@'.l+E.8#9#0#U a#b#y.,+c#Q+1 1 d#e#f#g#h#i#j#k#e.,.I+d.;#g@3+8+%.%.- e.,.P+/.6 x+l#m#            ",
"                          n#o#0@-.+.p#q#r#r#6+s#t#u#]+!@v#w#G E.x#y#z#i#j#A#3#+.I+6 j 0@B#C#6 h@P+-.3+0@D#;@E#!.                ",
"                          F#G#E H#I#e.8.J#K#L#M#N#O#P#Q#R#P+&.!@Z.S#T#U#V#-.'./.%#E X@W#Z+X#q@x+E Y#;@Z#`# $. .                 ",
"                          .$+$W#;#s.h@@$#$$$%$&$*$=$-$;$K#>$,$'$)$!$;#x+E ~${$]$^$4#/$Z+G#^$($_$:$<$[$}$= . . .                 ",
"                        !#|$1$2$C#S +@F A.3$4$`@9#5$6$=$7$8$s#5$r#`@9$0$a$b$c$d$I+Y+.@G#e$f$g$h$i$= . . . . . .                 ",
"                        j$k$l$o#X#4#S +@}.h.m$n$o$L#&$p$q$r$L#s$t$4$u$t#v$w$x$f.3+/$y$z$A$. . . . . . . . . . .                 ",
"        . . . . . . . . B$k$e$C$D$/$[@S +@- E$m+F$u G$H$G$%$]#*$b$`@I$J$K$L$'#M$q@D#N$O$                                        ",
"        . . . . . . . P$+$k$k$Z#($2$/$x+S '.&.Q$0 R$S$T$U$9#V$W$X$r#Y$Z$`$G M$[@X#G# %,@                                        ",
"        . . . . . . . .%Z#k$+%e$@%G#D#X#C#3+%#I+l+#%X t.$+$%%%&%*%=%-%Y@- S [@E N+Z#;%.                                         ",
"        . . . . . . . >%,%e$'%)%e$!%~%Z+{%]%q@^%%#+@]+8+- !+G E.@+:.e.x.[@Y+O Z+1$<$/%.                                         ",
". . . . . . . . + + + (%)%e$+%'%k$,%Z#_%o#2$h+]%q@;#:%d.-.-.%#d.S ;#q@g@<%{%N+C$[%}%                                            ",
". . . . . . . . + + + |%1%k$2%1%'%k$e$Z#1$+$7#3%{%O E 0@0@X@C#g@E X#{%4%D$^$Z#+%J#                                              ",
". . . . . . . . + + + 5%1%1%+%6%7%1%+%8%9%Z#1$+$G#y$Z+2$4%4%D#2$D$y$o#+$1$e$1%0%a%                                              ",
". . . . . . . . + + + b%c%d%e%f%g%h%f%1%2%|$9%Z#1$N$C$_$_$+$+$i%C$@%9%j%1%Z#q@j k%                                              ",
"                          l%f%m%n%o%p%q%e%1%+%[%e$9%9%9%9%9%,%e$k$+%6%k$/.W :.x.r%+ + + + + + + . . . .                         ",
"                          s%N.    L#  h t%u%g%f%1%+%+%+%+%+%1%e%v%f%I+C.[+H {.;#b%+ + + + + + + . . . .                         ",
"                                        . w%x%y%z%g%g%g%g%A%B%z%7#{.0 C%[+M@!@D%E%+ + + + + + + . . . .                         ",
"                                        . . F%G%H%H%I%J%K%L%M%N+]+/+C.9.&+:.I+N%O%+ + + + + + + . . . .                         ",
"                . . . . . . . .               c P%Q%R%S%i$.  $Z+s.( { T%%.&.U%V%@ @ @ @ + + + + . . . .                         ",
"                . . . . . . . .                 . W%X%Y%. . Z%C$O `% &!+.&3+.@+&@ @ @ @ + + + + . . . .                         ",
"                . . . . . . . .                 . . . . . . . @&Z.:.%#e.#&|+g@$&@ @ @ @ + + + + . . . .                         ",
"                . . . . . . . .                 . . . . . . . %&1%'%1%1%&&} *&+ @ @ @ @ + + + + . . . .                         ",
". . . .                         . . . . . . . . . . . . . . . =&-&7%;&6%6%>&,&                          . . . . . . . . . . . . ",
". . . .                         . . . . . . . . . . . . . . . . q.'&)&!&~&5.                            . . . . . . . . . . . . ",
". . . .                         . . . . . . . . . . . . . . . .                                         . . . . . . . . . . . . ",
". . . .                         . . . . . . . . . . . . . . . .                                         . . . . . . . . . . . . ",
". . . . . . . . . . . .                                                                                                         ",
". . . . . . . . . . . .                                                                                                         ",
". . . . . . . . . . . .                                                                                                         ",
". . . . . . . . . . . .                                                                                                         "};
