/* XPM */
static char * asset_wall_xpm[] = {
"64 64 140 2",
"  	c #F8F8F8",
". 	c #F0F8F8",
"+ 	c #E8F0F8",
"@ 	c #E0E8F8",
"# 	c #010201",
"$ 	c #01030B",
"% 	c #0A0101",
"& 	c #F4FEFE",
"* 	c #B7D9E5",
"= 	c #A3E2EC",
"- 	c #9DE3EC",
"; 	c #000513",
"> 	c #FDFEFE",
", 	c #292928",
"' 	c #D4F5FD",
") 	c #ABE3F4",
"! 	c #9CDBE9",
"~ 	c #162E30",
"{ 	c #CAEBF7",
"] 	c #A4E3F2",
"^ 	c #F7F8F6",
"/ 	c #D5F8FB",
"( 	c #9EE2F2",
"_ 	c #ABD7DC",
": 	c #FDFDF5",
"< 	c #ABDCEB",
"[ 	c #001400",
"} 	c #79D0A5",
"| 	c #2BA825",
"1 	c #29B617",
"2 	c #279B27",
"3 	c #98E9D9",
"4 	c #98EFE2",
"5 	c #98E6E4",
"6 	c #9DE3FA",
"7 	c #2A7819",
"8 	c #000B01",
"9 	c #D8D8D8",
"0 	c #306D2C",
"a 	c #267735",
"b 	c #A8D6EA",
"c 	c #8ED7B7",
"d 	c #26B30C",
"e 	c #37B718",
"f 	c #2BAD0C",
"g 	c #2CB213",
"h 	c #34AC1B",
"i 	c #1B8A03",
"j 	c #1A7A16",
"k 	c #1D830C",
"l 	c #237C13",
"m 	c #33AE0E",
"n 	c #1C8403",
"o 	c #66AF57",
"p 	c #248313",
"q 	c #228305",
"r 	c #23830B",
"s 	c #337423",
"t 	c #1B8415",
"u 	c #2DB31A",
"v 	c #28B506",
"w 	c #427036",
"x 	c #97BC91",
"y 	c #D5EBF6",
"z 	c #67C894",
"A 	c #96E58C",
"B 	c #329817",
"C 	c #57B06E",
"D 	c #869BA4",
"E 	c #8C908C",
"F 	c #97E8C8",
"G 	c #6BCD72",
"H 	c #32B313",
"I 	c #CCF6F9",
"J 	c #ACD6E4",
"K 	c #ECFEFF",
"L 	c #C7E7EB",
"M 	c #A6E5E7",
"N 	c #D9E5E7",
"O 	c #70B6B0",
"P 	c #67BA98",
"Q 	c #C8C7C8",
"R 	c #183012",
"S 	c #207845",
"T 	c #ABDBE4",
"U 	c #2DAC1B",
"V 	c #148302",
"W 	c #02090B",
"X 	c #174B0C",
"Y 	c #1C7C0B",
"Z 	c #188809",
"` 	c #35A926",
" .	c #30AE2B",
"..	c #32AC15",
"+.	c #32B31A",
"@.	c #26B214",
"#.	c #36A719",
"$.	c #E8FFE6",
"%.	c #25790A",
"&.	c #2CAD14",
"*.	c #2BB30D",
"=.	c #31B20D",
"-.	c #8CDF73",
";.	c #28A817",
">.	c #E5FFDA",
",.	c #276E0E",
"'.	c #26A90A",
").	c #011B00",
"!.	c #072902",
"~.	c #012300",
"{.	c #724425",
"].	c #833E12",
"^.	c #7A411B",
"/.	c #693514",
"(.	c #130000",
"_.	c #894110",
":.	c #8E3804",
"<.	c #843B0C",
"[.	c #562508",
"}.	c #BAB9B8",
"|.	c #D3B1A1",
"1.	c #727B83",
"2.	c #8EADB3",
"3.	c #98B6C4",
"4.	c #26231A",
"5.	c #762D06",
"6.	c #763509",
"7.	c #807D7D",
"8.	c #322A2A",
"9.	c #32302B",
"0.	c #455B68",
"a.	c #A4DCEC",
"b.	c #555758",
"c.	c #443F46",
"d.	c #444443",
"e.	c #373738",
"f.	c #B6E2E9",
"g.	c #A9DDF6",
"h.	c #394549",
"i.	c #B8D6DB",
"                . . . . . . . .                 . . . . . . . . . . . . + + + + @ @ @ @ + + + + . . . .                         ",
"                . . . . . . . .                 . . . . . . . . . . . . + + + + @ @ @ @ + + + + . . . .                         ",
"                . . . . . . . .                 . . . . . . . . . . . . + + + + @ @ @ @ + + + + . . . .                         ",
"                . . . . . . . .                 . . . . . . . . . . . . + + + + @ @ @ @ + + + + . . . .                         ",
"                                                                                                                . . . . . . . . ",
"                                                                                                                . . . . . . . . ",
"                                                                                                                . . . . . . . . ",
"                                                                                                                . . . . . . . . ",
". . . .                         . . . . . . . . . . . . . . . .                                         . . . . . . . . . . . . ",
". . . .                         . . . . . . . . . . . . . . . .                                         . . . . . . . . . . . . ",
". . . .                         . . . . . . . . . . . . . . . .                                         . . . . . . . . . . . . ",
". . . .                         . . . . . . . . . . . . . . . .                                         . . . . . . . . . . . . ",
". . . .                                                                                                         . . . . . . . . ",
". . . .                                                                                                         . . . . . . . . ",
". . . .                                                                                                         . . . . . . . . ",
". . . .                                                                                                         . . . . . . . . ",
"                                        . . . . . . . .                                         . . . . . . . .                 ",
"                                        . . . . . . . .                                         . . . . . . . .                 ",
"                                        . . . . . . . .                                         . . . . . . . .                 ",
"                                        . . . . . . . .                                         . . . . . . . .                 ",
"                        + + + + . . . . . . . . . . . . . . . .                 . . . . . . . . . . . . . . . . . . . . . . . . ",
"                        + + + + . . . . . . . . . . . . . . # $ $ #             . . . . . . . . . . . . . . . . . . . . . . . . ",
"                        + + + + . . . . . . . . . . . . . % & * = - ; #     >   . . . . . . . . . . . . . . . . . . . . . . . . ",
"                        + + + + . . . . . . . . . . > . , > > > > ' ) ! ~       . . . . . . . . . . . . . . . . . . . . . . . . ",
"        . . . . + + + + + + + + . . . . . . . . . . # > > { > > > > > & ] # . . . . . . . . . .                                 ",
"        . . . . + + + + + + + + . . . . . . . . . . ^ > & / ( - _ > : > > < [ . . . . . . . . .                                 ",
"        . . . . + + + + + + + + . . . . . . . . . . & & & } | 1 2 3 4 5 6 7 8 . . . . . . . . .                                 ",
"        . . . . + + + + + + + + . . . . . 9 . . . . 0 a b c d 1 e f g h i j [ . . . . . . . . .                                 ",
". . . .                         . . . .             # k l 2 m n n o p q r [                     + + + + @ @ @ @                 ",
". . . .                         . . . .             s l j j t m u v 1 l q k #                   + + + + @ @ @ @                 ",
". . . .                         . . . .           w x { { y ( z g f g A B C D                   + + + + @ @ @ @                 ",
". . . .                         . . . .           E > > > > ^ & F G H g m & 6 #                 + + + + @ @ @ @                 ",
"                                                # > > > > > > > > I 3 4 : : & J . . . . . . . .                                 ",
"                                                ; ] K > & L : > : I & & > > > M . . . . . . . .                                 ",
"                                                    ' N : > : > : > O P P z #   . Q . . . . . .                                 ",
"                                                  R 0 S T J T J T } U U V k w W . . . . . . . .                                 ",
"                                                  X Y Z ` U  .| ..+.f @.#.l i [         . . . . . . . . . . . .                 ",
"                                                [ r $.%.i e &.*.=.-.;.u H >.,.l         . . . . . . . . . . . .                 ",
"                                                8 p V Z q '.*.*.f d 1 v g n i p         . . . . . . . . . . . .                 ",
"                                                  [ ).).).).!.~.~.~.).~.~.).[ [         . . . . . . . . . . . .                 ",
"        . . . . . . . . + + + + + + + + . Q . . . . . . . . {.].^./.(.. . . . . . . . .                                         ",
"        . . . . . . . . + + + + + + + + . . . . . . . . . . _.:.<.[.# . . . . . . . . .                                         ",
"        . . . . . . . . + + + + + + + + . . . . }.. . . . . _.<.[.|.1.2.. . . . . . . .                                         ",
"        . . . . . . . . + + + + + + + + . . . . . . # > > 3.4.5.6.7.6 & > ^ $ . . . . .                                         ",
". . . . . . . . + + + + + + + + @ @ @ @ + + + + . . > > K 2.8.9./.0.> & a.K ^ #                                                 ",
". . . . . . . . + + + + + + + + @ @ @ @ + + + + . b.> & * c.d.e.$ Q ) _ 9.f.g.h.3.                                              ",
". . . . . . . . + + + + + + + + @ @ @ @ + + + + i.& > > > : > : M b > ^ > > > > > K f.                                          ",
". . . . . . . . + + + + + + + + @ @ @ @ + + + + . . . .         . . . . . . . .                                                 ",
"                                        . . . .                 . . . . . . . . + + + + + + + + . . . .                         ",
"                                        . . . .                 . . . . . . . . + + + + + + + + . . . .                         ",
"                                        . . . .                 . . . . . . . . + + + + + + + + . . . .                         ",
"                                        . . . .                 . . . . . . . . + + + + + + + + . . . .                         ",
"                . . . . . . . .                 . . . . . . . . . . . . + + + + @ @ @ @ + + + + . . . .                         ",
"                . . . . . . . .                 . . . . . . . . . . . . + + + + @ @ @ @ + + + + . . . .                         ",
"                . . . . . . . .                 . . . . . . . . . . . . + + + + @ @ @ @ + + + + . . . .                         ",
"                . . . . . . . .                 . . . . . . . . . . . . + + + + @ @ @ @ + + + + . . . .                         ",
". . . .                         . . . . . . . . . . . . . . . .                                         . . . . . . . . . . . . ",
". . . .                         . . . . . . . . . . . . . . . .                                         . . . . . . . . . . . . ",
". . . .                         . . . . . . . . . . . . . . . .                                         . . . . . . . . . . . . ",
". . . .                         . . . . . . . . . . . . . . . .                                         . . . . . . . . . . . . ",
". . . . . . . . . . . .                                                                                                         ",
". . . . . . . . . . . .                                                                                                         ",
". . . . . . . . . . . .                                                                                                         ",
". . . . . . . . . . . .                                                                                                         "};
