/* XPM */
static char *asset_map_neige[] = {
/* columns rows colors chars-per-pixel */
"64 64 13 1 ",
"  c #060608",
". c #242234",
"X c #333941",
"o c #4A5462",
"O c #6D758D",
"+ c #72759C",
"@ c #8B8D9E",
"# c #9C9C9E",
"$ c #8B93AF",
"% c #B3B9D1",
"& c #B9BFFB",
"* c #E3E6FF",
"= c white",
/* pixels */
"****=****=====&*****=****=====&*****=****=====&*****=****=====&*",
"*=*=***===*&&&***=*=***===*&&&***=*=***===*&&&***=*=***===*&&&**",
"=*=***=*=***&***=*=***=*=***&***=*=***=*=***&***=*=***=*=***&***",
"==***=*=*&*&***===***=*=*&*&***===***=*=*&*&***===***=*=*&*&***=",
"=&**==*&**&***===&**==*&**&***===&**==*&**&***===&**==*&**&***==",
"&**=****&****=&*&**=****&****=&*&**=****&****=&*&**=****&****=&*",
"**=*=*******==*&**=*=*******==*&**=*=*******==*&**=*=*******==*&",
"*********====&&**********====&&**********====&&**********====&&*",
"****======*=&&*&****======*=&&*&****======*=&&*&****======*=&&*&",
"**=====*=*=&&*&***=====*=*=&&*&***=====*=*=&&*&***=====*=*=&&*&*",
"*===*=*=*&&**&***===*=*=*&&**&***===*=*=*&&**&***===*=*=*&&**&**",
"===*=**&********===Xo**&*****O%$oO$*=**&**%$****===*=**&********",
"==**&*&*********==*&&oO***%$O&&&&&&oO$&*%$&&****==**&*&*********",
"=*&&*&*********==*&&*&&O$O&&&**==*&&&&oO&&*****==*&&*&*********=",
"&***&*********==&***&**&&&****==&***&*&&******==&***&*********==",
"************===&************===&************===&************===&",
"****=****=====&*****=****=====&**&**=****=====&*****=****=====&*",
"*=*=***===*&&&***=*=***===*&&&&&&.&&***===*&&&***=*=***===*&&&**",
"=*=***=*=**@X&**=*=***=*=*&.XX. XX$O&*=*=***&***=*=***=*=***&***",
"==***=*=*&@Xo&*===***=*=*& o%%oo$X%$o&*=*&*&***===&o@=*=*&*&***=",
"=&**==*&**+oOo&==&**==*&& .%%$$$OX%O%O&&**&***===&&Xo#*&**&***==",
"&**=****&**@$O&*&**=**&..X.O%$$oOX$O%%o.&&***=&*&&.X@@**&****=&*",
"**=*=*******#$O&**=*=&.X$oXO$oXXo@OO$$%O..&*==*&*&.o#@******==*&",
"*********===#%O&****&.X$$Oo##++@@@@@O$O$Oo.&=&&*&.X@@****====&&*",
"****======*=+%$&***&.XO$Oo@#++@+@*@@#OOO$O%o&&*&&..@#=====*=&&*&",
"**=====*=*=+%$&***=&XooOo@#++@&***==##ooOo$O&*&**&Xo##=*=*=&&*&*",
"*===*=*=*&&@%O&**=&XoOo#@++**&***===*#@#ooO$&&***&.X@#*=*&&**&**",
"===*=**&***@$O&*==&oXo@+@*******===*=*@+@@oOo&**=&Xo#@*&********",
"==**&*&***@%O&**=&.Xo@+@********==**&*&*@@@oO.&*==&oo@+*********",
"=*&&*&****@%$&*==&Xo@+@********==*&&*&****@@$o&==*&Xo+@********=",
"&***&*****@$O&==&&o@+@********==&***&******@OO&=&*&Xo@@*******==",
"**********@$o&=&*&.o@@******===&***********@o.&&**&Xo@@*****===&",
"****=****=#Oo&&**&Xo#@***=====&*****=****===#o&***&Xo@@**=====&*",
"*=*=***===@oO&***=&o@@*===*&&&***=*=***===*&$&***=&.o@@===*&&&**",
"=*=***=*=**@oo&*=*=&o@#*=***&***=*=***=*=***O&**=&.X@@#*=***&***",
"==***=*=*&*+Xo&===**&oo#*&*&***===***=*=*&*$&**==&.o@#*=*&*&***=",
"=&**==*&**&@o$&==&**=&&o@*&***===&**==*&**&O&*===&Xo##*&**&***==",
"&**=****&***@%O&&**=***&o****=&*&**=****&$O&*=&*&Xo#@***&****=&*",
"**=*=*******#%O&**=*=**&o@**==*&**=*=***$&&*==*&&.o@#*******==*&",
"*********==#%$&*********&o===&&********$&====&&*&.X@@****====&&*",
"****======*#%O&&****====&o*=&&*&****==O&==*=&&*&*&.X##====*=&&*&",
"**=====*=*#$$&&***=====*&o=&&*&***===$&*=*=&&*&**&.oX#=*=*=&&*&*",
"*===*=*=*&&@O&***===*=*=*&oO*&***===$&*=*&&**&***=&.X#*=*&&**&**",
"===*=**&********===*=**&**&&O$**==O$&**&********==&.#**&********",
"==**&*&*********==**&*&*****&&oOOO&&&*&*********==**&*&*********",
"=*&&*&*********==*&&*&********&&&&&&*&*********==*&&*&*********=",
"&***&*********==&***&*********==&***&*********==&***&*********==",
"************===&*******&&&**===&******&&****===&************===&",
"*&&*=****====&&*****=&&..X&&&=&****&&&..&&====&*****=****=====&*",
"& .&***===*&& .&*=*&&..Xooooo&**&&&ooX.XoX&&&&***=*=***===*&&&**",
"..o&&*=*=***&.Xo=*=..oXXXoOO%O&&OOOoXo.XoXO$+***=*=***=*=***&***",
"XoX&*=*=*&*&&.X$==*@XX@#@+o$$%%$O$OoXX@#XX$+***===***=*=*&*&***=",
"oX &&=*&**&*&.X%=&**##@+@@+@@%$O$OX@##@+@@+***===&**==*&**&***==",
"OX&=****&****&o%&**=****&*@@@#$O+@@#@@**&****=&*&**=****&****=&*",
"o@&&=*******&&@$**=*=*******=#@+@@#*=*******==*&**=*=*******==*&",
"@@&******====&+@*********====&+@@********====&&**********====&&*",
"@***======*=&&*+****======*=&&*&****======*=&&*&****======*=&&*&",
"**=====*=*=&&*&***=====*=*=&&*&***=====*=*=&&*&***=====*=*=&&*&*",
"*===*=*=*&&**&***===*=*=*&&**&***===*=*=*&&**&***===*=*=*&&**&**",
"===*=**&********===*=**&********===*=**&********===*=**&********",
"==**&*&*********==**&*&*********==**&*&*********==**&*&*********",
"=*&&*&*********==*&&*&*********==*&&*&*********==*&&*&*********=",
"&***&*********==&***&*********==&***&*********==&***&*********==",
"================************===&************===&************===&"
};
