/* XPM */
static char * asset_player_5_xpm[] = {
"64 64 157 2",
"  	c #F8F8F8",
". 	c #F0F8F8",
"+ 	c #E8F0F8",
"@ 	c #E0E8F8",
"# 	c #C95717",
"$ 	c #B95717",
"% 	c #522C0F",
"& 	c #8D3B0C",
"* 	c #E67A1D",
"= 	c #FDB65C",
"- 	c #D67C35",
"; 	c #020101",
"> 	c #EA5904",
", 	c #E57A16",
"' 	c #FBB95C",
") 	c #FEB455",
"! 	c #E4590B",
"~ 	c #E97A1D",
"{ 	c #0C0000",
"] 	c #9A3A0B",
"^ 	c #F8B966",
"/ 	c #FCBA62",
"( 	c #F8B858",
"_ 	c #EB751D",
": 	c #EA5411",
"< 	c #9B360B",
"[ 	c #E47B22",
"} 	c #DC8226",
"| 	c #953504",
"1 	c #F27722",
"2 	c #A33502",
"3 	c #FEFEFC",
"4 	c #157746",
"5 	c #E45912",
"6 	c #6C6C6B",
"7 	c #963716",
"8 	c #9B3A03",
"9 	c #FAFCF7",
"0 	c #EA7A21",
"a 	c #E45619",
"b 	c #EA5A12",
"c 	c #D46534",
"d 	c #0D7A45",
"e 	c #108D4B",
"f 	c #E5560C",
"g 	c #793718",
"h 	c #D65B24",
"i 	c #D75718",
"j 	c #E64E09",
"k 	c #36DD8B",
"l 	c #52DBC8",
"m 	c #B4661C",
"n 	c #E37B2B",
"o 	c #DD5B0C",
"p 	c #E45612",
"q 	c #8E2D07",
"r 	c #EA590D",
"s 	c #E9550D",
"t 	c #8B3C1B",
"u 	c #E5751B",
"v 	c #EB8818",
"w 	c #E97715",
"x 	c #ED4E10",
"y 	c #F88619",
"z 	c #EB5505",
"A 	c #763A24",
"B 	c #F6BA5C",
"C 	c #E45505",
"D 	c #8A3706",
"E 	c #F38614",
"F 	c #E6650B",
"G 	c #ED8A13",
"H 	c #121315",
"I 	c #FEB46A",
"J 	c #9C3603",
"K 	c #953A0B",
"L 	c #C6490A",
"M 	c #DC5A1B",
"N 	c #EA5819",
"O 	c #FCDC3C",
"P 	c #E8AC1A",
"Q 	c #F1B529",
"R 	c #E78627",
"S 	c #A36D5A",
"T 	c #E4920B",
"U 	c #EDE53A",
"V 	c #EC8B0D",
"W 	c #923C22",
"X 	c #A33611",
"Y 	c #AA3400",
"Z 	c #E35A1B",
"` 	c #F19716",
" .	c #F5E339",
"..	c #E79715",
"+.	c #F8DA3A",
"@.	c #D34D0E",
"#.	c #B74708",
"$.	c #B43C03",
"%.	c #754B2C",
"&.	c #DD5A14",
"*.	c #F2E33B",
"=.	c #EBE537",
"-.	c #F4841A",
";.	c #F5CB33",
">.	c #964316",
",.	c #FDB563",
"'.	c #EC7621",
").	c #ED720F",
"!.	c #F3860D",
"~.	c #742805",
"{.	c #DD5C03",
"].	c #95360B",
"^.	c #FFC67D",
"/.	c #E86916",
"(.	c #953B04",
"_.	c #8D450C",
":.	c #140000",
"<.	c #D88946",
"[.	c #DB7727",
"}.	c #A53908",
"|.	c #CD8538",
"1.	c #DB751A",
"2.	c #A23A01",
"3.	c #C96728",
"4.	c #FDC982",
"5.	c #FDC97D",
"6.	c #170903",
"7.	c #E78834",
"8.	c #874319",
"9.	c #FAC36A",
"0.	c #FEC582",
"a.	c #E35905",
"b.	c #F09233",
"c.	c #070907",
"d.	c #9B3B12",
"e.	c #E57726",
"f.	c #230100",
"g.	c #010209",
"h.	c #F8C67B",
"i.	c #F79B44",
"j.	c #A74614",
"k.	c #F18A0D",
"l.	c #FBA849",
"m.	c #DC5514",
"n.	c #A94606",
"o.	c #FCB976",
"p.	c #D66718",
"q.	c #F28913",
"r.	c #1B0000",
"s.	c #F68524",
"t.	c #8C3B14",
"u.	c #582505",
"v.	c #DD540C",
"w.	c #252525",
"x.	c #202120",
"y.	c #945030",
"z.	c #494949",
"                . . . . . . . .                 . . . . . . . . . . . . + + + + @ @ @ @ + + + + . . . .                         ",
"                . . . . . . . .                 . . . . . . . . . . . . + + + + @ @ @ @ + + + + . . . .                         ",
"                . . . . . . . .                 . . . . . . . . . . . . + + + + @ @ @ @ + + + + . . . .                         ",
"                . . . . . . . .                 . . . . . . . . . . . . + + + + @ @ @ @ + + + + . . . .                         ",
"                                                                                                                . . . . . . . . ",
"                                                                                                                . . . . . . . . ",
"                                                                                                                . . . . . . . . ",
"                                                                                                                . . . . . . . . ",
". . . .                         . . . . . . . . . . . . . . . .                                         . . . . . . . . . . . . ",
". . . .                         . . . . . . . . . . . . . . . .                                         . . . . . . . . . . . . ",
". . . .                         . . . . . . . . . . . . . . . .                                         . . . . . . . . . . . . ",
". . . .                         . . . . . . . . . . . . . . . .                                         . . . . . . . . . . . . ",
". . . .                                                                                                         . . . . . . . . ",
". . . .                                                                                                         . . . . . . . . ",
". . . .                                                                                                         . . . . . . . . ",
". . . .                                                               # $ %                                     . . . . . . . . ",
"                                        . . . . . . . .         & * = = * * * - ;               . . . . . . . .                 ",
"                                        . . . . . . . .       > , = ' ) ! ~ ~ * , {             . . . . . . . .                 ",
"                                        . . . . . . . .       ] ^ / ( _ : < < [ } |             . . . . . . . .                 ",
"                                        . . . . . . . .     & * = ( ~ 1 2 3 4 ] , 5 6           . . . . . . . .                 ",
"                        + + + + . . . . . . . . . . . . . . 7 , * * ~ * 8 9 4 < 0 a 6 . . . . . . . . . . . . . . . . . . . . . ",
"                        + + + + . . . . . . . . b c c . . . . _ * * ~ ~ 8 d e ] [ f g . . . . . . . . . . . . . . . . . . . . . ",
"                        + + + + . . . h i . j ! . . . . . . k ) , ~ * * ! l m n o p q . . . . . . . . . . . . . . . . . . . . . ",
"                        + + + + . . . f r f ! s . . . . . . t ( * ~ ~ [ u v w ! : s q . . . . . . . . . . . . . . . . . . . . . ",
"        . . . . + + + + + + + + . . x f y : z f . . . . . A / B ~ * [ * ~ C p s ] p D . . . . .                                 ",
"        . . . . + + + + + + + + . s s E E F F . G . . . . H I u , J v _ z 8 K 8 s s L . . . . .                                 ",
"        . . . . + + + + + + + + M N ! G O P Q : o . . . . A R C * ! p i & 3 p f : a S . . . . .                                 ",
"        . . . . + + + + + + + + h 5 E T U O Q V : . . . . . W ; ; X J Y p p 5 < ! Z 6 . . . . .                                 ",
". . . .                         . s `  .Q ..+. .s                   L J @.#.$.s f 5 %.          + + + + @ @ @ @                 ",
". . . .                         &.y *.=.-.F ;.U z                     >.,.= '.J 1 : #.          + + + + @ @ @ @                 ",
". . . .                         . v U V ! r ).!.                    ! ( ' ( ' 8 * _ : ~.        + + + + @ @ @ @                 ",
". . . .                         . . f E s f ).{.                C < ]./ ^.K < B * * /.#.        + + + + @ @ @ @                 ",
"                                      f s s 5                 p = f (.^._.^ / * ~ * #.f :.. . .                                 ",
"                                        | <.                  (._ & ] ^.[.~ ~ [ * }.s ! 8 . . .                                 ",
"                                        8 |.                  7 ~ 1._.^.D { * K ; * s s p ; . .                                 ",
"                                        2./ 3.                  ; :.4.^.5.:.6./ B _ s s : }.. .                                 ",
"                                          7./ 8.                  * ^.^.^.5.^.^.' 0 : s r ! ; . . . . . . . . .                 ",
"                                          3.' 9.8                 u 0.^.^.5.5.5.' [ ! r s a.7 . . . . . . . . .                 ",
"                                            b.0 w K ;             R ^.^.^.^.5.^.' < s s f N : c.. . . . . . . .                 ",
"                                            # u [ u 0 d.{       K , 4.^.5.^.^.^.] ~ * /.: r f ] . . . . . . . .                 ",
"        . . . . . . . . + + + + + + + + . . . e.~ [ * , n f.g.K V b 4.^.5.^.h.s ~ ) i.[ ! s s ;                                 ",
"        . . . . . . . . + + + + + + + + . . . j., ~ * ~ 1 p 8 k.k.s B 0.5.5.5.] [ ' l.* ! ! f ;                                 ",
"        . . . . . . . . + + + + + + + + . . . . g m.C f s : { G ' G n.,.= / ' ; _ 0 * _ C s p :.                                ",
"        . . . . . . . . + + + + + + + + . . . . . . f.2 o.p.3.8 v V q.R (.,.B 8.f ! ! ! s p s m.g                               ",
". . . . . . . . + + + + + + + + @ @ @ @ + + + + . . . . r.o.4.4.J !.s.z ! 2.] d.< p b : : 2 C : t.                              ",
". . . . . . . . + + + + + + + + @ @ @ @ + + + + . . . .   c.t.4.| g.8 f f ; g..   K ; u.< : s m.g.                              ",
". . . . . . . . + + + + + + + + @ @ @ @ + + + + . . . .       8 C _ , /.s a.; ; ;     # z ! f v.c.                              ",
". . . . . . . . + + + + + + + + @ @ @ @ + + + + . . . .     Z   K . Z . a { . .     $ ~ [ x : &                                 ",
"                                        . . . .               >.w.x.x.x.%.. . . + y.+ + A + g H . . . .                         ",
"                                        . . . .                 . . . . . . . . + + y.z.z.z.z.+ . . . .                         ",
"                                        . . . .                 . . . . . . . . + + + + + + + + . . . .                         ",
"                                        . . . .                 . . . . . . . . + + + + + + + + . . . .                         ",
"                . . . . . . . .                 . . . . . . . . . . . . + + + + @ @ @ @ + + + + . . . .                         ",
"                . . . . . . . .                 . . . . . . . . . . . . + + + + @ @ @ @ + + + + . . . .                         ",
"                . . . . . . . .                 . . . . . . . . . . . . + + + + @ @ @ @ + + + + . . . .                         ",
"                . . . . . . . .                 . . . . . . . . . . . . + + + + @ @ @ @ + + + + . . . .                         ",
". . . .                         . . . . . . . . . . . . . . . .                                         . . . . . . . . . . . . ",
". . . .                         . . . . . . . . . . . . . . . .                                         . . . . . . . . . . . . ",
". . . .                         . . . . . . . . . . . . . . . .                                         . . . . . . . . . . . . ",
". . . .                         . . . . . . . . . . . . . . . .                                         . . . . . . . . . . . . ",
". . . . . . . . . . . .                                                                                                         ",
". . . . . . . . . . . .                                                                                                         ",
". . . . . . . . . . . .                                                                                                         ",
". . . . . . . . . . . .                                                                                                         "};
