/* XPM */
static char * asset_player_4_xpm[] = {
"64 64 198 2",
"  	c #F8F8F8",
". 	c #F0F8F8",
"+ 	c #E8F0F8",
"@ 	c #E0E8F8",
"# 	c #FCFDFD",
"$ 	c #FAF7F7",
"% 	c #E7E7EA",
"& 	c #EDF2F6",
"* 	c #EC4B7B",
"= 	c #F2F5FC",
"- 	c #E43E70",
"; 	c #A84656",
"> 	c #BC4552",
", 	c #C78788",
"' 	c #DCE4F2",
") 	c #FDFDF4",
"! 	c #8C474B",
"~ 	c #8A3846",
"{ 	c #B47885",
"] 	c #B7354B",
"^ 	c #C33B45",
"/ 	c #C83A47",
"( 	c #C44348",
"_ 	c #982C39",
": 	c #C73B56",
"< 	c #AB2D4C",
"[ 	c #B43A44",
"} 	c #BB3A45",
"| 	c #B33542",
"1 	c #96344E",
"2 	c #AA3857",
"3 	c #BA3B62",
"4 	c #C2363E",
"5 	c #DA4555",
"6 	c #D4414D",
"7 	c #D33D55",
"8 	c #A43C4A",
"9 	c #B4424C",
"0 	c #B43D4A",
"a 	c #C34552",
"b 	c #C44A54",
"c 	c #F3F4F4",
"d 	c #A86668",
"e 	c #D44454",
"f 	c #E24B5C",
"g 	c #F24A7D",
"h 	c #E4485B",
"i 	c #BA3643",
"j 	c #C7CBD8",
"k 	c #CDD5E2",
"l 	c #B73759",
"m 	c #C73C65",
"n 	c #D34A5A",
"o 	c #CB3C4A",
"p 	c #A5333D",
"q 	c #F2DCE7",
"r 	c #A5393E",
"s 	c #F5FAFC",
"t 	c #CDBAC5",
"u 	c #D0B0B0",
"v 	c #E54777",
"w 	c #D43D6A",
"x 	c #D23E4C",
"y 	c #AC3542",
"z 	c #A96975",
"A 	c #D3D6E2",
"B 	c #AC3A44",
"C 	c #BCC7D5",
"D 	c #9BA5B0",
"E 	c #88555B",
"F 	c #C43C4A",
"G 	c #B2333E",
"H 	c #AB333D",
"I 	c #B5BBC8",
"J 	c #D2D5DD",
"K 	c #C3424E",
"L 	c #F7E8EC",
"M 	c #EDF3FC",
"N 	c #E8EBF6",
"O 	c #A9B2BC",
"P 	c #892B35",
"Q 	c #96353B",
"R 	c #BC424D",
"S 	c #BC3D4A",
"T 	c #A6ACB7",
"U 	c #D6DBE9",
"V 	c #D9E2E8",
"W 	c #CB4956",
"X 	c #CB4453",
"Y 	c #B74549",
"Z 	c #D6C69B",
"` 	c #DAD1AC",
" .	c #FEFBDC",
"..	c #8B5762",
"+.	c #ACB5C2",
"@.	c #CCD2DD",
"#.	c #C4CAD5",
"$.	c #F8C9B8",
"%.	c #794D4F",
"&.	c #7D4B54",
"*.	c #72636C",
"=.	c #F3E3BD",
"-.	c #B32D3C",
";.	c #A43543",
">.	c #E3D4B5",
",.	c #E4D5B9",
"'.	c #DBD3B9",
").	c #F1AFAE",
"!.	c #E6DBC5",
"~.	c #834B56",
"{.	c #F8A9B6",
"].	c #FDF4CA",
"^.	c #9C333C",
"/.	c #C4BCAA",
"(.	c #C7C7CA",
"_.	c #EBDBBB",
":.	c #FEF5DA",
"<.	c #FAF9D6",
"[.	c #E6D9B6",
"}.	c #E5DCE7",
"|.	c #975A65",
"1.	c #EDA2AD",
"2.	c #EA9EAA",
"3.	c #E7B8A9",
"4.	c #DBDCE4",
"5.	c #C9C4A9",
"6.	c #DED1B3",
"7.	c #F9E8C8",
"8.	c #EBE5CD",
"9.	c #E7A7A6",
"0.	c #EDE1BC",
"a.	c #C3BAA4",
"b.	c #CCC3AC",
"c.	c #D9CBAE",
"d.	c #D7CAB9",
"e.	c #A4424C",
"f.	c #E5EAF4",
"g.	c #DB98A3",
"h.	c #FEF3D4",
"i.	c #D9D4C7",
"j.	c #D9959B",
"k.	c #E79BA7",
"l.	c #F1DDBD",
"m.	c #FEFDE3",
"n.	c #FAE5C6",
"o.	c #D9C6A8",
"p.	c #B74754",
"q.	c #C87170",
"r.	c #B3ADB2",
"s.	c #C97888",
"t.	c #9C8378",
"u.	c #DBCDB2",
"v.	c #E9D9B6",
"w.	c #FCEBCC",
"x.	c #F4E3C3",
"y.	c #E6CAB4",
"z.	c #A9344A",
"A.	c #E2CD9E",
"B.	c #D5DAE4",
"C.	c #D2C5AD",
"D.	c #E7CFAB",
"E.	c #A43A44",
"F.	c #9D3B44",
"G.	c #D5CAB1",
"H.	c #FDFEEB",
"I.	c #9C3442",
"J.	c #BEB6A3",
"K.	c #C4B6A3",
"L.	c #742D36",
"M.	c #B7363E",
"N.	c #E6A79B",
"O.	c #D2C6B1",
"P.	c #C9857C",
"Q.	c #B77878",
"R.	c #E8D7B9",
"S.	c #FBDBC4",
"T.	c #995559",
"U.	c #FEEDD2",
"V.	c #D8A699",
"W.	c #CBC5B5",
"X.	c #C9BDA6",
"Y.	c #C8B19B",
"Z.	c #CB9190",
"`.	c #F6D5BB",
" +	c #D4C9AE",
".+	c #973A47",
"++	c #A82E3B",
"@+	c #BFC1B5",
"#+	c #A64748",
"$+	c #CABEA9",
"%+	c #AB424C",
"&+	c #BEB9A7",
"*+	c #A75757",
"=+	c #DBDEEA",
"-+	c #A75966",
";+	c #DBE1EB",
">+	c #E5ECFA",
",+	c #B48C90",
"                . . . . . . . .                 . . . . . . . . . . . . + + + + @ @ @ @ + + + + . . . .                         ",
"                . . . . . . . .                 . . . . . . . . . . . . + + + + @ @ @ @ + + + + . . . .                         ",
"                . . . . . . . .                 . . . . . . . . . . . . + + + + @ @ @ @ + + + + . . . .                         ",
"                . . . . . . . .                 . . . . . . . . . . . . + + + + @ @ @ @ + + + + . . . .                         ",
"                                                                                                                . . . . . . . . ",
"                                                                                                                . . . . . . . . ",
"                                                                                                                . . . . . . . . ",
"                                                                                                                . . . . . . . . ",
". . . .                         . . . . . . . . . . . . . . . .                                         . . . . . . . . . . . . ",
". . . .                         . . . . . . . . . . . . . . . .                                         . . . . . . . . . . . . ",
". . . .                         . . . . . . . . . . . . . . . .                                         . . . . . . . . . . . . ",
". . . .                         . . . . . . . . . . . . . . . .                                         . . . . . . . . . . . . ",
". . . .                                                                                                         . . . . . . . . ",
". . . .                                                 #                                                       . . . . . . . . ",
". . . .                                                 $                                                       . . . . . . . . ",
". . . .                                               #     %                                                   . . . . . . . . ",
"                                        . . . . . % # #   &                                     . . . . . . . .                 ",
"                                      * . . . . . = $ = #                                       . . . . . . . .                 ",
"                                      - ; > , . . ' ) ! ~                                       . . . . . . . .                 ",
"                                {     ] ^ / ( ^ _ : < [ } |                                     . . . . . . . .                 ",
"                        + + 1 + 2 . 3 4 5 5 6 7 * 8 9 0 a b | .           c     . . . . . . . . . . . . . . . . . . . . . . . . ",
"                        + + + d . ; * e f 7 g < } 6 f h 6 b b i   $ j $ #       . . . . . . . . . . . . . . . . . . . . . . . . ",
"                        + + + k . l * : * m n o 5 f / ^ p ( ^ q 4 r $ s         . . . . . . . . . . . . . . . . . . . . . . . . ",
"                        + + + t u 2 v w 1 . x i e e o y z A ] i B $ s k         . . . . . . . . . . . . . . . . . . . . . . . . ",
"        . . . . + + + + + + + C D < l . r E F G H _ I C k J K F [ L M N . . . . . . . . . . . .                                 ",
"        . . . . + + + + + + + O P Q e ^ 6 R [ H S T I j U V W X Y B . . . . . . . . # . . . . .                                 ",
"        . . . . + + + + + + + + Z `  .F | | H H | ..+.C @.#.$.^ y 8 . . . . . . . . # J . . . .                                 ",
"        . . . . + + + + + + + + %.&.*.=.y -.H ;.~ I I j >.,.'.R ).!.. . . . . . # . # . . . . .                                 ",
". . . .                         Z ~...{.].p ^.#     /.(._.:.) <.} [.            # # # j }.      + + + + @ @ @ @                 ",
". . . .                         . |.1.2.3.p z   4.  5.6.>._.7.7.| |             # s s M         + + + + @ @ @ @                 ",
". . . .                         8.d 1.1.9.!         !.0.a.b.c.d.; e.            % s c f.        + + + + @ @ @ @                 ",
". . . .                         <.g.2.{.<.          >.0. .) ) h.Y c.            e.H G           + + + + @ @ @ @                 ",
"                                i.j.k.1.            _.l. .m.m.n.[ o.          G F X p.9 q.. . .                                 ",
"                                r.s.s.t.            u.v.l.7.w.x.G y.      ! R n K 8.G z.z.y.. .                                 ",
"                                  '.A.'.        B.  C.6.D.[.>.>.z.~       p.h b i E.C.5.c.H F.# = &                             ",
"                                                A G._.n.H.) 8.! I.    ! | X m.7.r J.. K.a.L.y.M                                 ",
"                                                  c.v.x.h. .].B y.    [ W W M.H 5.      u.N.p ' . . . . . . . .                 ",
"                                                  '.>._._.n.x.$.o.  r R 5 q.i o.        O.'.< . . . . . . . . .                 ",
"                                                % (.>.,._._._.y.e.i } [ :.P.Q.b.        R.o.8 . . . . . . . . .                 ",
"                                                  C.>.>.>.>.>.3.I.X b > S.| o.          ,.=.M.. . . . . . . . .                 ",
"        . . . . . . . . + + + + + + + + . . . . . 5.G.c.>.>.G.T.$.D.U.x.[ V.W.. . . . . >.R.r                                   ",
"        . . . . . . . . + + + + + + + + . . . . . . a.X.b.b.Y.Z.e.;.`.y 9./.. . . . . . 0.]                                     ",
"        . . . . . . . . + + + + + + + + . . . . . . 5.b.G. + +C.C..+++G.@+. . . . . . . v.#+                                    ",
"        . . . . . . . . + + + + + + + + . . . . . . . /.b.$+b.$+5.X.5./.. . . . . . . %+[                                       ",
". . . . . . . . + + + + + + + + @ @ @ @ + + + + . . . . W.J.J.a.a.&+&+. . . . .     ~ H B                                       ",
". . . . . . . . + + + + + + + + @ @ @ @ + + + + . . . .         . . . . . . . .   }.4.R *+                                      ",
". . . . . . . . + + + + + + + + @ @ @ @ + + + + . . . .         . . . . . . . . B.=+| B.-+                                      ",
". . . . . . . . + + + + + + + + @ @ @ @ + + + + . . . .         . . . . . . . U =+U z ;+F.                                      ",
"                                        . . . .                 . . . . . . >+=+=+-.' }.S + + + . . . .                         ",
"                                        . . . .                 . . . . . . . . V }.=+=+s.+ + + . . . .                         ",
"                                        . . . .                 . . . . . . . . ,++ B.V + + + + . . . .                         ",
"                                        . . . .                 . . . . . . . . + + + + + + + + . . . .                         ",
"                . . . . . . . .                 . . . . . . . . . . . . + + + + @ @ @ @ + + + + . . . .                         ",
"                . . . . . . . .                 . . . . . . . . . . . . + + + + @ @ @ @ + + + + . . . .                         ",
"                . . . . . . . .                 . . . . . . . . . . . . + + + + @ @ @ @ + + + + . . . .                         ",
"                . . . . . . . .                 . . . . . . . . . . . . + + + + @ @ @ @ + + + + . . . .                         ",
". . . .                         . . . . . . . . . . . . . . . .                                         . . . . . . . . . . . . ",
". . . .                         . . . . . . . . . . . . . . . .                                         . . . . . . . . . . . . ",
". . . .                         . . . . . . . . . . . . . . . .                                         . . . . . . . . . . . . ",
". . . .                         . . . . . . . . . . . . . . . .                                         . . . . . . . . . . . . ",
". . . . . . . . . . . .                                                                                                         ",
". . . . . . . . . . . .                                                                                                         ",
". . . . . . . . . . . .                                                                                                         ",
". . . . . . . . . . . .                                                                                                         "};
