/* XPM */
static char * asset_exit_xpm[] = {
"64 64 196 2",
"  	c #F8F8F8",
". 	c #F0F8F8",
"+ 	c #E8F0F8",
"@ 	c #E0E8F8",
"# 	c #FED6F4",
"$ 	c #7B89F3",
"% 	c #B99CFF",
"& 	c #BAA2FE",
"* 	c #B59DFE",
"= 	c #B495FE",
"- 	c #8589C8",
"; 	c #7C86FA",
"> 	c #7C86F3",
", 	c #B4A1F4",
"' 	c #8284F2",
") 	c #7C8AFA",
"! 	c #7B89EC",
"~ 	c #B99CF5",
"{ 	c #B9A9E8",
"] 	c #B4A1FC",
"^ 	c #838AE4",
"/ 	c #7689F3",
"( 	c #E9DDFE",
"_ 	c #6624F3",
": 	c #828CFB",
"< 	c #642BE4",
"[ 	c #563677",
"} 	c #542C94",
"| 	c #AEA3D9",
"1 	c #B5A9E3",
"2 	c #FEFDFE",
"3 	c #EAE2FE",
"4 	c #E5E1FD",
"5 	c #8384EB",
"6 	c #7E4BFD",
"7 	c #5B32E5",
"8 	c #6625FA",
"9 	c #8245FF",
"0 	c #804EED",
"a 	c #7D4CEC",
"b 	c #642CD8",
"c 	c #848BD2",
"d 	c #E4D5FF",
"e 	c #848BCC",
"f 	c #582AB9",
"g 	c #6E55EC",
"h 	c #6A25F4",
"i 	c #591BD4",
"j 	c #561AD3",
"k 	c #692BED",
"l 	c #6726E9",
"m 	c #884BFE",
"n 	c #7A55D9",
"o 	c #7E86BC",
"p 	c #ADA3E5",
"q 	c #B4A5E3",
"r 	c #E4DDF5",
"s 	c #877AFC",
"t 	c #6425EC",
"u 	c #814DF5",
"v 	c #5825C6",
"w 	c #5223B3",
"x 	c #AD9CE9",
"y 	c #E6DDFE",
"z 	c #8B7CFF",
"A 	c #814BFE",
"B 	c #43199A",
"C 	c #411695",
"D 	c #2D0A79",
"E 	c #31116E",
"F 	c #320E7A",
"G 	c #5521C3",
"H 	c #38137D",
"I 	c #7584EC",
"J 	c #F6E6F7",
"K 	c #652AEB",
"L 	c #7D4CF5",
"M 	c #7D46FD",
"N 	c #3F1594",
"O 	c #321273",
"P 	c #541DC5",
"Q 	c #551DC9",
"R 	c #7025FE",
"S 	c #8C63FE",
"T 	c #391785",
"U 	c #7686FA",
"V 	c #C7BBF8",
"W 	c #B49EF5",
"X 	c #8285E4",
"Y 	c #320E74",
"Z 	c #6C25FD",
"` 	c #8867F8",
" .	c #B3A5DD",
"..	c #BB95FF",
"+.	c #5521CA",
"@.	c #310F6D",
"#.	c #3F149A",
"$.	c #857DE9",
"%.	c #40198C",
"&.	c #521EBD",
"*.	c #4E18C4",
"=.	c #7E89E4",
"-.	c #D3CBEC",
";.	c #7852F5",
">.	c #5419C9",
",.	c #5321BB",
"'.	c #41159A",
").	c #A9A3FB",
"!.	c #7C85EC",
"~.	c #351877",
"{.	c #491AA9",
"].	c #410F9F",
"^.	c #925DFF",
"/.	c #8A83F2",
"(.	c #ACA2FF",
"_.	c #8556F7",
":.	c #2E0986",
"<.	c #35137D",
"[.	c #501FB6",
"}.	c #DDE2FF",
"|.	c #E9E4F6",
"1.	c #7B4EE4",
"2.	c #2C1066",
"3.	c #371382",
"4.	c #3A1994",
"5.	c #411893",
"6.	c #8A66ED",
"7.	c #4212A4",
"8.	c #2C1C69",
"9.	c #9162FF",
"0.	c #FBDAF2",
"a.	c #8451FD",
"b.	c #6A29F3",
"c.	c #8B65F4",
"d.	c #2E116C",
"e.	c #250D57",
"f.	c #2C0F6A",
"g.	c #391384",
"h.	c #4313AA",
"i.	c #2B177A",
"j.	c #CDC1FD",
"k.	c #250D5A",
"l.	c #2E0E71",
"m.	c #8868EA",
"n.	c #B39DEA",
"o.	c #D1BDFF",
"p.	c #3D0FA4",
"q.	c #B8B0D4",
"r.	c #450EB3",
"s.	c #410FA7",
"t.	c #5D28E6",
"u.	c #E6E1F5",
"v.	c #B4A3EB",
"w.	c #CDBEFE",
"x.	c #290D63",
"y.	c #280D5C",
"z.	c #6B29FB",
"A.	c #D1C2FE",
"B.	c #5635C9",
"C.	c #3E198C",
"D.	c #280E57",
"E.	c #722AFC",
"F.	c #E8DDF5",
"G.	c #390C96",
"H.	c #581DCB",
"I.	c #AD9DFE",
"J.	c #8C8EF0",
"K.	c #260A62",
"L.	c #965BFF",
"M.	c #B4A9D6",
"N.	c #8A92D6",
"O.	c #848ADB",
"P.	c #AB9AF9",
"Q.	c #350C8B",
"R.	c #27164A",
"S.	c #3B148C",
"T.	c #886CD8",
"U.	c #DDDCFF",
"V.	c #7C51E5",
"W.	c #8873D1",
"X.	c #828AF4",
"Y.	c #8254EB",
"Z.	c #2E1172",
"`.	c #8A87E7",
" +	c #EBD5FF",
".+	c #DBD6FD",
"++	c #322290",
"@+	c #5225AC",
"#+	c #7C85D9",
"$+	c #7455EB",
"%+	c #360A8B",
"&+	c #7D86C8",
"*+	c #7688EB",
"=+	c #8283FB",
"-+	c #5A27D6",
";+	c #F9DAEE",
"                . . . . . . . .                 . . . . . . . . . . . . + + + + @ @ @ @ + + + + . . . .                         ",
"                . . . . . . . .                 . . . . . . . . . . . . + + + + @ @ @ @ + + + + . . . .                         ",
"                . . . . . . . .                 . . . . . . . . . . . . + + + + @ @ @ @ + + + + . . . .                         ",
"                . . . . . . . .                 . . . . . . . . . . . . + + + + @ @ @ @ + + + + . . . .                         ",
"                                                                                                                . . . . . . . . ",
"                                                                                                                . . . . . . . . ",
"                                                                                                                . . . . . . . . ",
"                                                        #                                                       . . . . . . . . ",
". . . .                         . . . . . . . . . $ . . . . . .       % &                               . . . . . . . . . . . . ",
". . . .                         . . . . . . . . . . * = . . . - ; > & , * * &                           . . . . . . . . . . . . ",
". . . .                         . . . . . . . . . * . . . * ' ) ; !   #     ~ * {   ]                   . . . . . . . . . . . . ",
". . . .                         . . . . . ^ . . , . / ( _ : < .               [ } ,                     . . . . . . . . . . . . ",
". . . .                                 ^   | 1 2 3 4 5 6 7 8 9 0 0 a b                                         . . . . . . . . ",
". . . .                               c   1   d 4 e f g h 6 i i j k l m n   o           p                       . . . . . . . . ",
". . . .                               c   q d 3 r s _ 6 t u v w f b b 6 u   o           x                       . . . . . . . . ",
". . . .                                 , y ( ( z t 6 A u B C D E F F i G H                                     . . . . . . . . ",
"                                  I   ) y ( 2 J K L A M N O O E F P Q R S T 6                   . . . . . . . .                 ",
"                                  I U   V W X X * A L N C Y E b Z Z Q ` ` * *         y         . . . . . . . .                 ",
"                                  !   y r .  ...A A m O +.@.P #.#.P Z 6 M M A     $.  ( y       . . . . . . . .                 ",
"                                      ( , ' g 9 6 A C %.Y N C &.*.%.P Z R S A ..* *     y y     . . . . . . . .                 ",
"                        + + + + =.. . -.! ;.6 9 A A #.O E C &.>.>.,.'.Z Z S S ..).!.> . ( . . . . . . . . . . . . . . . . . . . ",
"                        + + + + $ . . ~.) ;.A 6 u {.6 O E C '.C ].'.].Z 8 6 ^.% * ] > . ! . . . . . . . . . . . . . . . . . . . ",
"                        + + + + > .  ./.(.% _.A 6 L :.E <.N C N '.'.[.j Z Z M ..* ] (.. }.|.. . . . . . . . . . . . . . . . . . ",
"                        + + + + > . * ! % ] 1.A u L 2.Y 3.N C C B C &.+.h Z 9 ..* * * . ( y . . . . . . . . . . . . . . . . . . ",
"        . . . . + + + + + + + + 5 . 3./ (.6 6 L '.#.E N 3.3.4.C C 5.'.>.P Z Z ^.6.] * <.y r . .                                 ",
"        . . . . + + + + + + + X * . ..* * 6 A a 7.A 8.N 3.N 3.N C '.P Q P Z Z 9.6.* ] * y . . 0.                                ",
"        . . . . + + + + + + + X % . T * * a.A 0 N C 3.3.T 3.'.'.'.'.C j P +.b.Z k c.* ] r . . .                                 ",
"        . . . . + + + + + + + > ' . ] * * 6 A u %.d.O e.f.8.H 3.3.g.B P Q P b.Z K c.] * 3 . . .                                 ",
". . . .                       $ > . * * * a.h.C %.8.O e.i.2.f.<.3.g.'.P Q Q Z Z 7 ' * y 3       + + + + @ @ @ @                 ",
". . . .                       j.(.. ] u ;.6 7.'.%.O k.e.k.2.2.f.l.g.].].Q Q j h K m.& n.y       + + + + @ @ @ @                 ",
". . . .                       , o.. * m A A 7.C C d.e.e.e.2.f.f.f.<.T C p.Q >.b.k c.% ] (       q.q.+ + @ @ @ @                 ",
". . . .                       ] o.. ).A A A r.{.5.d.e.e.e.8.f.f.f.g.3.C s.+.Q 8 t.S * * u.      q.q.+ + @ @ @ @                 ",
"                              v.w.  ! 6 6 a.a.0 C O e.e.e.e.x.f.f.H <.C Q Q Q h < S , * . . . .                                 ",
"                                j.  * A A A h.C %.d.e.e.e.k.y.2.2.d.3.C Q Q +.z.l 6.. * . . . .                                 ",
"                                r A.> A A A A u %.E e.e.e.O k.x.f.f.3.5.Q Q   B.< ` S = 3 . * .                                 ",
"                                y * ~ 9 A A A a C.E e.e.e.y.D.x.d.f.3.C N P E._ Z b.S F.( . * .                                 ",
"                      #         y y W A A 6 A a 5.l.e.e.k.e.e.x.f.3.3.C P Q P #.G.z.` 3 y % . . . . . . . . . .                 ",
"                      #           y ! 9 A A A a %.E e.e.e.e.e.2.f.3.3.C Q Q H.G P S % * . * . . . . . . . . . .                 ",
"                              v.  ^ I.% A A A a %.d.e.e.e.e.e.x.f.3.3.N Q P ,.K l c.*   . , . . . . . . . . . .                 ",
"                          - J.* v.$   % 6 A A u %.f.K.k.e.e.e.8.f.3.3.,.Q Q k L.a.` *   M.. . . . . . . . . . .                 ",
"        . . . . . . . . + N.O., % > + % A 6 A L #.d.8.e.e.e.k.x.f.3.3.P Q Q z.^.S c.* . W                                       ",
"        . . . . . . . . + + + + P.' + H a.6 A a.[.O e.e.e.e.H f.f.Q.g.Q P H.z.9.S 6.* .                                         ",
"        . . . . . . . . + + + + * ~./ + 6 6 A A A Q O e.k.k.<.l.f.<.Q Q Q P Z ^.6.* * . *                                       ",
"        . . . . . . . . + + + ! + + O + A 6 A A 6 Q O R.F 3.H S.B #.P Q P Z Z ^.T.U.; ( *                                       ",
". . . . . . . . + + + + + + + + * * I / P.* V.A A 9 d.d.'.'.B C '.B Q Q j Z . W.m.y y *                                         ",
". . . . . . . . + + + + + + + > !.* > > X.I.Y.6 6 +.j Y Y Z.N C ].P Q Q +.E.S .   y y &                                         ",
". . . . . . . . + + + + + + + + ! ( * <.5 ' g 6 6 Q Q ,.&.G ].,.P Q P +.Z ^.S s `.* ,                                           ",
". . . . . . . . + + + + + + + + !.^  +O > U 4.h.A A Q H.P Q &.P Q P P h R . . . .+* ]                                           ",
"                                - $   E `./ ++{.0 m +.P Q Q Q &.w @+} Z b . . ( .+ .1 + + + + + . . . .                         ",
"                              v.  ^ ! ( ( #+$+n g.P +.A Q Q Q %+<.Z.. h W W  +v.1 + + + + + + + . . . .                         ",
"                                ..  X.  y ( d y * u 6 A P >.P P +.6 8 / W . W *  .+ + + + + + + . . . .                         ",
"                                * * > $ / (.d ( , y ~.u A H.].% (.> > * * <.. . + + + + + + + + . . . .                         ",
"                . . . . . . . .   * &   *   &+' , ( 9 / *+6 =+-+t $ > U + + W + @ ! @ @ + + + + . . . .                         ",
"                . . . . . . . .     * &   *     , . F.* A * * J./ > > . % % W + @ @ @ @ + + + + . . . .                         ",
"                . . . . . . . .             &+5 W . . $ . $ / ] % * ] * + + + + @ @ @ @ + + + + . . . .                         ",
"                . . . . . . . .       ,     1 * * , , (.X ) . . . . . . + + + + @ @ ;+@ + + + + . . . .                         ",
". . . .                         . . . . . . . . . . . ] * (.. .   q                                     . . . . . . . . . . . . ",
". . . .                         . . . . . . . . . . . q  .1 . .   1                                     . . . . . . . . . . . . ",
". . . .                         . . . . . . . . . . . . . . . .                                         . . . . . . . . . . . . ",
". . . .                         . . . . . . . . . . . . . . . .                                         . . . . . . . . . . . . ",
". . . . . . . . . . . .                                                                                                         ",
". . . . . . . . . . . .                                                                                                         ",
". . . . . . . . . . . .                                                                                                         ",
". . . . . . . . . . . .                                                                                                         "};
