/* XPM */
static char * asset_player_7_xpm[] = {
"64 64 411 2",
"  	c #F8F8F8",
". 	c #F0F8F8",
"+ 	c #E8F0F8",
"@ 	c #E0E8F8",
"# 	c #020102",
"$ 	c #030302",
"% 	c #382215",
"& 	c #8B400D",
"* 	c #8C3E08",
"= 	c #7E4111",
"- 	c #81390A",
"; 	c #6E320C",
"> 	c #A64A08",
", 	c #663A13",
"' 	c #8C400C",
") 	c #AA5415",
"! 	c #F49120",
"~ 	c #F3A22E",
"{ 	c #994912",
"] 	c #BC550B",
"^ 	c #F59322",
"/ 	c #CE8B2E",
"( 	c #763508",
"_ 	c #A6490A",
": 	c #C17726",
"< 	c #FBA831",
"[ 	c #FAA837",
"} 	c #D79336",
"| 	c #D38629",
"1 	c #E09837",
"2 	c #EE9731",
"3 	c #FDA82C",
"4 	c #B47224",
"5 	c #612907",
"6 	c #090707",
"7 	c #050404",
"8 	c #C46918",
"9 	c #FBA833",
"0 	c #C17727",
"a 	c #AA7324",
"b 	c #B1741E",
"c 	c #AF7422",
"d 	c #A0611F",
"e 	c #B0731D",
"f 	c #B0741E",
"g 	c #B27724",
"h 	c #C7872C",
"i 	c #A15C17",
"j 	c #090808",
"k 	c #030101",
"l 	c #C76813",
"m 	c #FDA72B",
"n 	c #AE752C",
"o 	c #F9A52D",
"p 	c #FDA72A",
"q 	c #AE7425",
"r 	c #EE9427",
"s 	c #C48429",
"t 	c #E49727",
"u 	c #CC7A20",
"v 	c #753308",
"w 	c #E77213",
"x 	c #F99E26",
"y 	c #9A4B12",
"z 	c #F49221",
"A 	c #FEA72B",
"B 	c #B57824",
"C 	c #E5821B",
"D 	c #FEA72A",
"E 	c #CA8728",
"F 	c #E59629",
"G 	c #D68E2A",
"H 	c #0E0C0D",
"I 	c #28160D",
"J 	c #5B2606",
"K 	c #DC680D",
"L 	c #D58320",
"M 	c #813C0C",
"N 	c #EE8119",
"O 	c #F59221",
"P 	c #AE681D",
"Q 	c #E17615",
"R 	c #C2761F",
"S 	c #B87921",
"T 	c #EA9527",
"U 	c #703D0F",
"V 	c #0A0909",
"W 	c #723410",
"X 	c #A14708",
"Y 	c #BE7F2A",
"Z 	c #946B42",
"` 	c #AEA09B",
" .	c #826E66",
"..	c #8D7B76",
"+.	c #7C726E",
"@.	c #897873",
"#.	c #7E6962",
"$.	c #8B817D",
"%.	c #CEBF37",
"&.	c #B28B30",
"*.	c #C06818",
"=.	c #56290E",
"-.	c #622D0B",
";.	c #BC5109",
">.	c #BF7D27",
",.	c #BE995B",
"'.	c #EFEFED",
").	c #EEEEEC",
"!.	c #F2F2F0",
"~.	c #9C9C9B",
"{.	c #D4D4D2",
"].	c #ECECEA",
"^.	c #C2C1B4",
"/.	c #DBC236",
"(.	c #B9812B",
"_.	c #CE6D18",
":.	c #0A0809",
"<.	c #783F18",
"[.	c #C56412",
"}.	c #AC732C",
"|.	c #F7CB38",
"1.	c #BEB46A",
"2.	c #A8A37E",
"3.	c #908E7D",
"4.	c #D18C8C",
"5.	c #B18686",
"6.	c #A49F7D",
"7.	c #E4D54C",
"8.	c #CEBB38",
"9.	c #DF9128",
"0.	c #8B5116",
"a.	c #471E05",
"b.	c #D86E13",
"c.	c #D28122",
"d.	c #CC8B2A",
"e.	c #FBD336",
"f.	c #FDEB3D",
"g.	c #E9D83E",
"h.	c #8F6254",
"i.	c #B67D49",
"j.	c #FAE33C",
"k.	c #FCE03A",
"l.	c #B48932",
"m.	c #D38B2A",
"n.	c #391605",
"o.	c #030204",
"p.	c #C76817",
"q.	c #FCA329",
"r.	c #CF7821",
"s.	c #AC742B",
"t.	c #E3B432",
"u.	c #E2B433",
"v.	c #AF6C26",
"w.	c #C07E2B",
"x.	c #E3B22F",
"y.	c #B68131",
"z.	c #D58C2D",
"A.	c #C1731F",
"B.	c #9E5215",
"C.	c #E5811C",
"D.	c #F89E27",
"E.	c #EF9023",
"F.	c #CA8629",
"G.	c #CA8727",
"H.	c #FCA72E",
"I.	c #E38F26",
"J.	c #F49E29",
"K.	c #D1741A",
"L.	c #211005",
"M.	c #A45611",
"N.	c #F39122",
"O.	c #C58429",
"P.	c #A46B21",
"Q.	c #ED9E2E",
"R.	c #FDA62C",
"S.	c #E98A22",
"T.	c #CF741E",
"U.	c #612B0B",
"V.	c #471D07",
"W.	c #DE8E28",
"X.	c #C0812A",
"Y.	c #A86019",
"Z.	c #AC682A",
"`.	c #6A340E",
" +	c #A97228",
".+	c #ED9F2E",
"++	c #AF7525",
"@+	c #BC812F",
"#+	c #C1842D",
"$+	c #AB762D",
"%+	c #6F350D",
"&+	c #CF8A2B",
"*+	c #FDA72C",
"=+	c #D18C2E",
"-+	c #9A5918",
";+	c #D4822D",
">+	c #9F5D19",
",+	c #B67B2A",
"'+	c #F5A22D",
")+	c #FEA72C",
"!+	c #E7932B",
"~+	c #6A300B",
"{+	c #4D1F05",
"]+	c #DD8923",
"^+	c #EA7513",
"/+	c #F79C26",
"(+	c #F7A531",
"_+	c #B07422",
":+	c #F89C26",
"<+	c #9E6622",
"[+	c #D06E19",
"}+	c #7D3607",
"|+	c #6D300D",
"1+	c #994510",
"2+	c #F49225",
"3+	c #C68227",
"4+	c #9E4A10",
"5+	c #CE600E",
"6+	c #F48E20",
"7+	c #F99E27",
"8+	c #974E14",
"9+	c #562608",
"0+	c #984108",
"a+	c #AC5412",
"b+	c #8A4C14",
"c+	c #030202",
"d+	c #8F3F09",
"e+	c #F59320",
"f+	c #FDA62B",
"g+	c #F39D29",
"h+	c #B76115",
"i+	c #A1480C",
"j+	c #CD5F0A",
"k+	c #EC7A16",
"l+	c #A85511",
"m+	c #8D3E07",
"n+	c #6E330D",
"o+	c #DE690E",
"p+	c #E78821",
"q+	c #82571F",
"r+	c #020101",
"s+	c #7C4210",
"t+	c #F89A24",
"u+	c #FAA328",
"v+	c #EB8D22",
"w+	c #C27421",
"x+	c #A86C26",
"y+	c #E07B1A",
"z+	c #E4811D",
"A+	c #984F13",
"B+	c #572C0C",
"C+	c #6F3612",
"D+	c #B96417",
"E+	c #F9A027",
"F+	c #B25F16",
"G+	c #020202",
"H+	c #823E0D",
"I+	c #F69825",
"J+	c #E68820",
"K+	c #723109",
"L+	c #311104",
"M+	c #A05712",
"N+	c #D28724",
"O+	c #F1A02C",
"P+	c #BC7E2D",
"Q+	c #F99B27",
"R+	c #F99A26",
"S+	c #F99B26",
"T+	c #D4741C",
"U+	c #874610",
"V+	c #321506",
"W+	c #592909",
"X+	c #BA5C10",
"Y+	c #EF9F2C",
"Z+	c #190602",
"`+	c #C7560A",
" @	c #CB5608",
".@	c #A84B0E",
"+@	c #753103",
"@@	c #281206",
"#@	c #793509",
"$@	c #CE5703",
"%@	c #BA5D10",
"&@	c #EF9F2D",
"*@	c #020201",
"=@	c #361706",
"-@	c #552608",
";@	c #220F05",
">@	c #8E3D09",
",@	c #C65609",
"'@	c #C06013",
")@	c #EF9E2B",
"!@	c #C65408",
"~@	c #DE5E04",
"{@	c #622E0A",
"]@	c #1A0903",
"^@	c #6E2F07",
"/@	c #9A4710",
"(@	c #E96F0F",
"_@	c #F6A12B",
":@	c #813908",
"<@	c #EA8A22",
"[@	c #B3560E",
"}@	c #835C27",
"|@	c #B57C2C",
"1@	c #A97226",
"2@	c #120904",
"3@	c #C17E2D",
"4@	c #CC6814",
"5@	c #9A4810",
"6@	c #F49121",
"7@	c #FCA22A",
"8@	c #964308",
"9@	c #976624",
"0@	c #F9A52B",
"a@	c #9D6920",
"b@	c #AE7A32",
"c@	c #BC7F2E",
"d@	c #F0A02C",
"e@	c #CB882A",
"f@	c #EFA030",
"g@	c #F99A25",
"h@	c #9B470F",
"i@	c #A86F24",
"j@	c #D47F21",
"k@	c #C28227",
"l@	c #B56E1E",
"m@	c #92420C",
"n@	c #000000",
"o@	c #662B07",
"p@	c #A25915",
"q@	c #CD8827",
"r@	c #F9A12A",
"s@	c #E17E1D",
"t@	c #AB5E18",
"u@	c #A67024",
"v@	c #000002",
"w@	c #EA7716",
"x@	c #FDA52A",
"y@	c #F6A030",
"z@	c #BA711B",
"A@	c #672B03",
"B@	c #1A0704",
"C@	c #8F3F0A",
"D@	c #BF6418",
"E@	c #F38F21",
"F@	c #BE6214",
"G@	c #9A470F",
"H@	c #B7731F",
"I@	c #F9A42B",
"J@	c #C3771F",
"K@	c #020002",
"L@	c #AE4C0E",
"M@	c #E57718",
"N@	c #FDA529",
"O@	c #FCA72C",
"P@	c #AC641B",
"Q@	c #040302",
"R@	c #381706",
"S@	c #A54607",
"T@	c #9B5413",
"U@	c #D88525",
"V@	c #F9A12B",
"W@	c #FDA62A",
"X@	c #ED831B",
"Y@	c #8E3F0B",
"Z@	c #030102",
"`@	c #3A1805",
" #	c #C46D19",
".#	c #FCA429",
"+#	c #E2962C",
"@#	c #F79422",
"##	c #A5661F",
"$#	c #C66415",
"%#	c #060605",
"&#	c #100F0F",
"*#	c #161515",
"=#	c #0C0A0B",
"-#	c #A15513",
";#	c #F69C27",
">#	c #FBA229",
",#	c #DF6309",
"'#	c #301707",
")#	c #381C0A",
"!#	c #B55910",
"~#	c #8B4816",
"{#	c #B95005",
"]#	c #6B2F09",
"^#	c #512A0E",
"/#	c #030203",
"(#	c #CB6C17",
"_#	c #CE8C30",
":#	c #F19F2A",
"<#	c #FEA62A",
"[#	c #F89B26",
"}#	c #D67717",
"|#	c #893C0A",
"1#	c #4D260F",
"2#	c #DE8926",
"3#	c #BD6E1C",
"4#	c #E79C31",
"5#	c #E6992C",
"6#	c #AD6219",
"7#	c #8E4A13",
"8#	c #3C1A07",
"9#	c #050504",
"0#	c #6E310B",
"a#	c #8A5617",
"b#	c #D27418",
"c#	c #81390D",
"d#	c #783811",
"                . . . . . . . .                 . . . . . . . . . . . . + + + + @ @ @ @ + + + + . . . .                         ",
"                . . . . . . . .                 . . . . . . . . . . . . + + + + @ @ @ @ + + + + . . . .                         ",
"                . . . . . . . .                 . . . . . . . . . . . . + + + + @ @ @ @ + + + + . . . .                         ",
"                . . . . . . . .                 . . . . . . . . . . . . + + + + @ @ @ @ + + + + . . . .                         ",
"                                                                                                                . . . . . . . . ",
"                                                                                                                . . . . . . . . ",
"                                                                                                                . . . . . . . . ",
"                                                                                                                . . . . . . . . ",
". . . .                         . . . . . . . . . . . . . . . .                                         . . . . . . . . . . . . ",
". . . .                         . . . . . . . . . . . . . . . .                                         . . . . . . . . . . . . ",
". . . .                         . . . . . . . . . . . . . . . .                                         . . . . . . . . . . . . ",
". . . .                         . . . . . . . . . . . . . . . .                                         . . . . . . . . . . . . ",
". . . .                                                                                                         . . . . . . . . ",
". . . .                                                                                                         . . . . . . . . ",
". . . .                                                                                                         . . . . . . . . ",
". . . .                                                   # $       % #                                         . . . . . . . . ",
"                                        . . . . . . . . & * =     - ; > ,                       . . . . . . . .                 ",
"                                        . . . . . . . ' ) ! ~     { ] ^ /                       . . . . . . . .                 ",
"                                        . . . . . . ( _ : < [ } | 1 2 3 4 5 6                   . . . . . . . .                 ",
"                                        . . . . . 7 8 9 0 a b c d e f g h i                     . . . . . . . .                 ",
"                        + + + + . . . . . . . . j k l m n o p m q r m s t u     . . . . . . . . . . . . . . . . . . . . . . . . ",
"                        + + + + . . . . . . . . . v w x y z A A B C D E F G H   . . . . . . . . . . . . . . . . . . . . . . . . ",
"                        + + + + . . . . . . . . I J K L M N O z P Q O R S T U   . . . . . . . . . . . . . . . . . . . . . . . . ",
"                        + + + + . . . . . . . . V W X Y Z `  ...+.@.#.$.%.&.*.  . . . . . . . . . . . . . . . . . . . . . . . . ",
"        . . . . + + + + + + + + . . . . . . . . =.-.;.>.,.'.).!.~.{.].^./.(._.. . . . . . . . .                                 ",
"        . . . . + + + + + + + + . . . . . . . . :.<.[.}.|.1.2.3.4.5.6.7.8.9.0.. . . . . . . . .                                 ",
"        . . . . + + + + + + + + . . . . . . . . . a.b.c.d.e.f.g.h.i.j.k.l.m.n.. . . . . . . . .                                 ",
"        . . . . + + + + + + + + . . . . . . . . . o.p.q.r.s.t.u.v.w.x.y.z.A.. . . . . . . . . .                                 ",
". . . .                         . . . .             B.C.D.E.F.G.H.I.E J.K.                      + + + + @ @ @ @                 ",
". . . .                         . . . .             L.M.N.O.P.Q.p m R.S.T.U.                    + + + + @ @ @ @                 ",
". . . .                         . . . .             V.W.X.Y.Z.`. +.+++@+#+$+                    + + + + @ @ @ @                 ",
". . . .                         . . . .             %+&+*+=+-+;+>+,+'+)+m !+~+                  + + + + @ @ @ @                 ",
"                                                    {+]+^+/+(+_+9 m D :+<+[+}+|+. . . . . . . .                                 ",
"                                                    1+2+3+4+5+6+m m 7+8+9+0+a+b+. . . . . . . .                                 ",
"                                                  c+d+e+f+g+h+i+j+k+l+m+n+o+p+q+. . . . . . . .                                 ",
"                                                  r+s+t+A D u+v+w+x+y+:+z+A+B+  . . . . . . . .                                 ",
"                                                  C+D+m A A A A A A A A E+F+            . . . . . . . . . . . .                 ",
"                                                  G+H+I+D A A A A A A D J+K+            . . . . . . . . . . . .                 ",
"                                                    L+M+N+O+P+/+Q+R+S+T+U+              . . . . . . . . . . . .                 ",
"                                                    V+W+X+Y+Z+`+ @.@+@@@                . . . . . . . . . . . .                 ",
"        . . . . . . . . + + + + + + + + . . . . . . #@$@%@&@*@. . =@-@;@. . . . . . . .                                         ",
"        . . . . . . . . + + + + + + + + . . . . . c+>@,@'@)@. . . !@~@{@. . . . . . . .                                         ",
"        . . . . . . . . + + + + + + + + . . . . . ]@^@/@(@_@:@. . <@[@. . . . . . . . .                                         ",
"        . . . . . . . . + + + + + + + + . }@|@1@2@3@4@5@6@7@8@. 9@0@a@. . . . . . . . .                                         ",
". . . . . . . . + + + + + + + + @ @ @ @ + b@c@d@e@f@g@h@z m i@  j@*+k@l@m@n@. .                                                 ",
". . . . . . . . + + + + + + + + @ @ @ @ o@p@q@m p r@s@t@*+D u@v@w@x@A A H.y@z@A@                                                ",
". . . . . . . . + + + + + + + + @ @ @ @ B@C@D@E@F@G@H@I@A A J@K@L@M@N@A D p O@P@k c+$                                           ",
". . . . . . . . + + + + + + + + @ @ @ @ Q@R@S@T@U@V@W@A A A X@Y@Z@`@ #.#+#@###$## r+%#&#*#                                      ",
"                                        . =#-#;#A A A A A >#,#'#G+r+)#!#~#{#]#^#/#c++ + + + + + . . . .                         ",
"                                        . . (#_#:#~ A <#[#}#|#Z@. . . . . . . . + + + + + + + + . . . .                         ",
"                                        . . 1#2#3#4#5#6#7#8## 9#. . . . . . . . + + + + + + + + . . . .                         ",
"                                        . . . 0#a#R+b## r+      . . . . . . . . + + + + + + + + . . . .                         ",
"                . . . . . . . .                 . c#d#. . . . . . . . . + + + + @ @ @ @ + + + + . . . .                         ",
"                . . . . . . . .                 . . . . . . . . . . . . + + + + @ @ @ @ + + + + . . . .                         ",
"                . . . . . . . .                 . . . . . . . . . . . . + + + + @ @ @ @ + + + + . . . .                         ",
"                . . . . . . . .                 . . . . . . . . . . . . + + + + @ @ @ @ + + + + . . . .                         ",
". . . .                         . . . . . . . . . . . . . . . .                                         . . . . . . . . . . . . ",
". . . .                         . . . . . . . . . . . . . . . .                                         . . . . . . . . . . . . ",
". . . .                         . . . . . . . . . . . . . . . .                                         . . . . . . . . . . . . ",
". . . .                         . . . . . . . . . . . . . . . .                                         . . . . . . . . . . . . ",
". . . . . . . . . . . .                                                                                                         ",
". . . . . . . . . . . .                                                                                                         ",
". . . . . . . . . . . .                                                                                                         ",
". . . . . . . . . . . .                                                                                                         "};
