/* XPM */
static char * asset_wall_2_xpm[] = {
"64 64 242 2",
"  	c #F8F8F8",
". 	c #F0F8F8",
"+ 	c #E8F0F8",
"@ 	c #E0E8F8",
"# 	c #4E718D",
"$ 	c #92C9EB",
"% 	c #77B8D7",
"& 	c #6E8792",
"* 	c #76CAE8",
"= 	c #A7D6DB",
"- 	c #548699",
"; 	c #3994BB",
"> 	c #D3EFEF",
", 	c #3884AB",
"' 	c #6C93AF",
") 	c #94C7C8",
"! 	c #3787BA",
"~ 	c #AEE2DD",
"{ 	c #368FD0",
"] 	c #4796BA",
"^ 	c #EDF8F4",
"/ 	c #C6E8EB",
"( 	c #B7E9F7",
"_ 	c #C4FCFF",
": 	c #4688B8",
"< 	c #4786A9",
"[ 	c #4597C9",
"} 	c #8BB6CE",
"| 	c #C6ECF6",
"1 	c #79D8E8",
"2 	c #6FA5B8",
"3 	c #C4F4FD",
"4 	c #CBF5FD",
"5 	c #366A97",
"6 	c #89D4DB",
"7 	c #B6F7F9",
"8 	c #97DCF6",
"9 	c #98D9E8",
"0 	c #87D7E9",
"a 	c #5786A6",
"b 	c #D3FCFE",
"c 	c #B4F3FD",
"d 	c #7CE3FA",
"e 	c #71B5CC",
"f 	c #376789",
"g 	c #184F60",
"h 	c #57ABE4",
"i 	c #5AC5E9",
"j 	c #97E5F8",
"k 	c #98E3EB",
"l 	c #68C6DB",
"m 	c #8AE3EB",
"n 	c #A7E8F7",
"o 	c #7BE1EE",
"p 	c #7BDBFD",
"q 	c #5696B9",
"r 	c #7BD2DA",
"s 	c #57A6C9",
"t 	c #3779A8",
"u 	c #448BC6",
"v 	c #83DBF4",
"w 	c #87DAF8",
"x 	c #B3F2EC",
"y 	c #73D3EC",
"z 	c #77D7F8",
"A 	c #A8F4FD",
"B 	c #327EC3",
"C 	c #2C88C4",
"D 	c #459AD5",
"E 	c #14568E",
"F 	c #6AD5F8",
"G 	c #89E4F9",
"H 	c #67C8E9",
"I 	c #5AD0EE",
"J 	c #9CEBFD",
"K 	c #7CDBF4",
"L 	c #73D3F4",
"M 	c #A8D0EA",
"N 	c #3C93C4",
"O 	c #48A5CB",
"P 	c #56B4CA",
"Q 	c #6CD3F3",
"R 	c #6AD3EB",
"S 	c #52504F",
"T 	c #68C9F5",
"U 	c #47A6D7",
"V 	c #87CAE6",
"W 	c #4AB4D9",
"X 	c #357AB6",
"Y 	c #487798",
"Z 	c #2F5B8C",
"` 	c #DBFCFD",
" .	c #1A6599",
"..	c #4A586A",
"+.	c #3CA4D7",
"@.	c #5AC3DC",
"#.	c #CCFCFE",
"$.	c #3A99D3",
"%.	c #2979B5",
"&.	c #D4F4F5",
"*.	c #276AA6",
"=.	c #376679",
"-.	c #66B8D8",
";.	c #354755",
">.	c #2F384B",
",.	c #87C9DA",
"'.	c #A5DDF4",
").	c #388AC5",
"!.	c #467BA6",
"~.	c #276898",
"{.	c #2C6D90",
"].	c #BCFCFF",
"^.	c #5BC7F3",
"/.	c #533848",
"(.	c #78C8DA",
"_.	c #DAF6F8",
":.	c #2876AA",
"<.	c #275A87",
"[.	c #2F5270",
"}.	c #BBF3FD",
"|.	c #8CADB6",
"1.	c #ACB0AE",
"2.	c #4E332B",
"3.	c #312313",
"4.	c #ACCACE",
"5.	c #58B8F3",
"6.	c #A9D9E6",
"7.	c #171010",
"8.	c #98C8D8",
"9.	c #121825",
"0.	c #7BD4EC",
"a.	c #3996C9",
"b.	c #96BADB",
"c.	c #65BAE7",
"d.	c #562918",
"e.	c #48AAE4",
"f.	c #381708",
"g.	c #2C1A26",
"h.	c #558EB1",
"i.	c #469DE2",
"j.	c #4BB4E5",
"k.	c #431B24",
"l.	c #B6E5E9",
"m.	c #58B8E6",
"n.	c #6B99C5",
"o.	c #795845",
"p.	c #6E7170",
"q.	c #704A30",
"r.	c #4E6972",
"s.	c #3DA2E1",
"t.	c #E6FCFD",
"u.	c #56AAD8",
"v.	c #66A8C8",
"w.	c #4BABDC",
"x.	c #48230C",
"y.	c #2C110C",
"z.	c #559BC7",
"A.	c #76CCF6",
"B.	c #38759B",
"C.	c #4A79AD",
"D.	c #3CA3CA",
"E.	c #58331B",
"F.	c #A3DBEB",
"G.	c #2C86AB",
"H.	c #A7E4EA",
"I.	c #99D7DB",
"J.	c #382826",
"K.	c #775439",
"L.	c #492616",
"M.	c #371A15",
"N.	c #312E32",
"O.	c #482A24",
"P.	c #D4F5FC",
"Q.	c #9BF2FB",
"R.	c #C9F4F4",
"S.	c #593627",
"T.	c #2B86B8",
"U.	c #697A8C",
"V.	c #594639",
"W.	c #685648",
"X.	c #A6795A",
"Y.	c #504433",
"Z.	c #1A2A32",
"`.	c #57B6DA",
" +	c #8A5C4E",
".+	c #694735",
"++	c #89613E",
"@+	c #5195D2",
"#+	c #B48869",
"$+	c #AE8C73",
"%+	c #3A2519",
"&+	c #0C1D58",
"*+	c #67AAD6",
"=+	c #6A442C",
"-+	c #A87456",
";+	c #8F7469",
">+	c #845C43",
",+	c #D2AA90",
"'+	c #AF9388",
")+	c #471B09",
"!+	c #95684B",
"~+	c #72857B",
"{+	c #56A2B6",
"]+	c #336CA8",
"^+	c #696457",
"/+	c #744C34",
"(+	c #AC7F66",
"_+	c #4B1C12",
":+	c #764A37",
"<+	c #A3DBE5",
"[+	c #6EB8E9",
"}+	c #1969A6",
"|+	c #B5DCE6",
"1+	c #665E63",
"2+	c #C18E6F",
"3+	c #CB9E8A",
"4+	c #A77C63",
"5+	c #1B73A9",
"6+	c #62331B",
"7+	c #7B533C",
"8+	c #8A6349",
"9+	c #C59979",
"0+	c #6D564F",
"a+	c #907256",
"b+	c #C9A17B",
"c+	c #AC8366",
"d+	c #896755",
"e+	c #786457",
"f+	c #C79D83",
"g+	c #875B46",
"h+	c #BB9377",
"i+	c #84583C",
"j+	c #9E846C",
"k+	c #B78C73",
"l+	c #4A5F88",
"m+	c #9C7357",
"n+	c #D1E1DE",
"o+	c #976B54",
"p+	c #6B3A2F",
"q+	c #B6D8DA",
"r+	c #663A27",
"s+	c #CBD4CF",
"                . . . . . . . .                 . . . . . . . . . . . . + + + + @ @ @ @ + + + + . . . .                         ",
"                . . . . . . . .                 . . . . . . . . . . . . + + + + @ @ @ @ + + + + . . . .                         ",
"                . . . . . . . .                 . . . . . . . . . . . . + + + + @ @ @ @ + + + + . . . .                         ",
"                . . . . . . . .                 . . . . . . . . . . . . + + + + @ @ @ @ + + + + . . . .                         ",
"                                                                                                                . . . . . . . . ",
"                                                                                                                . . . . . . . . ",
"                                                                                                                . . . . . . . . ",
"                                                                                                                . . . . . . . . ",
". . . .                         . . . . . . . . . . . . . . . .                                         . . . . . . . . . . . . ",
". . . .                         . . . . . . . . # . . . . . . $ %             &                         . . . . . . . . . . . . ",
". . . .                         . . . . . . . . * . . . = - ; > > , '   )     !                         . . . . . . . . . . . . ",
". . . .                         . . ~ . . . . ' { ] . . . . ^ / ( _ :     < [ ! }   |                   . . . . . . . . . . . . ",
". . . .                     1                 2 * 3 4 5   6 7 8 9 3 0   a b c d e                               . . . . . . . . ",
". . . .                                 f     g h i j k l d m n 9 9 o p q r j s '     t                         . . . . . . . . ",
". . . .                                 u       < v w 9 x 0 y d 0 z r A n n l         [                         . . . . . . . . ",
". . . .                             B C D       ; E F F G 3 H I H z c J K L : E M   0 0 { C                     . . . . . . . . ",
"                                      N O p P z 3 * Q R I I L y S F T T U G ( V T W T T X Y     . . . . . . . .                 ",
"                                      Z D D R * ( ` o T i  .H i ..F +.T @._ G #.( j $.%.E       . . . &.. . . .                 ",
"                                        . *.j 0 * 8 m Q T * =.-.;.>.G H ,.'.9 8 8 j ).!.  '     . . . . . . . .                 ",
"                                    ' ~.{.q ( ].7 d T ^.2 9 V /.;.( n (.F w #.9 9 _.9 :.<.[.    . . . . . . . .                 ",
"                        + + + s z w n }.n l k b - O W T |.1.> 2.3.3 4.|.5.i 2 % 8 0 8 z 0 . A l s . . . . . . . . . . . . . . . ",
"                        + + + e ~.U m 6 c 1 d m 6.7.% H } 1.( 3.S J 8.% i 1 9.0.v ].K }.o G a.{ b.. . . . . . . . . . . . . . . ",
"                        + + - + . <.c.i #.T c.0 j c d.y e.e.& f.g.h.e.i.j.k.@.w l.m.Q x -.U ! n.. . . . . . . . . . . . . . . . ",
"                        + + X + . . X D R a.D ] 1 L o.2 W w p.S q.r.$.s.f d.R b %.D X E ).a.. . . t . . . . . . . . . . . . . . ",
"        . . . . + + = + + + ] : i.u H k t.0.N F c.u.v.' s.w.,.x.y.. h +.;.;.z.[.[ N F M (.A.B.C.          )                     ",
"        . . . . + + + + + f + n j 7 '.4 9 A * D.W U s & q 8 8.x.E.F.O J S z.! ).i 9 v c k l.0 8 G.z.'                           ",
"        . . . . + + + + + + $ C j.}.l.H.( I.| k T W s.J.K.' ,.L.M.. P N.O.w.w Q b b v 0.k 8 P.G :.'                             ",
"        . . . . + + + %.B :.N + m.Q w j 1 Q.1 _ 9 R.( +.[ r.. S.f.. d.=.$.L v y w R v 7 0 ].F I J R T.T.G.                      ",
". . . .               ' '.k $ H.e.y F G 8 R - _ 9 }.e U +.U.V.K.W.X.Y.i F A = 4 R Z.n n R A.m.`.c ( 0.1 @ @ @ @                 ",
". . . .           )     ~.`.T { j.*.a.W 0 ,.b S 7 b D e.U .. +.+++o.S H F H Q.0.k.b / #.a.! d @+W e t T.@ @ @ @                 ",
". . . .                     2 *. .X # m.' Y.J..+U U e.j.%   y.#+$+W.  Y N $.{ ! %+Z.Z.H @+&+u &+B ! + + @ @ > @                 ",
". . . .                     *+8 ].9.=+Y H : S K.j.U P W.-   f.-+$+V.    u D { u.K.d.' _ ).N.9.c : a + + @ @ @ @                 ",
"                      b.'.$ w c n G 3.q.C.U [.W.2.;+O.>+,+'+)+-+!+V.  ~+r.r...;.=+2.{+: Z # +.n d F.-.  q                       ",
"                  =.< e.* (.A ].j u V U.p.]+h ^+2.L.2.q./+(+_+!+X.E.!+:+K.f.    !+. >.Z./ | @+y t.F.<+6 c P                     ",
"                    : C [+9 w R F G }+Q |+k.~+W.      1+o.>+,+2+3+4+o.E.'+      o.. J.. c.5+e.h p w T j.[ [.                    ",
"                        ]+}+%.]+=.[.f ..r.6+7+8+          S.o.#+9+++:+          8+8+d.0+[.;.5 *.a.:.*.c.                        ",
"                              k.            0+K.a+        S. +9+X.8+W.        4+8+M.    /.. . . E . . . . . . .                 ",
"                            :.k k '.x m o G A..+$+b+a+      8+b+c+>+        d+;+..H n 3 4 0 4 Q.H T.. . . . . .                 ",
"                        U $.z 4 '.n m Q j D.U Y W.q.c+.+    ++9+X.>+  e+o.f+a+1+N a.H w k m 0 R.J w U a.. . . .                 ",
"                    B.a.* F U (.9 (.m.A.:.B < : 2.7+7+,+'+.+g+h+2+++=+,+-+/+:+S C.C.).C U C Q.* v y F J T |.. .                 ",
"        . . . . . . . 2 C T.u F [ T ).T.X C . . . . y.K.q.#+#+8+2+-+i+8+8+y.. . . . *.[ [ i.u U [+$.[ C #                       ",
"        . . . . . . . . + + } *.B B.b.]+~.. . . . . . j+S. +X.b+9+-+!+E.. . . . . . . ~.E   t %.: v.                            ",
"        . . . . . . . . + + + + <.+ + 5 . . . . . . . . . =+2+b+k+c+q.. . . . . . . . .       l+                                ",
"        . . . . . . . . + + + + + + + + . . . . . . . . . . #+b+4+c+. . . . . . . . . .                                         ",
". . . . . . . . + + + + > + + + @ @ @ @ + + + + . . . .     X.c+b+m+. . . . . .                 }         /                     ",
". . . . . . . . + + + + + + + + @ @ @ @ + + + + . |.. .     #+++9+m+. . . . . .                                                 ",
". . . . . . . . + + + + + + + + @ @ @ @ + + + + . . . .     c+K.b+m+. . . . . .                                                 ",
". . . . . . . . + + + + + + + + @ @ @ n++ + + + . . . .     (+8+$+o+. . . . . .                                                 ",
"                                        . . . .             #+2+c+!+. . . . . . + + + + + + + + . . . .                         ",
"                                        . . * .           =+X.-+2+7+p+. . . . . + + + / + + + + . . . 8.                        ",
"                                q+      . . . .           .+-+8+X.r+6+. . . . . + + + + + + + > . . . .                         ",
"                                        . . . . l./ (   r+q.c+>+!+r+r+S.. . . . + + + + + + + + . . . .                         ",
"                . . . . . . . .           | 7 ( P.&.S =+=+r+g+=+p+:+i+_+y.S ` | ( ( l.l.|++ + + . . . .                         ",
"                . . . . . . . .   9 6.b > | > _.P.g.y.f.y.y.o.r+_+g+p+;+y.x.M.&.P.b &._.b <+F.+ . . . .                         ",
"                . . . . . . . / / 3 3 l.` P._.4 3 4 }.k 8 ~+;+s+|+q+;+j+R.4 3 R.&._._.&.|+( ( 3 3 . . .                         ",
"                . . . . . . . .         q+|+l.l.3 _ 4 #.4 b _ P.4 4 _ ^ x 4 4 n ( / | | + + + + . . . .                         ",
". . . .                         . . . . . . . . . . . . . . . .                                         . . . . . . . . . . . . ",
". . . .                         . . . . . . . . . . . . . . . .                                         . . . . . . . . . . . . ",
". . . .                         . . . . . . . . . . . . . . . .                                         . . . . . . . . . . . . ",
". . . .                         . . . . . . . . . . . . . . . .                                         . . . . . . . . . . . . ",
". . . . . . . . . . . .                                                                                                         ",
". . . . . . . . . . . .                                                                                                         ",
". . . . . . . . . . . .                                                                                                         ",
". . . . . . . . . . . .                                                                                                         "};
