/* XPM */
static char * asset_collect_xpm[] = {
"64 64 124 2",
"  	c #F8F8F8",
". 	c #F0F8F8",
"+ 	c #E8F0F8",
"@ 	c #E0E8F8",
"# 	c #ACA23D",
"$ 	c #ACA244",
"% 	c #AC9E4B",
"& 	c #A6A24B",
"* 	c #AC9E44",
"= 	c #A59D4C",
"- 	c #A69C66",
"; 	c #6A5E24",
"> 	c #736628",
", 	c #ACA24A",
"' 	c #ABA253",
") 	c #B1A344",
"! 	c #675E34",
"~ 	c #B3A849",
"{ 	c #6C6225",
"] 	c #736734",
"^ 	c #B19E4A",
"/ 	c #ACA948",
"( 	c #6B6232",
"_ 	c #6B5E2B",
": 	c #AC9AA3",
"< 	c #715E2F",
"[ 	c #A6A244",
"} 	c #94916E",
"| 	c #2B2346",
"1 	c #262344",
"2 	c #312446",
"3 	c #B996E1",
"4 	c #B19E52",
"5 	c #B698E1",
"6 	c #B897DD",
"7 	c #8674A7",
"8 	c #B295D6",
"9 	c #5A447C",
"0 	c #B29BD5",
"a 	c #31234D",
"b 	c #716766",
"c 	c #2A1B50",
"d 	c #7A679E",
"e 	c #2C234B",
"f 	c #311E4E",
"g 	c #3A2D5B",
"h 	c #B89AD6",
"i 	c #B699DD",
"j 	c #7B66A1",
"k 	c #342730",
"l 	c #D9AFFF",
"m 	c #9E8AC2",
"n 	c #B797E1",
"o 	c #7C6AA1",
"p 	c #61517E",
"q 	c #7A699D",
"r 	c #BDA2E3",
"s 	c #D5B2FE",
"t 	c #B99ADE",
"u 	c #796997",
"v 	c #746495",
"w 	c #9D84C1",
"x 	c #947BB9",
"y 	c #D9B3FF",
"z 	c #AB8ED3",
"A 	c #634D89",
"B 	c #8E7BB2",
"C 	c #635484",
"D 	c #5E517E",
"E 	c #31294D",
"F 	c #69558B",
"G 	c #D5BAFB",
"H 	c #2D294A",
"I 	c #C4A5EA",
"J 	c #2C1D4B",
"K 	c #433563",
"L 	c #473C78",
"M 	c #39255B",
"N 	c #2A2946",
"O 	c #BD9CE9",
"P 	c #251D43",
"Q 	c #BA9AE2",
"R 	c #3D3A68",
"S 	c #B596DC",
"T 	c #322352",
"U 	c #443674",
"V 	c #262647",
"W 	c #76659A",
"X 	c #2D2352",
"Y 	c #3C315D",
"Z 	c #464273",
"` 	c #B6A1DA",
" .	c #AE96D9",
"..	c #AA93CD",
"+.	c #463C75",
"@.	c #493D7A",
"#.	c #55447A",
"$.	c #4C4174",
"%.	c #342B5B",
"&.	c #8A75AD",
"*.	c #715D94",
"=.	c #856CAA",
"-.	c #43356B",
";.	c #493D75",
">.	c #8D74B2",
",.	c #816CA4",
"'.	c #65548A",
").	c #342459",
"!.	c #7767A2",
"~.	c #77699A",
"{.	c #3F3573",
"].	c #4D416D",
"^.	c #755D99",
"/.	c #796596",
"(.	c #261E49",
"_.	c #564976",
":.	c #5F5281",
"<.	c #4A3C6B",
"[.	c #5D4B83",
"}.	c #362C61",
"|.	c #816E96",
"1.	c #443A6D",
"2.	c #675887",
"3.	c #4F3E81",
"                . . . . . . . .                 . . . . . . . . . . . . + + + + @ @ @ @ + + + + . . . .                         ",
"                . . . . . . . .                 . . . . . . . . . . . . + + + + @ @ @ @ + + + + . . . .                         ",
"                . . . . . . . .                 . . . . . . . . . . . . + + + + @ @ @ @ + + + + . . . .                         ",
"                . . . . . . . .                 . . . . . . . . . . . . + + + + @ @ @ @ + + + + . . . .                         ",
"                                                                                                                . . . . . . . . ",
"                                                                                                                . . . . . . . . ",
"                                                                                                                . . . . . . . . ",
"                                                                                                                . . . . . . . . ",
". . . .                         . . . . . . . . . . . . . . . .                                         . . . . . . . . . . . . ",
". . . .                         . . . . . . . . . . . . . . . .                                         . . . . . . . . . . . . ",
". . . .                         . . . . . . . . . . . . . . . .                                         . . . . . . . . . . . . ",
". . . .                         . . . . . . . . . . . . . . . .                                         . . . . . . . . . . . . ",
". . . .                                                                                                         . . . . . . . . ",
". . . .                                                                                                         . . . . . . . . ",
". . . .                                                                                                         . . . . . . . . ",
". . . .                                     #                                 $ $ %                             . . . . . . . . ",
"                                        . & * = - . . .                 $ $ ; >     , *         . . . . . . . .                 ",
"                                        . $ % ' , # . .             ) $ $ !           * %       . . . . . . . .                 ",
"                                        . . ~ . { ] ^ / / $ $ , * ( _ :         ^ $     $       . . . . . . . .                 ",
"                                        . . . . . . . .     ( $               )   < $   [       . . . . . . . .                 ",
"                        + + + + . . . . . . . . . . . . . . } $               & . . . . $ . . . . . . . . . . . . . . . . . . . ",
"                        + + + + . . . . . . . . . . . . . . . #                 # . . . , . . . . . . . . . . . . . . . . . . . ",
"                        + + + + . . . . . . . . . . | 1 2 3 4 : 5 | 6 7 |       . ) $ [ . . . . . . . . . . . . . . . . . . . . ",
"                        + + + + . . . . . . . . . 8 6 9 0 a b b c 3 a d d e     . . . . . . . . . . . . . . . . . . . . . . . . ",
"        . . . . + + + + + + + + . . . . . . . f g h 3 9 i e j k j i 0 7 a d e . . . . . . . . .                                 ",
"        . . . . + + + + + + + + . . . . . | i i 6 e l m h | n n o e d p d q j q . . . . . . . .                                 ",
"        . . . . + + + + + + + + . . . . . h e r n s s m s 6 3 t 6 n q d | q u v | . . . . . . .                                 ",
"        . . . . + + + + + + + + . . . | w i i x s s y z A i i 6 i B q q q C d q D E . . . . . .                                 ",
". . . .                         . . | i F 6 G s s H s I i 8 6 i J e J K q d o H q L             + + + + @ @ @ @                 ",
". . . .                         . . | i F i l | M l N 1 a O P Q d q j o q H q q q L R           + + + + @ @ @ @                 ",
". . . .                         . . i S F i s T G 3 i 5 n e 6 j q d q d d | d q L H U V         + + + + @ @ @ @                 ",
". . . .                         . . 6 t W i 6 t n i i Q 6 | j q e q P d d e d q X L Y H         + + + + @ @ @ @                 ",
"                                    0 i 6 P 3 h t S | 6 n | d j e d o j j e j j L | Y Z . . . .                                 ",
"                                  ` i  .F 5 5 0 ..6 5 9 8 q d d H d d j | j d o +.L @.. . . . .                                 ",
"                                  | 5 6 W i i a 3 5 i #.d d d d d e e Y d d e Z Z $.%.L . . . .                                 ",
"                                  e i &.*.3 n 0 9 7 &.=.d d D d j q d d d -.+.L L L ;.H . . . .                                 ",
"                                  H i i t t n 0 n n 6 >.q 2 q 1 j d d | V L L L L L L L . . . . . . . . . . . .                 ",
"                                    h i i i n i 5 6 d | d W d d W d W d j L L @.1 L L L . . . . . . . . . . . .                 ",
"                                    0 0 W 0 a ` i ,.H d q e f J W d q q e L L L e L L V . . . . . . . . . . . .                 ",
"                                      i '.6 i ).W u j W X d d d e !.q D L L L e L L L 1 . . . . . . . . . . . .                 ",
"        . . . . . . . . + + + + + + + 1 6 | d q W d q D d q q ~.d d d L | L L L ;.{.. .                                         ",
"        . . . . . . . . + + + + + + + + ].^.H d /.d ,.C d q e d q L L +.| e L ;.U X . .                                         ",
"        . . . . . . . . + + + + + + + + (.d d ;._.^.d :.<.].d j [.L L }.+.L }.}.e . . .                                         ",
"        . . . . . . . . + + + + + + + + . | W v d e |.!.q W L L L L 1 L e e L 1.. . . .                                         ",
". . . . . . . . + + + + + + + + @ @ @ @ + + + q d d H 2.L L L L e | L %.L U . .                                                 ",
". . . . . . . . + + + + + + + + @ @ @ @ + + + + . @.+.L +.@.L +.L | 3.R e . . .                                                 ",
". . . . . . . . + + + + + + + + @ @ @ @ + + + + . | N +.;.;.;.<.Z U +.. . . . .                                                 ",
". . . . . . . . + + + + + + + + @ @ @ @ + + + + . . . .         . . . . . . . .                                                 ",
"                                        . . . .                 . . . . . . . . + + + + + + + + . . . .                         ",
"                                        . . . .                 . . . . . . . . + + + + + + + + . . . .                         ",
"                                        . . . .                 . . . . . . . . + + + + + + + + . . . .                         ",
"                                        . . . .                 . . . . . . . . + + + + + + + + . . . .                         ",
"                . . . . . . . .                 . . . . . . . . . . . . + + + + @ @ @ @ + + + + . . . .                         ",
"                . . . . . . . .                 . . . . . . . . . . . . + + + + @ @ @ @ + + + + . . . .                         ",
"                . . . . . . . .                 . . . . . . . . . . . . + + + + @ @ @ @ + + + + . . . .                         ",
"                . . . . . . . .                 . . . . . . . . . . . . + + + + @ @ @ @ + + + + . . . .                         ",
". . . .                         . . . . . . . . . . . . . . . .                                         . . . . . . . . . . . . ",
". . . .                         . . . . . . . . . . . . . . . .                                         . . . . . . . . . . . . ",
". . . .                         . . . . . . . . . . . . . . . .                                         . . . . . . . . . . . . ",
". . . .                         . . . . . . . . . . . . . . . .                                         . . . . . . . . . . . . ",
". . . . . . . . . . . .                                                                                                         ",
". . . . . . . . . . . .                                                                                                         ",
". . . . . . . . . . . .                                                                                                         ",
". . . . . . . . . . . .                                                                                                         "};
