/* XPM */
static char * asset_wall_4_xpm[] = {
"64 64 124 2",
"  	c #F8F8F8",
". 	c #F0F8F8",
"+ 	c #E8F0F8",
"@ 	c #E0E8F8",
"# 	c #6D6155",
"$ 	c #766554",
"% 	c #6B5E59",
"& 	c #6C5D52",
"* 	c #695649",
"= 	c #A9977E",
"- 	c #AB9A82",
"; 	c #A9997E",
"> 	c #99876F",
", 	c #9A8971",
"' 	c #6D5B4C",
") 	c #99896F",
"! 	c #A89977",
"~ 	c #857462",
"{ 	c #584737",
"] 	c #BDB194",
"^ 	c #97896E",
"/ 	c #BCAE93",
"( 	c #34291E",
"_ 	c #564941",
": 	c #77664E",
"< 	c #C0B296",
"[ 	c #A99781",
"} 	c #6E614B",
"| 	c #58473D",
"1 	c #73634E",
"2 	c #9C8C7A",
"3 	c #776854",
"4 	c #56483E",
"5 	c #55463D",
"6 	c #604F42",
"7 	c #665A4C",
"8 	c #998772",
"9 	c #554935",
"0 	c #554641",
"a 	c #83725D",
"b 	c #715D4D",
"c 	c #907E66",
"d 	c #95856D",
"e 	c #A18F7A",
"f 	c #AEA185",
"g 	c #867962",
"h 	c #887663",
"i 	c #786659",
"j 	c #76695C",
"k 	c #907E6B",
"l 	c #3E332D",
"m 	c #A99676",
"n 	c #C4B99D",
"o 	c #43382E",
"p 	c #413630",
"q 	c #2E2925",
"r 	c #B3A58A",
"s 	c #BCAE9A",
"t 	c #9E9176",
"u 	c #A5947B",
"v 	c #B09D85",
"w 	c #584741",
"x 	c #443932",
"y 	c #2E2A29",
"z 	c #715E52",
"A 	c #786655",
"B 	c #B9AC8E",
"C 	c #A08D6F",
"D 	c #AC9C8A",
"E 	c #89765E",
"F 	c #4E413A",
"G 	c #3D3A35",
"H 	c #9A8778",
"I 	c #A69983",
"J 	c #41352E",
"K 	c #3C3126",
"L 	c #2F2818",
"M 	c #6D625A",
"N 	c #70554A",
"O 	c #534436",
"P 	c #86775D",
"Q 	c #756559",
"R 	c #9A928A",
"S 	c #4F422E",
"T 	c #A08E76",
"U 	c #2B2016",
"V 	c #6C5A46",
"W 	c #A7997D",
"X 	c #4B4A46",
"Y 	c #423426",
"Z 	c #C1B39A",
"` 	c #C4B8A0",
" .	c #2E2623",
"..	c #BEB299",
"+.	c #887668",
"@.	c #5D534B",
"#.	c #A29276",
"$.	c #594E4A",
"%.	c #B8A78D",
"&.	c #978872",
"*.	c #BCB18E",
"=.	c #8B7A65",
"-.	c #96897A",
";.	c #513F38",
">.	c #938266",
",.	c #816F5C",
"'.	c #B6A98D",
").	c #635345",
"!.	c #5A4B42",
"~.	c #7B6B5A",
"{.	c #4B3D35",
"].	c #5A4A3C",
"^.	c #302728",
"/.	c #2D241D",
"(.	c #655549",
"_.	c #31251D",
":.	c #423638",
"<.	c #302623",
"[.	c #48372D",
"}.	c #322924",
"|.	c #27221E",
"1.	c #4E4036",
"2.	c #342617",
"3.	c #3E3531",
"                . . . . . . . .                 . . . . . . . . . . . . + + + + @ @ @ @ + + + + . . . .                         ",
"                . . . . . . . .                 . . . . . . . . . . . . + + + + @ @ @ @ + + + + . . . .                         ",
"                . . . . . . . .                 . . . . . . . . . . . . + + + + @ @ @ @ + + + + . . . .                         ",
"                . . . . . . . .                 . . . . . . . . . . . . + + + + @ @ @ @ + + + + . . . .                         ",
"                                                                                                                . . . . . . . . ",
"                                                                                                                . . . . . . . . ",
"                                                                                                                . . . . . . . . ",
"                                                                                                                . . . . . . . . ",
". . . .                         . . . . . . . . . . . . . . . .                                         . . . . . . . . . . . . ",
". . . .                         . . . . . . . . . . . . . . . .                                         . . . . . . . . . . . . ",
". . . .                         . . . . . . . . . . . . . . . .                                         . . . . . . . . . . . . ",
". . . .                         . . . . . . . . . . . . . . . .                                         . . . . . . . . . . . . ",
". . . .                                                                                                         . . . . . . . . ",
". . . .                                                                                                         . . . . . . . . ",
". . . .                                                                                                         . . . . . . . . ",
". . . .                                                                                                         . . . . . . . . ",
"                                        . . . . . . . .                                         . . . . . . . .                 ",
"                                        . . . . . . . .       # $ % % & %                       . . . . . . . .                 ",
"                                        . . . . . . . .     * = = - ; > , '                     . . . . . . . .                 ",
"                                        . . . . . . . .   ' = ' ' , ) ! ) , ~                   . . . . . . . .                 ",
"                        + + + + . . . . . . . . . . . . { ] ) ) , ' ^ , > ^ / ( . . . . . . . . . . . . . . . . . . . . . . . . ",
"                        + + + + . . . . . . . . . . . . _ : < - > , [ < < } _ | . . . . . . . . . . . . . . . . . . . . . . . . ",
"                        + + + + . . . . . . . . . . . & & 1 2 ] ] ] < 3 4 5 5 6 & 7 . . . . . . . . . . . . . . . . . . . . . . ",
"                        + + + + . . . . . . . . . . ' ; - $ $ $ 8 ) 9 5 4 0 5 a , , b . . . . . . . . . . . . . . . . . . . . . ",
"        . . . . + + + + + + + + . . . . . . . . . c ) ) ) 2 $ $ $ 2 4 5 0 5 ' , d , , b . . . .                                 ",
"        . . . . + + + + + + + + . . . . . . . . c e , f > ) g h i j 4 # j k , ) ) , , : l . . .                                 ",
"        . . . . + + + + + + + + . . . . . . . 5 [ ^ ) , ) ] ) , m , , ) , , , , , = n o p q . .                                 ",
"        . . . . + + + + + + + + . . . . . . . 5 < r = s s t , , > ) > ) , ^ u v - s w p p x y .                                 ",
". . . .                         . . . .     { z A f B f C , < ) 8 C 2 D [ v E $ $ 5 F p p G y   + + + + @ @ @ @                 ",
". . . .                         . . . .     4 $ h $ H < ! , , > I v $ $ a E t j 5 _ p J K L y   + + + + @ @ @ @                 ",
". . . .                         . . . .   M N $ $ 3 $ i 1 O H , , 8 , ) , ; P 5 5 J Q , , ^ R   + + + + @ @ @ @                 ",
". . . .                         . . . .   D , 8 h z $ $ $ S < - ^ , , , - < 5 O 5 p - T , , C U + + + + @ @ @ @                 ",
"                                        V ^ > d , c 3 $ w $ $ ] < W = ] ] X 0 _ 5 p z ] = = = L                                 ",
"                                      V ; ; > ) ^ , , $ Y j $ $ , Z ] $ 5 5 4 O o $ $ A Z < ` _  .                              ",
"                                    { , .., , > m ) ) ) v J $ $ i $ O 5 4 5 +.2 , , , $ $ $ z 5 q                               ",
"                                    5 $ ^ = ) 8 > , = [ i _ j $ $ $ | 5 _ A , , ) ) , , $ $ _ 5  .                              ",
"                                  @.$ $ $ ] = , ) #.s A 5 X _ | | { 4 0 | ] , , ) ^ , t ) 8 0 0 $.q . . . . . .                 ",
"                                  $.A $ 1 , ] = , %.1 _ 5 5 p &.) +.5 5 Q , ] ] ] ] ] *.] i 5 5 4  .. . . . . .                 ",
"                                  _ $ z =.i =.-.*.a | F ;.x ^ ) , , >.$ ,.$ ) f , - '.).0 5 4 4 p q . . . . . .                 ",
"                                  !.$ $ , ~.$ $ , { 9 5 l , > , ] , ) , 8 h A ^ ] A 5 5 5 q 5 4 J p q . . . . .                 ",
"        . . . . . . . . + + + + + _ $ $ 8 $ P $ H {.5 l = , ) ) , > ) ) , ^ ].A , 5 5 5 9  .5 5 p J y                           ",
"        . . . . . . . . + + + + + ^.i ) Q $ $ $ 5 5 0 o < = ) ) $ : , ) ) - !.$ 8 5 0 {.O /.5 p J J ^.                          ",
"        . . . . . . . . + + + + + + ^., $ $ $ ) 4 _ x o 2 ] 1 z > , ^ W *.0 (.$ $ , 0 4 5 _ _.J J :.<.                          ",
"        . . . . . . . . + + + + + + + + L Q $ o [.p p $ j $ 1 , ..< ^ 9 5 5 {.$ i : 5 5 5 5 <.}. .                              ",
". . . . . . . . + + + + + + + + @ @ @ @ + ^.|.J p p  .$ i ;.3 $ , 2 4 5 0 ;.1.A 3 A z 0 5 l  .                                  ",
". . . . . . . . + + + + + + + + @ @ @ @ + + +  . . .^.1 Q O A $ 3 2 4 0 5 5 p <.$ $ $ 9  . .                                    ",
". . . . . . . . + + + + + + + + @ @ @ @ + + + + . . ^.$ 5 1 $ $ i 2 4 5 4 p p q q y q y                                         ",
". . . . . . . . + + + + + + + + @ @ @ @ + + + + . . . 2.4 $ i $ $ $ { J p p . .                                                 ",
"                                        . . . .         <.2.A A A b K 3.^.^.. . + + + + + + + + . . . .                         ",
"                                        . . . .             <.q  .}.q q . . . . + + + + + + + + . . . .                         ",
"                                        . . . .                 . . . . . . . . + + + + + + + + . . . .                         ",
"                                        . . . .                 . . . . . . . . + + + + + + + + . . . .                         ",
"                . . . . . . . .                 . . . . . . . . . . . . + + + + @ @ @ @ + + + + . . . .                         ",
"                . . . . . . . .                 . . . . . . . . . . . . + + + + @ @ @ @ + + + + . . . .                         ",
"                . . . . . . . .                 . . . . . . . . . . . . + + + + @ @ @ @ + + + + . . . .                         ",
"                . . . . . . . .                 . . . . . . . . . . . . + + + + @ @ @ @ + + + + . . . .                         ",
". . . .                         . . . . . . . . . . . . . . . .                                         . . . . . . . . . . . . ",
". . . .                         . . . . . . . . . . . . . . . .                                         . . . . . . . . . . . . ",
". . . .                         . . . . . . . . . . . . . . . .                                         . . . . . . . . . . . . ",
". . . .                         . . . . . . . . . . . . . . . .                                         . . . . . . . . . . . . ",
". . . . . . . . . . . .                                                                                                         ",
". . . . . . . . . . . .                                                                                                         ",
". . . . . . . . . . . .                                                                                                         ",
". . . . . . . . . . . .                                                                                                         "};
