/* XPM */
static char * asset_player_6_xpm[] = {
"64 64 17 1",
" 	c #F8F8F8",
".	c #F0F8F8",
"+	c #E8F0F8",
"@	c #E0E8F8",
"#	c #8A3636",
"$	c #662626",
"%	c #FFC6B5",
"&	c #FF2121",
"*	c #FF8F87",
"=	c #000000",
"-	c #FFC300",
";	c #694646",
">	c #BFBFBF",
",	c #BF4B4B",
"'	c #303030",
")	c #AD9595",
"!	c #C4AEAE",
"        ........        ............++++@@@@++++....            ",
"        ........        ............++++@@@@++++....            ",
"        ........        ............++++@@@@++++....            ",
"        ........        ............++++@@@@++++....            ",
"                                                        ........",
"                                                        ........",
"             ## $$ $$                                   ........",
"           %#&#$&$%&&                                   ........",
"....      #&#&$%&$*&&...........                    ............",
"....     #%#%$%&$%&&&...........                    ............",
"....    %&#&$&$%&&&&&...........                    ............",
"....   &&#%$%$%*&&&&$...........                    ............",
"....  #%%&#&$&&&&$=======                               ........",
"....  %#&#%$%&&&===$$&=*==                              ........",
"....  %##%&*&&&$==&&&&=&$===                            ........",
"....  ###&$&&==-==&&;&=&&*$*$==                         ........",
"      #&&$*&&-=-=$&;.>;&&*$,*$=                 ........        ",
"      &#$*&&===*&&= .>>=&;;,,*$,,               ........        ",
"      &&&&&&&=*&&&&=>===>..;,*$,,=              ........        ",
"     #***$=====$&&&&=&==....,;;',,=             ........        ",
"       === =+=>===&&&=;;;==;=... =&&&&= ........=.,$.,$$........",
"        =,,=$$$$==&&&=;;;;;;==>>=**&&&,=......$=.=$,=$,,=.......",
"         ',>$$$$>'&&&;;;;;;;;;;;=%%*,=,==...==..>,,%,,%,,$......",
"        '='==$$$=;&&&;;;;;;;;;;;=**&,=,,=...=.=>>*,$*,$*,,$.....",
"    ....+''>=$$+;;&&&;;;;;;;;;;;=&&&,,,,=.===)>=>*,=*,=*,,=     ",
"    ;...+>>,++=);=&&&'';;';;;;;;$,,,=;;'=))=)=.>;*,=%,=%,,=     ",
"    ;.;.+>>,=));==$&&;;'';;;;;;;;,,,;);;;))===.>)*,=%,=%,,=     ",
"    ;.>>;;=','));;$&&;;;;;;;;;;;;;==));;;;;=.>)))=,*,,*,,,=     ",
".... ;>>  =;''));;$$$;;;)))));;;;;=;)=);;;== >))==,*,,*,,,=     ",
".... = ; >=';)));;';;=))''''')));=;;=;))==;=  ====,'''*,,=      ",
"....  = >>)= =))));;$  ;;;;;;;;;;;;;=;))= == >=##,,***,',=      ",
"....  = >>; >=))));=$  ;;)));;;;;;;;;=;;= >=>)=##,,**,,=,=      ",
"       =)= >);;;;',$=  )))))))));;;;;====>)=#=##===$,,=='       ",
"        == >=;;;=,$=  =))))))))));;;;;,##)=###==,*==$,==;       ",
"        =,=='==',,=   =))))))))));;;;;=,,=''#==,,**===  ''      ",
"           $$$$$     =))))))))))));;;;> .===,,,,,**,=;>    =    ",
"                     ;))))))))))));;;;>>>>>>====$**,=;>>>>'     ",
"                   $=!))))))))))));;;;;====,,,,**=$======       ",
"                  ,,=!!))))))))));;;;;;;=,,,=,***=='..''        ",
"                ,$=,=!!))))))))));;;;;;;=,,,=,***,=>....=       ",
"    ........+++,%*&$=)!!!!))))));;);;;&&&&&&===$*,=>>>>>=       ",
"    ........+++,%*&&=;)!!!)))));));;;$&&&&&&#'==$,#;>>'=        ",
"    ........++$&&&&,=))''';;;);;);;;$&=====$##,,=  '';=         ",
"    ........++$&&&&,$;))))''''';;;;;&&=&&&&=###=;    '          ",
"........+++++++$&&,$==;);));;;;;;;;;&=***&&,=$==;>>>>'          ",
"........+++++++$$$$=$#';;;;;;;;;;;;;,=**&&,#=$=#=>>'=           ",
"........++++++++===,=##=';;;;;;;;;;;,=&&&&,#=$'=;===            ",
"........++++++++@$$=,==###=.   ==;;;==,,,######=;;=             ",
"                 $&=$,,=$#=     .'===#=####==##===..            ",
"               ;=>=$&$=$,,#=    .....======$&&=#=...            ",
"              ;  >>=$=$,,,#=    .....=$,,$&&&&=#=...            ",
"             ; ; >;>>&&,,,==    ......#,#$&&&&##=...            ",
"        .....;..=;  >== ............++#,,@'&'+'#=...            ",
"        .....==== >==   ............+;$,$@>#)+'#=...            ",
"        ........        ............;+>'@@>'++>'....            ",
"        ........        ............;+'';>)';+'+....            ",
"....            ................    ;>  '>; ;)'     ............",
"....            ................         '          ............",
"....            ................                    ............",
"....            ................                    ............",
"............                                                    ",
"............                                                    ",
"............                                                    ",
"............                                                    "};
