/* XPM */
static char * asset_playerg_xpm[] = {
"64 64 243 2",
"  	c #F8F8F8",
". 	c #F0F8F8",
"+ 	c #E8F0F8",
"@ 	c #E0E8F8",
"# 	c #898989",
"$ 	c #1B1B1C",
"% 	c #151615",
"& 	c #0E1013",
"* 	c #2A2A2A",
"= 	c #252525",
"- 	c #31302E",
"; 	c #272728",
"> 	c #2A2A25",
", 	c #53535B",
"' 	c #2A2B33",
") 	c #55504B",
"! 	c #383738",
"~ 	c #8D6B4A",
"{ 	c #49372B",
"] 	c #505064",
"^ 	c #565662",
"/ 	c #3B3B42",
"( 	c #4E5157",
"_ 	c #794A18",
": 	c #010100",
"< 	c #D9A788",
"[ 	c #FEF897",
"} 	c #1E221E",
"| 	c #B7AC6B",
"1 	c #D1AE4E",
"2 	c #C89A37",
"3 	c #964B08",
"4 	c #C89770",
"5 	c #EDE668",
"6 	c #FCF487",
"7 	c #644936",
"8 	c #ECDC56",
"9 	c #EDE749",
"0 	c #ECBC23",
"a 	c #9C5301",
"b 	c #FCEA5B",
"c 	c #F5E945",
"d 	c #FAEB86",
"e 	c #534832",
"f 	c #28281B",
"g 	c #332A28",
"h 	c #CA9517",
"i 	c #FBE44C",
"j 	c #EEE54C",
"k 	c #FBE453",
"l 	c #E6B925",
"m 	c #945301",
"n 	c #F7B526",
"o 	c #F5E652",
"p 	c #7A7A80",
"q 	c #F5E55A",
"r 	c #F4E54D",
"s 	c #FCE45B",
"t 	c #FBEA54",
"u 	c #593516",
"v 	c #FBBD2B",
"w 	c #FCE345",
"x 	c #EEE755",
"y 	c #FCDE53",
"z 	c #F4BD22",
"A 	c #D5A815",
"B 	c #875725",
"C 	c #884C15",
"D 	c #875704",
"E 	c #F4E953",
"F 	c #E9C32A",
"G 	c #382616",
"H 	c #884A04",
"I 	c #531B00",
"J 	c #E9C757",
"K 	c #E9A915",
"L 	c #934C15",
"M 	c #9A6704",
"N 	c #EAC636",
"O 	c #E9BA47",
"P 	c #170A02",
"Q 	c #AB772B",
"R 	c #8C6C0E",
"S 	c #562804",
"T 	c #EAC548",
"U 	c #FCDD4C",
"V 	c #E6A827",
"W 	c #E39210",
"X 	c #985707",
"Y 	c #906B31",
"Z 	c #9C6718",
"` 	c #A76602",
" .	c #965716",
"..	c #EABA36",
"+.	c #F2B654",
"@.	c #4D4D55",
"#.	c #F8DB58",
"$.	c #F4E94C",
"%.	c #934D01",
"&.	c #482603",
"*.	c #D6A736",
"=.	c #F7C746",
"-.	c #FDEA63",
";.	c #784701",
">.	c #CA8C17",
",.	c #FEF5A3",
"'.	c #FFF59D",
").	c #F4EA5B",
"!.	c #D2AB2F",
"~.	c #D89708",
"{.	c #684502",
"].	c #291804",
"^.	c #F5EE6E",
"/.	c #8C5401",
"(.	c #763902",
"_.	c #F3C11D",
":.	c #FDF7A7",
"<.	c #F7E867",
"[.	c #F4C123",
"}.	c #371803",
"|.	c #FDDC67",
"1.	c #FEE463",
"2.	c #F3D16E",
"3.	c #AF8C6D",
"4.	c #AC5931",
"5.	c #2D2906",
"6.	c #EFD538",
"7.	c #FAE976",
"8.	c #593405",
"9.	c #D79617",
"0.	c #B28F4D",
"a.	c #9B4D01",
"b.	c #C79727",
"c.	c #050507",
"d.	c #ECDC48",
"e.	c #0B0100",
"f.	c #FBEA4C",
"g.	c #CA9607",
"h.	c #F7F7F7",
"i.	c #746B2E",
"j.	c #B0A397",
"k.	c #F7C636",
"l.	c #6E2E07",
"m.	c #F4E345",
"n.	c #B38B18",
"o.	c #8D572A",
"p.	c #D4C86D",
"q.	c #F6D948",
"r.	c #3B413B",
"s.	c #F7C42B",
"t.	c #70502B",
"u.	c #F6D988",
"v.	c #DAC552",
"w.	c #E9B567",
"x.	c #FAF377",
"y.	c #471B01",
"z.	c #FAF157",
"A.	c #F7BA46",
"B.	c #938833",
"C.	c #B28D2C",
"D.	c #968D21",
"E.	c #EA922E",
"F.	c #E7A40C",
"G.	c #F35B45",
"H.	c #C61D18",
"I.	c #B82905",
"J.	c #EBB719",
"K.	c #AC5846",
"L.	c #D56B30",
"M.	c #D49401",
"N.	c #B97803",
"O.	c #A35503",
"P.	c #E5593A",
"Q.	c #BC2416",
"R.	c #F7C218",
"S.	c #1B0100",
"T.	c #FABC23",
"U.	c #E56F2E",
"V.	c #F5C756",
"W.	c #2E1611",
"X.	c #A12B1A",
"Y.	c #C62321",
"Z.	c #E65947",
"`.	c #C51D0E",
" +	c #AD3204",
".+	c #FCBD34",
"++	c #FBC124",
"@+	c #F9BC1D",
"#+	c #C8974A",
"$+	c #FDDD44",
"%+	c #E85031",
"&+	c #C62216",
"*+	c #ECC223",
"=+	c #F4BD1D",
"-+	c #D8634D",
";+	c #DA6919",
">+	c #130100",
",+	c #706E6E",
"'+	c #493301",
")+	c #D65830",
"!+	c #F1AA32",
"~+	c #F5B918",
"{+	c #C3280D",
"]+	c #ECBD2B",
"^+	c #372604",
"/+	c #50470D",
"(+	c #EDBC1D",
"_+	c #CF8C10",
":+	c #A35007",
"<+	c #F2AD1A",
"[+	c #89756C",
"}+	c #C68C28",
"|+	c #F7D53A",
"1+	c #642C01",
"2+	c #6F520E",
"3+	c #DB9302",
"4+	c #F4BC2B",
"5+	c #280A01",
"6+	c #484849",
"7+	c #D3B76C",
"8+	c #6D574A",
"9+	c #4A2E17",
"0+	c #673603",
"a+	c #E29303",
"b+	c #D78E03",
"c+	c #F9EFAE",
"d+	c #F8B936",
"e+	c #FEE46B",
"f+	c #7A650F",
"g+	c #ECC21A",
"h+	c #220100",
"i+	c #B8A951",
"j+	c #ADA436",
"k+	c #736453",
"l+	c #E39807",
"m+	c #645F64",
"n+	c #565658",
"o+	c #C7760A",
"p+	c #44150D",
"q+	c #D19432",
"r+	c #5C2C01",
"s+	c #AE730E",
"t+	c #D59927",
"                . . . . . . . .                 . . . . . . . . . . . . + + + + @ @ @ @ + + + + . . . .                         ",
"                . . . . . . . .                 . . . . . . . . . . . . + + + + @ @ @ @ + + + + . . . .                         ",
"                . . . . . . . .                 . . . . . . . . . . . . + + + + @ @ @ @ + + + + . . . .                         ",
"                . . . . . . . .                 . . . . . . . . . . . . + + + + @ @ @ @ + + + + . . . .                         ",
"                                                  # $ $                                                         . % % % & . . . ",
"                                                  # * =                                                         . - * * ; . . . ",
"                                                  # > , ' > )                                                 ; * , ! ; > . . . ",
"                                                  # ; , , ! > '                                           ~ { ] ^ ^ / > ; . . . ",
". . . .                         . . . . . . . . . # * ( ] ] , ; _                                       : < [ ^ ( ' > } . . . . ",
". . . .                         . . . . . . . . . # ; / ( | 1 2 3                                     4 | 5 6 ^ / ' * % . . . . ",
". . . .                         . . . . . . . . . . $ * 7 8 9 0 a                                     3 b c d e f ' * : . . . . ",
". . . .                         . . . . . . . . . . . g h i j k l 3 4                               m n i o o 5 > * p . . . . . ",
". . . .                                               ' 8 q k r o m 4                               m o r s t 5 f ; . . . . . . ",
". . . .                                               u v w x o y z A B                         C D s i E r k F G . . . . . . . ",
". . . .             ~ H C                               I J k t E 0 K _   _ C C H L C H         H M 5 x E N O P . . . . . . . . ",
". . . .             Q M R                               S T U r r V W X   Y Z Z Z Z X `          .M c i o ..+.@.. . . . . . . . ",
"                  H #.o $.%.            . . . . . . . . &.*.=.U -.;.3 H >.,.,.,.,.'.5 ).!.~.H a b o c j b {.]..                 ",
"                 .^.s t b o /.          . . . . . . . .   ~ (._.X ,.,.:.,.:.,.'.:.,.'.<.i j r [.w o b q }.. . .                 ",
"                X k t o k E s T 2       . . . . . . . .       m |.1.2.:.'.'.,.'.[ 5 <.r ).x o i k o <.&.. . . .                 ",
"              ~ |.t r o i o o ).#.1     . . . . . . . .   3.4.W 5.T 6.5 7.5 5 7.5 k F ].5.5.l t b k ` 8.. . . .                 ",
"              H s o r s E k o o j 9.. . . . . . . . . . . 0.a.b.c.J d.E r k o $.$.o T e.c.e.O f.E -.a.u . . . . . . . . . . . . ",
"          B ` s k o $.o o o o o k k g.. . . . . . . . . . 0.C c.h.: i.k o s 9 j b x e h.j.: ; 5 t c k.l.. . . . . . . . . . . . ",
"          B M o o o r t o o o o E m.t n.o.. . . . . . . o.O p.> c.f i.E k q.o $.q q e.c.r.( / b o U s.L . . . . . . . . . . . . ",
"        t.d s E o o o o t o o o j o 5 -.u.t.. . . . . . (.v.q w.* p.J x.y.g.y d.r r v.f ' $ p.s F 0 v 9.y.. . . . . . . . . . . ",
"         .z.k o o o o o r k o o q r i x 1. .. . . . . . g 4 A.k.B.d.6.1.C.l k x x k 6.D.B.D.N +.E.9.n F.y.                      ",
"        B -.E o o o E o o r o o o o $.k |.%.. . . . . . ' 4 < #.m.s k q ^.^.q s -.k m.<.).#.1.G.H.I.n J.e.                      ",
"        e.x.x $.t o o k o q o $.k E o k.0 n C . . . . . * K.L.t r M.N. .g ' B O./.s k r r 1.P.P.Q.H.I.R.c.                      ",
"        . e.: S.q o 9 E t k o r o k i k.T.R.k.a.. . . . ' K.U.o j y U V.W.X.Y.I.s.m.o o k |.Z.Z.`.Y. +.+e.                      ",
". . . .         i.i.5 k $.q c o o t 6.++z n @+g.#+        ~ C m.k E $+|.X.%+&+I.q.E o 9 E |.Z.Y.H.&+I.[.e.@ @ @                 ",
". . . .         c.c.p.5 ^.$.t o o i *+=+z z T.z H         ( e k i x s 1. +-+X.a.k o i o x 1.;+Y.I.`. +++S.@ @ @                 ",
". . . .             * : e.x x o i T.=+_.z =+=+n >+,+      , '+t $.x E f.b )+!+0 k $.o i s #.~+H.H.{+W n S @ @ @                 ",
". . . .                   c.e._ _.0 @+z [.T.A.P               ; b i r q x m.b z.o o o r 6.R.R.@+]+R.z R.~.H ^+@                 ",
"                                : e.A.R.@+z 8.: :           : /+o r o o o k i k r i l *+[.z =+_._.R.z (+z 8.e.                  ",
"                                    H _+F k.S : : :     : : : :+E k q.l *+(+0 *+l z <+@+T.=+=+_.@+z z =+=+'+c.                  ",
"                                  [+}+J.N D ) : : : : : : ) i.+.E i U |+=+@+@+T.=+=+@+z =+z ++z F.K |+n =+'+:                   ",
"                                  1+s.z O S.: : : : : : : ~ Z z.o o o i 0 l z @+@+=+=+=+z (+T.T.~.g.i l 0 '+e.                  ",
"                                  l.N T.=+g.S.: : : : : : 7 2+i i t x t r w g.M.v T._.@+=+~+=+3+y E k $.z '+c..                 ",
"                                8.4+<+0 n (+!.e.: : : : : 7 2+r k E E o t b k b 3+++=+@+~+z @+a x.c o i l '+: .                 ",
"                                5+;.~.K ~+M.g.#+t.6+: : 7 7+v.r F q.o r o x t s ` _.++z _.v O.|.s s m.F M.S : .                 ",
"                                { 8+#+O E.3+W 3+S { : : u v.i x <+|+c x o t t b M #+N @+]+!+` t q k $+R.9.&.e..                 ",
"        . . . . . . . . + + + + + + 9+u 0+>.a+b+S ! : : 8.T t k M.4+N o o o o r N >+V..+>.%.z #.i |+l l a.}.e.                  ",
"        . . . . . . . . + + + + + + + + . >+9.0+: : :  .q i q o i m N.*+$.r 9 #.s c+y.s.>.m a.z z z .+0+d+` t.                  ",
"        . . . . . . . . + + + + + + + + . e.m e.: 7 &.e+r t E r r t O a.a.d+w o ^.: J @+s.T >+[.>+c.P k.k.~.9.C                 ",
"        . . . . . . . . + + + + + + + + . S a.S f e (.s m.r o o b o ..b.n.h *.1 0.D =.z n T c.B.f+f+/.=+++K V u                 ",
". . . . . . . . + + + + + + + + @ @ @ ,+>+a.:+ .(.(.;.k t k o o o t t s k ;.I &.>+J.0 T.[.T : P =.=+=+[.z =+=.:                 ",
". . . . . . . . + + + + + + + + @ @ @ ,+S.X a O.1+1 o r i t o o o o o $.j q.r i z z n _.=+z [.T.T.g+z z 4+=+T :                 ",
". . . . . . . . + + + + + + + + @ @ @ @ + e.S.m h+i+o k o r $.o $.k o o t g+d+[.]+z R.z z z n 4+g+@+@+_.R._.J c.                ",
". . . . . . . . + + + + + + + + @ @ @ @ + + + >+: j+E o o o t o i k o o U z z _.=+z z T.++_.=+_.g+n @+0 @+&.c.c.                ",
"                                        . . . c.e.j+q E E o r o x o E t w z @+T.=+T.T.++z =+z =+v z z @+=+'+: &                 ",
"                                        . . . . W.h 4+i k o o E k $.$.m.z [.~+@+@+++z @+T.z z T.v R.R.[.]+'+c.                  ",
"                                        . . . .   k+1+]+w $.E k f.0 T.T.@+T.M.b+3+3+3+3+l+T.z R.=+[.v d+P                       ",
"                                        . . . .   m+>+_+(+0 4+z 0 (+~+++v 3+M.3+a+a+a+W b+3+M.T.=+n g.S.                        ",
"                . . . . . . . .                 . . ! 8.F.@+=+0 z =+z k.D {.0+{.0+%.O.` ` ` l+l+N.N.8.G                         ",
"                . . . . . . . .                 . . . n+{.N.b+F.l+o+o+}+u e ! ! g g ! '+D o+a+a+W }+C.}+k+                      ",
"                . . . . . . . .                 . . . . >+{.X ~.M.O.3 o.p+: : : : : : c.i.2 2 q+k.++s.d+r+                      ",
"                . . . . . . . .                 . . . 1+l m.o f.d+h s+G : : : : : : : : ) : e.u t+M.k.3 d+D ^+                  ",
". . . .                         . . . . . . . . . # ^+#.s c i @+e.e.e : : : : : : : : : : : : : y.8.e.>+e.. . . . . . . . . . . ",
". . . .                         . . . . . . . . . [+>+g./.N.n.: :               : : :                   . . . . . . . . . . . . ",
". . . .                         . . . . . . . . . . { 0._ Q 0.! >                                       . . . . . . . . . . . . ",
". . . .                         . . . . . . . . . . . : : c.f .                                         . . . . . . . . . . . . ",
". . . . . . . . . . . .                                                                                                         ",
". . . . . . . . . . . .                                                                                                         ",
". . . . . . . . . . . .                                                                                                         ",
". . . . . . . . . . . .                                                                                                         "};
