/* XPM */
static char * asset_collect_3_xpm[] = {
"64 64 130 2",
"  	c #F8F8F8",
". 	c #F0F8F8",
"+ 	c #E8F0F8",
"@ 	c #E0E8F8",
"# 	c #AB7A02",
"$ 	c #AB7602",
"% 	c #AA7B0A",
"& 	c #B38D3C",
"* 	c #ECC75C",
"= 	c #F1C963",
"- 	c #EFCA62",
"; 	c #B79339",
"> 	c #AE903D",
", 	c #A3760B",
"' 	c #F6DA7B",
") 	c #FBD975",
"! 	c #FAD97A",
"~ 	c #FBD682",
"{ 	c #9F7B00",
"] 	c #B17909",
"^ 	c #A57A03",
"/ 	c #E1B654",
"( 	c #F6DA75",
"_ 	c #FFDA64",
": 	c #FAB609",
"< 	c #F9B902",
"[ 	c #F5B604",
"} 	c #FBD67B",
"| 	c #E4BB53",
"1 	c #9C751A",
"2 	c #B48718",
"3 	c #E5BC5A",
"4 	c #FED354",
"5 	c #F4B90B",
"6 	c #F3B614",
"7 	c #F4B60C",
"8 	c #FDD56B",
"9 	c #AC8213",
"0 	c #AB7613",
"a 	c #AB760A",
"b 	c #F6B902",
"c 	c #A47503",
"d 	c #FAB703",
"e 	c #FAB90A",
"f 	c #B17A02",
"g 	c #9C790C",
"h 	c #F6C834",
"i 	c #B17602",
"j 	c #F9BB14",
"k 	c #F3C644",
"l 	c #FBD981",
"m 	c #FEDA6C",
"n 	c #A57B0B",
"o 	c #F5C83D",
"p 	c #FFE076",
"q 	c #A58006",
"r 	c #F3B912",
"s 	c #FBD675",
"t 	c #B59544",
"u 	c #AA8D48",
"v 	c #F7E8C6",
"w 	c #D09500",
"x 	c #B68101",
"y 	c #EEC866",
"z 	c #F7BE28",
"A 	c #F3C117",
"B 	c #F8C42A",
"C 	c #F9CD58",
"D 	c #FED463",
"E 	c #FDD35D",
"F 	c #EDB61B",
"G 	c #EAAE17",
"H 	c #BA8402",
"I 	c #F6D76C",
"J 	c #9D7301",
"K 	c #B79745",
"L 	c #9D7614",
"M 	c #FFFEFE",
"N 	c #F4D583",
"O 	c #CD9501",
"P 	c #FBCC54",
"Q 	c #AB8102",
"R 	c #C99806",
"S 	c #BEAB7B",
"T 	c #9C750C",
"U 	c #EDBA14",
"V 	c #FFDA5D",
"W 	c #EBBA23",
"X 	c #EEBA0D",
"Y 	c #BEB17C",
"Z 	c #9E7A1C",
"` 	c #C2B17D",
" .	c #FFFEEB",
"..	c #FEFEF4",
"+.	c #F6D574",
"@.	c #F5D57B",
"#.	c #FCCC3C",
"$.	c #A2751A",
"%.	c #FEF5DB",
"&.	c #F7FDFA",
"*.	c #FEECAC",
"=.	c #FFFEE3",
"-.	c #F8E7B9",
";.	c #E6C87A",
">.	c #C8AD82",
",.	c #F6DA89",
"'.	c #F6CE77",
").	c #F6DA82",
"!.	c #BB9021",
"~.	c #EEB50A",
"{.	c #F3BC23",
"].	c #997934",
"^.	c #A37A22",
"/.	c #FEF4E8",
"(.	c #FEECB3",
"_.	c #957414",
":.	c #F3C53C",
"<.	c #FFFDDC",
"[.	c #96721A",
"}.	c #E6D37B",
"|.	c #A17515",
"1.	c #946E25",
"2.	c #F7E199",
"3.	c #D9C5A1",
"4.	c #DDB553",
"5.	c #F8DEA4",
"6.	c #E9D596",
"7.	c #9A7422",
"8.	c #BB901E",
"9.	c #B28C2C",
"                . . . . . . . .                 . . . . . . . . . . . . + + + + @ @ @ @ + + + + . . . .                         ",
"                . . . . . . . .                 . . . . . . . . . . . . + + + + @ @ @ @ + + + + . . . .                         ",
"                . . . . . . . .                 . . . . . . . . . . . . + + + + @ @ @ @ + + + + . . . .                         ",
"                . . . . . . . .                 . . . . . . . . . . . . + + + + @ @ @ @ + + + + . . . .                         ",
"                                                                                                                . . . . . . . . ",
"                                                                                                                . . . . . . . . ",
"                                                                                                                . . . . . . . . ",
"                                                                                                                . . . . . . . . ",
". . . .                         . . . . . . . . . . . . . . . .                                         . . . . . . . . . . . . ",
". . . .                         . . . . . . . . . . . . . . . .                                         . . . . . . . . . . . . ",
". . . .                         . . . . . . . . . . . . . . . .                                         . . . . . . . . . . . . ",
". . . .                         . . . . . . . . . . . . . . . .                                         . . . . . . . . . . . . ",
". . . .                                                                                                         . . . . . . . . ",
". . . .                                                                                                         . . . . . . . . ",
". . . .                                               # # $ # # # # # $ % #                                     . . . . . . . . ",
". . . .                                         & & & * = = - - - - - = % # ; & >                               . . . . . . . . ",
"                                        . . . . # $ , ' ) ! ! ) ) ) ) ~ { ] # # $               . . . . . . . .                 ",
"                                        . . ^ / ~ ( _ : < [ < < < < < < ) ' } | # # 1           . . . . . . . .                 ",
"                                        . . 2 3 ) _ 4 : 5 6 6 6 6 7 6 : 8 _ ) | 9 ^ 0           . . . . . . . .                 ",
"                                        a $ ! ! ( b < : c # # # # # # d e : ' ( ) # # f         . . . . . . . .                 ",
"                        + + + + . . . g ( ( ' h 5 < 5 $ ' } ~ } ) ) } i j [ : k l } m ^ n g . . . . . . . . . . . . . . . . . . ",
"                        + + + + . . . ^ ! ! ' h < < 5 f ' ! ! ) ) ! ) ^ : [ b o l p ) # q # . . . . . . . . . . . . . . . . . . ",
"                        + + + + . . . ^ p ' [ : : # ^ ! r b ( ) ! e r } ^ $ e < : ) s f # # . . . . . . . . . . . . . . . . . . ",
"                        + + + + . t u v ' ! [ w x y * z [ A B C ! D E z F G H w e I ! = J # K . . . . . . . . . . . . . . . . . ",
"        . . . . + + + + + + + + . n L M N ' < O ^ ) m < < < < P ) ~ m b b b Q R < m ! } , q ^ S                                 ",
"        . . . . + + + + + + + + . % 1 M M M b O # ) _ < < < < d d ) ! ' r b Q O < ) ( l T f # .                                 ",
"        . . . . + + + + + + + + . % 1 M M M < w ^ ) _ U e < d b < V m ' W X Q w < ) ) l ^ # # Y                                 ",
"        . . . . + + + + + + + + . n Z M M M [ O ^ } ( ( r < d [ < < r ! ' ! # w < s ) l T # ^ `                                 ",
". . . .                         . n Z M M M b O #  ...~ +.! A < : < b e ) ! ^ w < ) ' ! ^ # # ` + + + + @ @ @ @                 ",
". . . .                         . n 1 M M M b w ^ M  .I ~ m 5 [ < < < b s ! ^ O < ) ! ! ^ # ^ Y + + + + @ @ @ @                 ",
". . . .                         . n 1 M M M b O ^ M M M @.l ) #.b < b e d 5 # O < ) ' ) ^ # # Y + + + + @ @ @ @                 ",
". . . .                         . n $.M M M [ O # M M ..%.%.@.D V b b < < [ # R < ) ( l ^ # # ` + + + + @ @ @ @                 ",
"                                  n 1 M &.M b O ^ M ..M M M l l ! 5 d d b [ # O < ) ( l , i # S                                 ",
"                                  n c ! M &.b O # ..M M M M M *.' ) m < < b # O d ) ) ! , # # `                                 ",
"                                  n , } =. .[ w # ..M M M M M -.;.! ) U e < # O < ) ) ! ^ # # >.                                ",
"                                  n , ) ! ! b O # ..M M M M M M ..,.) ! 6 d # O b ) ' } , f # Y                                 ",
"                                  n ^ ) } ! [ O # ..M M M M M M M M  .( +.} # O < s ( @.^ # # . . . . . . . . .                 ",
"                                  n ^ ! ) } b w # ..M M M M M ..M M  .'.) l ^ O d ) ( @.^ # # . . . . . . . . .                 ",
"                                  ^ c ' ) ! [ O % &.M M M M M M M M M M N ).# O < I ' ! a Q q . . . . . . . . .                 ",
"                                      !.! ! < ~.{.K ].M M M M M M M M M ^.!.{.[ [ m ! !.# ^ . . . . . . . . . .                 ",
"        . . . . . . . . + + + + + + + # ! l [ d < ^ g M M M M M M M M M 1 i [ < [ m ) # Q #                                     ",
"        . . . . . . . . + + + + + + + n ' } p h : [ 6 $ ..M &.M M M ..# M /.M (.l ' } f Q ^                                     ",
"        . . . . . . . . + + + + + + + _.} m ' :.U [ 7 i <.=.=.=.=.=.<.[.....M -.}.) ) # |.1.                                    ",
"        . . . . . . . . + + + + + + + + |.$ ' ( ( [ [ e c f # # # f |.&.&.M M M M n $ #                                         ",
". . . . . . . . + + + + + + + + @ @ @ @ + + ^ / ! I V : 5 j j 2...M ..M M M &.3., { ,                                           ",
". . . . . . . . + + + + + + + + @ @ @ @ + + % 4.( l V < < d < 5.M M M &.M M M 6.q # 7.                                          ",
". . . . . . . . + + + + + + + + @ @ @ @ + + + + $ $ { ) } ! } l p M M M 7.% $ # #                                               ",
". . . . . . . . + + + + + + + + @ @ @ @ + + + + . . . 8.8.8.!.8.!.9.9.9.% # . .                                                 ",
"                                        . . . .       f # # # ^ $ # # f # # . . + + + + + + + + . . . .                         ",
"                                        . . . .                 . . . . . . . . + + + + + + + + . . . .                         ",
"                                        . . . .                 . . . . . . . . + + + + + + + + . . . .                         ",
"                                        . . . .                 . . . . . . . . + + + + + + + + . . . .                         ",
"                . . . . . . . .                 . . . . . . . . . . . . + + + + @ @ @ @ + + + + . . . .                         ",
"                . . . . . . . .                 . . . . . . . . . . . . + + + + @ @ @ @ + + + + . . . .                         ",
"                . . . . . . . .                 . . . . . . . . . . . . + + + + @ @ @ @ + + + + . . . .                         ",
"                . . . . . . . .                 . . . . . . . . . . . . + + + + @ @ @ @ + + + + . . . .                         ",
". . . .                         . . . . . . . . . . . . . . . .                                         . . . . . . . . . . . . ",
". . . .                         . . . . . . . . . . . . . . . .                                         . . . . . . . . . . . . ",
". . . .                         . . . . . . . . . . . . . . . .                                         . . . . . . . . . . . . ",
". . . .                         . . . . . . . . . . . . . . . .                                         . . . . . . . . . . . . ",
". . . . . . . . . . . .                                                                                                         ",
". . . . . . . . . . . .                                                                                                         ",
". . . . . . . . . . . .                                                                                                         ",
". . . . . . . . . . . .                                                                                                         "};
