/* XPM */
static char * asset_player_3_xpm[] = {
"64 64 234 2",
"  	c #F8F8F8",
". 	c #F0F8F8",
"+ 	c #E8F0F8",
"@ 	c #E0E8F8",
"# 	c #F6F5E9",
"$ 	c #FCFDF4",
"% 	c #F7F5F9",
"& 	c #E4EDEB",
"* 	c #6D7670",
"= 	c #ECFAF5",
"- 	c #F4FEFC",
"; 	c #BCE3DD",
"> 	c #B5E2DB",
", 	c #AAD4CD",
"' 	c #BBDDDB",
") 	c #FDFEFD",
"! 	c #C3E3DD",
"~ 	c #ACDCDA",
"{ 	c #9BD2CD",
"] 	c #A3D3CD",
"^ 	c #9CD4D1",
"/ 	c #A3D5D2",
"( 	c #9BCDCB",
"_ 	c #71918A",
": 	c #D3EBE5",
"< 	c #ABD5D3",
"[ 	c #99D8D4",
"} 	c #97CDD1",
"| 	c #94D1CC",
"1 	c #8BCAC5",
"2 	c #8AC5C3",
"3 	c #DBF2ED",
"4 	c #93CBC5",
"5 	c #B3DBD5",
"6 	c #93CDCB",
"7 	c #73BCBA",
"8 	c #73BAB5",
"9 	c #77AAA6",
"0 	c #D5E4D9",
"a 	c #ABE1DB",
"b 	c #83C3BD",
"c 	c #8CCCC9",
"d 	c #BBE6E2",
"e 	c #8CA698",
"f 	c #96BAB8",
"g 	c #6EC1BA",
"h 	c #73B5B3",
"i 	c #51716C",
"j 	c #88C9C9",
"k 	c #96C3BC",
"l 	c #EFEDEC",
"m 	c #2C3E40",
"n 	c #88BEC1",
"o 	c #6EBCBA",
"p 	c #83BDBB",
"q 	c #ECFDFA",
"r 	c #85C9C4",
"s 	c #A4DAD4",
"t 	c #E7F4EC",
"u 	c #6E584A",
"v 	c #708776",
"w 	c #6DBBB5",
"x 	c #7BBCBA",
"y 	c #D1CDB0",
"z 	c #D5F2EB",
"A 	c #865B48",
"B 	c #6B5433",
"C 	c #A29C93",
"D 	c #7BC5C3",
"E 	c #79B5AC",
"F 	c #6CB5B3",
"G 	c #67B4AB",
"H 	c #CCEAE4",
"I 	c #99D5C8",
"J 	c #74B3AD",
"K 	c #918D73",
"L 	c #C47C56",
"M 	c #B87756",
"N 	c #63A29E",
"O 	c #54837C",
"P 	c #AA7455",
"Q 	c #75C2BA",
"R 	c #060904",
"S 	c #CD8F69",
"T 	c #B2AD8E",
"U 	c #688A87",
"V 	c #483627",
"W 	c #84C6C2",
"X 	c #7DCAD1",
"Y 	c #A6C4BB",
"Z 	c #8E958F",
"` 	c #86B4AC",
" .	c #7CC2BC",
"..	c #77BDC2",
"+.	c #C6DBD7",
"@.	c #8DD1D3",
"#.	c #041409",
"$.	c #062724",
"%.	c #7AB5B3",
"&.	c #CADDE2",
"*.	c #8BC4BC",
"=.	c #86C5B9",
"-.	c #689995",
";.	c #031716",
">.	c #CAE6DD",
",.	c #C8B7A1",
"'.	c #8B796A",
").	c #32504C",
"!.	c #2C3630",
"~.	c #ABBDC1",
"{.	c #75ADB1",
"].	c #88B9B5",
"^.	c #8EC1AC",
"/.	c #95B0AA",
"(.	c #769997",
"_.	c #E4F5F2",
":.	c #EED8AE",
"<.	c #E5BB87",
"[.	c #F4FCF4",
"}.	c #B7D8D4",
"|.	c #B4CBC9",
"1.	c #69AAA5",
"2.	c #68A49C",
"3.	c #376C68",
"4.	c #E6CA95",
"5.	c #B6D4CC",
"6.	c #020401",
"7.	c #D1D4CD",
"8.	c #37635B",
"9.	c #121516",
"0.	c #E9D8A7",
"a.	c #F6EAC6",
"b.	c #CBE8E6",
"c.	c #93C5C2",
"d.	c #465E60",
"e.	c #2F2B0F",
"f.	c #524714",
"g.	c #798257",
"h.	c #B3A870",
"i.	c #D0CB91",
"j.	c #C4EAE3",
"k.	c #F4D392",
"l.	c #8BD1CA",
"m.	c #BBC29A",
"n.	c #D7C46C",
"o.	c #D8C887",
"p.	c #D9AA68",
"q.	c #F7DA87",
"r.	c #EBEAD1",
"s.	c #A7C9C6",
"t.	c #504E31",
"u.	c #D7C576",
"v.	c #CEC774",
"w.	c #DBF5F2",
"x.	c #CFF0EF",
"y.	c #B5DDE0",
"z.	c #CDB68E",
"A.	c #D5A95A",
"B.	c #E7C989",
"C.	c #284745",
"D.	c #98823B",
"E.	c #D2B172",
"F.	c #EBF5F3",
"G.	c #9BCAC5",
"H.	c #334736",
"I.	c #F7E786",
"J.	c #ECE591",
"K.	c #F7DA75",
"L.	c #EFCF5A",
"M.	c #EAD677",
"N.	c #0C1E23",
"O.	c #695314",
"P.	c #E5B66A",
"Q.	c #FAF8D6",
"R.	c #FCEB7D",
"S.	c #FEED8B",
"T.	c #F7D868",
"U.	c #F3CC6A",
"V.	c #8A6F51",
"W.	c #E6B875",
"X.	c #FBF7B8",
"Y.	c #FCE37B",
"Z.	c #F9E576",
"`.	c #F9EA96",
" +	c #F7E871",
".+	c #FEE05E",
"++	c #E9C96A",
"@+	c #A3CDCB",
"#+	c #193736",
"$+	c #150900",
"%+	c #EDB76F",
"&+	c #D39C5B",
"*+	c #FDEC83",
"=+	c #F7E9A7",
"-+	c #E9D797",
";+	c #122E2B",
">+	c #291504",
",+	c #F5C478",
"'+	c #F7E9B6",
")+	c #FCF393",
"!+	c #FCF38B",
"~+	c #536757",
"{+	c #FCF9C8",
"]+	c #FCF284",
"^+	c #FEFA8A",
"/+	c #FDFDDC",
"(+	c #E9D786",
"_+	c #EFF3B0",
":+	c #FBF6A8",
"<+	c #FDFDEC",
"[+	c #E9EBE8",
"}+	c #FDFDE3",
"|+	c #E5DBCB",
"1+	c #FBF59A",
"2+	c #B0B3AD",
"3+	c #716D51",
"4+	c #171602",
"5+	c #A6D9D9",
"6+	c #EBD669",
"7+	c #ABDAD5",
"8+	c #F4F5F3",
"9+	c #C3E5E2",
"0+	c #E9C777",
"a+	c #204335",
"b+	c #375956",
"c+	c #5C6634",
"d+	c #53908B",
"e+	c #77A49B",
"f+	c #49360C",
"g+	c #398078",
"h+	c #D7EBE8",
"i+	c #194A46",
"j+	c #86ABA8",
"k+	c #B3DDDA",
"                . . . . . . . .                 . . . . . . . . . . . . + + + + @ @ @ @ + + + + . . . .                         ",
"                . . . . . . . .                 . . . . . . . . . . . . + + + + @ @ @ @ + + + + . . . .                         ",
"                . . . . . . . .                 . . . . . . . . . . . . + + + + @ @ @ @ + + + + . . . .                         ",
"                . . . . . . . .                 . . . . . . . . . . . . + + + + @ @ @ @ + + + + . . . .                         ",
"                                                                                                                . . . . . . . . ",
"                                                                                                                . . . . . . . . ",
"                                                                                                                . . . . . . . . ",
"                                                                                                                . . . . . . . . ",
". . . .                         . . . . . . . . . . . . . . . .                                         . . . . . . . . . . . . ",
". . . .                         . . . . . . . . . . . . . . . .                                         . . . . . . . . . . . . ",
". . . .                         . . . . . . # $ % & * . . . . .                                         . . . . . . . . . . . . ",
". . . .                         . . . . $ $ = - ; ; > , ' . . .                                         . . . . . . . . . . . . ",
". . . .                             ) ) % - ! ~ { { ] ^ / ( _                                                   . . . . . . . . ",
". . . .                           ) ) ) - : < [ } | { } ( 1 2                                                   . . . . . . . . ",
". . . .                         ) ) % 3 > ] 4 4 | , 5 } 6 7 8 9                                                 . . . . . . . . ",
". . . .                       0 ) ) 3 a 1 b c | d 5 e f 6 g g h i                                               . . . . . . . . ",
"                              % % $ ! { j j 4 1 k * l m n 8 g o p                               . . . . . . . .                 ",
"                              * ) q < 1 r r } / s t % u v w x o w                               . . . . . . . .                 ",
"                              y $ z ( r r b c 6 4 u A B C D E F G                               . . . . . . . .                 ",
"                              A % H I r r 2 j 2 J K L M u N 8 7 w O                             . . . . . . . .                 ",
"                        + + + L P ; I j r 2 1 j Q R S S T 7 g D o U             . . . . . . . . . . . . . . . . . . . . . . . . ",
"                        + + + P V ; 6 W W r 2 6 X I Y Z `  .h n ..              . . . . . . . . . . . . . . . . . . . . . . . . ",
"                        + + + l +.I 2 j b r r c 6 4 c @.#.$.%.g D               . . . . . . . . . . . . . . . . . . . . . . . . ",
"                        + + + &.> *.| 1 $.j W p  .1 =.-.;.>.z n f ,.            . . . . . . . . . . . . . . . . . . . . . . . . ",
"        . . . . + + + + '.C ).!.~.n Q D {.].^./.f ).-.f ' =.[ (._.:.<.,.. . . . . . . . . . . .                                 ",
"        . . . . + + + # [.t }.|.] U U ` (.9 E 1.2.Q ( % 3.Q G $.5 0 4.4.. . . . . . . . . . . .                                 ",
"        . . . . + + + 3 5.6.7.9 ( 4 8.`  .%...b =.=.` 9.}.@.G a [ a 5.0.a.. . . . . . . . . . .                                 ",
"        . . . . + + + b.c.2 O I 1 1 6 c.9 d.e.f.g.h.i.v q j.I ] ~ } s #.k.0.. . . . . . . . . .                                 ",
". . . .             = I } b l.l.1 1 l.1 @.9 m.n.n.n.o.(.&.- 5 s 5 < ^ ! p.q.r.                  + + + + @ @ @ @                 ",
". . . .               s.a } c 2 } *.I 6 ( t.u.v.u.v.K -.w.3 x.y./ ^ { k z.A.B.r.                + + + + @ @ @ @                 ",
". . . .                 C./ / | | 4 | ( , r.z.e.D.v.o.: ;.= x./ b 8 J ].C p.E.:.                + + + + @ @ @ @                 ",
". . . .                     F.F.& / ^ G.H.I.J.k.K.L.M.R % N.! 6 8 G G -.F.z.O.P.Q.              + + + + @ @ @ @                 ",
"                                ) x.y./.M.I.R.S.K.T.U.o.% / C.` 8 1.N J $ V.S W.k.. . . . . . .                                 ",
"                                  6.e X.T.Y.Z.`. +.+L.++i.@+G.#+1.1.1.f ) $+%+&+k.. . . . . . .                                 ",
"                                    r.u.U.*+S.=+*+*+T.T.Z.-+t.^.G G 2.;+) >+&+%+,+. . . . . . .                                 ",
"                                    r.'+L.*+`.'+S.S.)+!+J.Q.'+J.t.~+K ) % >+P.P.,+t.. . . . . .                                 ",
"                                    {+$+L.R.J.0.!+]+^+)+X.H./+S.Z.M.(+$ l V.p.U.,+V     . . . . . . . . . . . .                 ",
"                                    X._+-+`.X.t./+:+:+{+Q.<+/+X.R.S.X.& t $+p.,+,+>+    . . . . . . . . . . . .                 ",
"                                    {+'+o.'+a.9.e.R R R * <+{+S.K.S.`.[+& R -+,+,+$+    . . . . . . . . . . . .                 ",
"                                    R Q.]+`.)+Q./+# <+}+'+R X.R.T. +`.}+z |+S k.W.      . . . . . . . . . . . .                 ",
"        . . . . . . . . + + + + + + + Q.=+]+ +J.|+X.1+1+J.M.R S.=+e 5 ;.[+r.<.>+z.. . .                                         ",
"        . . . . . . . . + + + + + + + 2+<+{+)+I.3+{+:+)+R.*+X.4+Y a 5+5+R 0 >+4.Q.. . .   /.) ) l )                             ",
"        . . . . . . . . + + + + + + + ) % % Z.T.-+Q.X.I. + +6+t }.7+6 } I R |+B.. . . . +.>.F.) ) ) % 8+                        ",
"        . . . . . . . . + + + + + + + 8+[.&.m.-+o./+$+-+S.R.$+q z 9+I c  .` ) Q.. . /.5 > z _.) ) ) 8+_.-                       ",
". . . . . . . . + + + + + + + + @ @ @ ) t x.< _ Q.`.K.6+k.D.) - z d ~ 4 @.9 % e ].`  .s I > H t [+- _.z H                       ",
". . . . . . . . + + + + + + + + @ @ @ - >.; I E v M.U.,+0+q.) - >.9+~ 4 l.8 a+=.o Q @.I *.> =.Y 5.5.b+5 7+;                     ",
". . . . . . . . + + + + + + + + @ @ @ - 9+/ r 7 F 2.c+0+U.M.) ) : d d / j 7 d+F w g Q ^ 4 k / ~ ( ( 1 e+4 }                     ",
". . . . . . . . + + + + + + + + @ @ @ _.' ( r D o F e+. f+i.7.l : d ; ~ c 8 g+o 7 7 2 ^ { ` @+^ b X ( C.l.6                     ",
"                                      z , 4 r 2 l.f           8+h+b.9+< j F i+1.g w j ^ ] *.c.n ;+f $.n =.f                     ",
"                                    ) >.I 4 j c ].            ) ) w.9+( j {.m ;.j+E ^ ^ ( s x =.l.n 2 W c                       ",
"                                    2+|.>.G.9 ]._             - 8+_.k+ .( 4 ;.. + + ~+s./ G.^ 9  .l.} n ;.                      ",
"                                        9.. . .               +.* x.*.].. . . . + + + + + + + + . . . .                         ",
"                . . . . . . . .                 . . . . . . . . . 6.e . + + + + @ @ @ @ + + + + . . . .                         ",
"                . . . . . . . .                 . . . . . . . . . . . . + + + + @ @ @ @ + + + + . . . .                         ",
"                . . . . . . . .                 . . . . . . . . . . . . + + + + @ @ @ @ + + + + . . . .                         ",
"                . . . . . . . .                 . . . . . . . . . . . . + + + + @ @ @ @ + + + + . . . .                         ",
". . . .                         . . . . . . . . . . . . . . . .                                         . . . . . . . . . . . . ",
". . . .                         . . . . . . . . . . . . . . . .                                         . . . . . . . . . . . . ",
". . . .                         . . . . . . . . . . . . . . . .                                         . . . . . . . . . . . . ",
". . . .                         . . . . . . . . . . . . . . . .                                         . . . . . . . . . . . . ",
". . . . . . . . . . . .                                                                                                         ",
". . . . . . . . . . . .                                                                                                         ",
". . . . . . . . . . . .                                                                                                         ",
". . . . . . . . . . . .                                                                                                         "};
