/* XPM */
static char * asset_exit_3_xpm[] = {
"64 64 484 2",
"  	c #F8F8F8",
". 	c #F0F8F8",
"+ 	c #E8F0F8",
"@ 	c #E0E8F8",
"# 	c #858585",
"$ 	c #554F5A",
"% 	c #393142",
"& 	c #383141",
"* 	c #3D3744",
"= 	c #332A3C",
"- 	c #A8A8A2",
"; 	c #ADADA5",
"> 	c #8E8D8B",
", 	c #848484",
"' 	c #4E4A53",
") 	c #342B3E",
"! 	c #ABAAA3",
"~ 	c #AEAFA6",
"{ 	c #8F8D8B",
"] 	c #838383",
"^ 	c #4D4852",
"/ 	c #383041",
"( 	c #383040",
"_ 	c #3B3344",
": 	c #3B3343",
"< 	c #3A3242",
"[ 	c #352C3F",
"} 	c #AEAEA6",
"| 	c #848383",
"1 	c #29252E",
"2 	c #1F1D22",
"3 	c #2D2833",
"4 	c #2D2834",
"5 	c #1F1D21",
"6 	c #312D35",
"7 	c #777678",
"8 	c #79787A",
"9 	c #787779",
"0 	c #5F5860",
"a 	c #5A555C",
"b 	c #C5CBBE",
"c 	c #C8CFC0",
"d 	c #AFB0A8",
"e 	c #8D8D8B",
"f 	c #868584",
"g 	c #27232B",
"h 	c #171717",
"i 	c #2B2631",
"j 	c #2C2631",
"k 	c #171817",
"l 	c #181817",
"m 	c #171718",
"n 	c #171716",
"o 	c #161616",
"p 	c #161615",
"q 	c #2D292E",
"r 	c #818181",
"s 	c #838283",
"t 	c #665E66",
"u 	c #625963",
"v 	c #C7CEBF",
"w 	c #CFD6C7",
"x 	c #B0B1A8",
"y 	c #4E4852",
"z 	c #38303F",
"A 	c #312B38",
"B 	c #352E3D",
"C 	c #322D39",
"D 	c #332D39",
"E 	c #322C39",
"F 	c #352E3B",
"G 	c #372F3E",
"H 	c #49434C",
"I 	c #A3A39D",
"J 	c #A5A59F",
"K 	c #A5A49E",
"L 	c #A2A29D",
"M 	c #605660",
"N 	c #CAD0C1",
"O 	c #858484",
"P 	c #4E4853",
"Q 	c #544F5A",
"R 	c #3A3243",
"S 	c #393242",
"T 	c #AAAAA3",
"U 	c #A9A9A2",
"V 	c #5F5560",
"W 	c #CCD3C4",
"X 	c #ACACA4",
"Y 	c #AFAFA7",
"Z 	c #848384",
"` 	c #423E47",
" .	c #201E23",
"..	c #322C3A",
"+.	c #2B2630",
"@.	c #211E24",
"#.	c #312E34",
"$.	c #7B7B7C",
"%.	c #7A7A7B",
"&.	c #5D545E",
"*.	c #6E696D",
"=.	c #C7CDC0",
"-.	c #CAD0C2",
";.	c #878786",
">.	c #CAD1C2",
",.	c #AFB0A7",
"'.	c #414043",
").	c #878685",
"!.	c #404040",
"~.	c #181818",
"{.	c #312B39",
"].	c #29252D",
"^.	c #302D31",
"/.	c #858584",
"(.	c #818081",
"_.	c #645B64",
":.	c #635A63",
"<.	c #757073",
"[.	c #CBD3C4",
"}.	c #605A61",
"|.	c #CCD4C4",
"1.	c #CED5C6",
"2.	c #AAAAA2",
"3.	c #A8A9A2",
"4.	c #ADACA5",
"5.	c #3E3E3E",
"6.	c #504B53",
"7.	c #2E2934",
"8.	c #352F3E",
"9.	c #342E3B",
"0.	c #2F2935",
"a.	c #211F23",
"b.	c #252229",
"c.	c #26222A",
"d.	c #393837",
"e.	c #A1A29C",
"f.	c #999A96",
"g.	c #7A777A",
"h.	c #787578",
"i.	c #635963",
"j.	c #CDD4C5",
"k.	c #CED6C6",
"l.	c #ADAEA6",
"m.	c #C5CCBD",
"n.	c #C5CBBD",
"o.	c #C3C9BB",
"p.	c #C4CABC",
"q.	c #ABAEA6",
"r.	c #8E8E8C",
"s.	c #47454B",
"t.	c #28252B",
"u.	c #2C2732",
"v.	c #3B3B39",
"w.	c #A4A49D",
"x.	c #818080",
"y.	c #625962",
"z.	c #746F72",
"A.	c #AAABA3",
"B.	c #CFD7C7",
"C.	c #4F4853",
"D.	c #474549",
"E.	c #252129",
"F.	c #232026",
"G.	c #262329",
"H.	c #1C1B1D",
"I.	c #1D1C1F",
"J.	c #1B1A1C",
"K.	c #414141",
"L.	c #6C676C",
"M.	c #5E5D5E",
"N.	c #504950",
"O.	c #686267",
"P.	c #C4C9BC",
"Q.	c #B5BAAF",
"R.	c #807F80",
"S.	c #5E545F",
"T.	c #E4EBDC",
"U.	c #E5ECDD",
"V.	c #D1D9C9",
"W.	c #D0D7C8",
"X.	c #424144",
"Y.	c #535353",
"Z.	c #7D7C7D",
"`.	c #777376",
" +	c #BFC4B8",
".+	c #838384",
"++	c #5E535E",
"@+	c #EBF2E3",
"#+	c #EDF5E5",
"$+	c #B0B2A8",
"%+	c #3A3A3A",
"&+	c #0C0C0C",
"*+	c #0E0E0E",
"=+	c #5A5A58",
"-+	c #9E9E99",
";+	c #959390",
">+	c #767276",
",+	c #787678",
"'+	c #767376",
")+	c #716E71",
"!+	c #777276",
"~+	c #C2C8BB",
"{+	c #9D9D98",
"]+	c #9A9A96",
"^+	c #756F73",
"/+	c #CBD3C3",
"(+	c #C1C6B9",
"_+	c #BEC2B6",
":+	c #9B9B96",
"<+	c #686068",
"[+	c #5E545E",
"}+	c #EAF2E2",
"|+	c #ECF4E4",
"1+	c #ADAEA5",
"2+	c #3B393B",
"3+	c #343434",
"4+	c #000000",
"5+	c #61615D",
"6+	c #A2A19B",
"7+	c #7B797B",
"8+	c #C6CCBF",
"9+	c #A9A9A1",
"0+	c #6A636A",
"a+	c #ECF3E4",
"b+	c #383836",
"c+	c #221F24",
"d+	c #37323B",
"e+	c #3A363B",
"f+	c #72716F",
"g+	c #A5A59E",
"h+	c #7D7B7D",
"i+	c #C6CCC0",
"j+	c #5F545F",
"k+	c #DCE4D4",
"l+	c #E0E7D8",
"m+	c #C0C5B8",
"n+	c #BDC2B5",
"o+	c #393939",
"p+	c #3E393E",
"q+	c #868383",
"r+	c #A6A69F",
"s+	c #C5CBBF",
"t+	c #ADAFA7",
"u+	c #373735",
"v+	c #0B0B0B",
"w+	c #0F0F0F",
"x+	c #504C4E",
"y+	c #6B656B",
"z+	c #868283",
"A+	c #989894",
"B+	c #969591",
"C+	c #D0D8C8",
"D+	c #CCD2C4",
"E+	c #BABEB2",
"F+	c #9D9C97",
"G+	c #949390",
"H+	c #625862",
"I+	c #6A6369",
"J+	c #DDE5D5",
"K+	c #E0E8D8",
"L+	c #BCC0B4",
"M+	c #C3C8BB",
"N+	c #3A393A",
"O+	c #111111",
"P+	c #5B5B5B",
"Q+	c #736F73",
"R+	c #A1A19B",
"S+	c #7C7A7C",
"T+	c #A5A49D",
"U+	c #615861",
"V+	c #CBD2C3",
"W+	c #E9F1E1",
"X+	c #383837",
"Y+	c #4C4A4C",
"Z+	c #302C30",
"`+	c #363136",
" @	c #373239",
".@	c #6D6C6C",
"+@	c #929290",
"@@	c #807C7E",
"#@	c #6E696E",
"$@	c #675F67",
"%@	c #868282",
"&@	c #A0A09B",
"*@	c #E2E9DA",
"=@	c #E3EADB",
"-@	c #8F8F8D",
";@	c #484648",
">@	c #6F696F",
",@	c #8D8C8B",
"'@	c #989793",
")@	c #787375",
"!@	c #7C797B",
"~@	c #C9D0C1",
"{@	c #A6A6A0",
"]@	c #6B646B",
"^@	c #8D8A89",
"/@	c #979693",
"(@	c #736C71",
"_@	c #969491",
":@	c #7C7A7B",
"<@	c #BCC1B5",
"[@	c #9F9F9A",
"}@	c #969592",
"|@	c #BBBFB3",
"1@	c #B9BDB1",
"2@	c #DEE5D6",
"3@	c #DEE6D6",
"4@	c #92918F",
"5@	c #8D8A88",
"6@	c #979592",
"7@	c #848584",
"8@	c #777377",
"9@	c #A4A49E",
"0@	c #777476",
"a@	c #A9AAA2",
"b@	c #827F80",
"c@	c #969894",
"d@	c #999793",
"e@	c #A7A7A0",
"f@	c #908F8D",
"g@	c #8C8C8A",
"h@	c #B7BAAF",
"i@	c #B1B3AA",
"j@	c #91908E",
"k@	c #8A8A88",
"l@	c #C6CDBE",
"m@	c #EBF3E3",
"n@	c #D2D9CA",
"o@	c #C7CDBF",
"p@	c #949592",
"q@	c #959491",
"r@	c #7E7C7D",
"s@	c #746F73",
"t@	c #A5A39D",
"u@	c #999894",
"v@	c #A4A49F",
"w@	c #9C9C97",
"x@	c #B5B8AE",
"y@	c #B3B5AC",
"z@	c #B3B6AC",
"A@	c #696269",
"B@	c #C6CCBE",
"C@	c #ACADA4",
"D@	c #A8A8A1",
"E@	c #817E80",
"F@	c #767074",
"G@	c #EEF6E6",
"H@	c #686369",
"I@	c #848182",
"J@	c #9C9A95",
"K@	c #8C8A88",
"L@	c #746F74",
"M@	c #848181",
"N@	c #A2A29C",
"O@	c #828282",
"P@	c #777477",
"Q@	c #817F80",
"R@	c #E2EADA",
"S@	c #E6EEDE",
"T@	c #C5CCBF",
"U@	c #959793",
"V@	c #AEAEA5",
"W@	c #7B7679",
"X@	c #CDD5C5",
"Y@	c #6B646A",
"Z@	c #655D65",
"`@	c #645C64",
" #	c #8A8886",
".#	c #7E797B",
"+#	c #655C65",
"@#	c #C8CEC0",
"##	c #ABABA4",
"$#	c #888887",
"%#	c #828182",
"&#	c #B2B4AA",
"*#	c #ACACA5",
"=#	c #757275",
"-#	c #A0A09A",
";#	c #D1DACA",
">#	c #797578",
",#	c #8B8A89",
"'#	c #878686",
")#	c #C9CFC1",
"!#	c #5E575F",
"~#	c #ACAEA6",
"{#	c #B0B2AA",
"]#	c #838484",
"^#	c #C7CEC0",
"/#	c #ACADA5",
"(#	c #615862",
"_#	c #B1B2A9",
":#	c #B2B5AC",
"<#	c #6A6269",
"[#	c #625A63",
"}#	c #868686",
"|#	c #868585",
"1#	c #7D7B7C",
"2#	c #878787",
"3#	c #828181",
"4#	c #D1D8C9",
"5#	c #969793",
"6#	c #635F63",
"7#	c #AAADA5",
"8#	c #838182",
"9#	c #787378",
"0#	c #A3A39C",
"a#	c #7F7F80",
"b#	c #696268",
"c#	c #5F585F",
"d#	c #CED7C6",
"e#	c #A1A09A",
"f#	c #7A7679",
"g#	c #C4CBBD",
"h#	c #706A6F",
"i#	c #7D7A7C",
"j#	c #665D65",
"k#	c #848282",
"l#	c #B3B5AB",
"m#	c #7C7679",
"n#	c #757175",
"o#	c #747074",
"p#	c #9D9D97",
"q#	c #7A787A",
"r#	c #ABACA4",
"s#	c #736D71",
"t#	c #9F9F99",
"u#	c #A4A39D",
"v#	c #736D72",
"w#	c #908E8C",
"x#	c #6C656C",
"y#	c #8A8887",
"z#	c #B0B0A8",
"A#	c #CDD5C6",
"B#	c #B0B3AA",
"C#	c #939390",
"D#	c #8D8B8A",
"E#	c #A1A09B",
"F#	c #787577",
"G#	c #A4A39C",
"H#	c #AEAFA7",
"I#	c #605560",
"J#	c #AAAEA6",
"K#	c #8F8F8C",
"L#	c #A0A19B",
"M#	c #716C71",
"N#	c #ABABA3",
"O#	c #868685",
"P#	c #70696F",
"Q#	c #EAF1E2",
"R#	c #CCD4C5",
"S#	c #BFC5BA",
"T#	c #949692",
"U#	c #6D686D",
"V#	c #635B63",
"W#	c #787478",
"X#	c #7C797C",
"Y#	c #645B63",
"Z#	c #757074",
"`#	c #CAD2C3",
" $	c #A6A8A1",
".$	c #6B636A",
"+$	c #BCC1B6",
"@$	c #979995",
"#$	c #C0C7BA",
"$$	c #A9ACA4",
"%$	c #9E9D98",
"&$	c #A8A7A0",
"*$	c #A3A29C",
"=$	c #979692",
"-$	c #8A8A89",
";$	c #7F7D7F",
">$	c #807E7F",
",$	c #959692",
"'$	c #959693",
")$	c #939591",
"!$	c #7F7E7F",
"~$	c #7E7C7E",
"{$	c #9B9D97",
"]$	c #9D9F99",
"^$	c #969794",
"/$	c #C0C6BA",
"($	c #C3CABC",
"_$	c #C2C8BA",
"                . . . . . . . .                 . . . . . . . . . . . . + + + + @ @ @ @ + + + + . . . .                         ",
"                . . . . . . . .                 . . . . . . . . . . . . + + + + @ @ @ @ + + + + . . . .                         ",
"                . . . . . . . .                 . . . . . . . . . . . . + + + + @ @ @ @ + + + + . . . .                         ",
"                . . . . . . . .                 . . . . . . . . . . . . + + + + @ @ @ @ + + + + . . . .                         ",
"                                                                                                                . . . . . . . . ",
"                                                                                                                . . . . . . . . ",
"                                                                                                                . . . . . . . . ",
"                                                                                                                . . . . . . . . ",
". . . .                         . . . . . . . . . . . . . . . .                                         . . . . . . . . . . . . ",
". . . .     # $ % % % % % % % % % & % % % % % % % % % % % % % % % % % % % % % % % & * = - ; ; ; ; ; ; ; > , , , ' % . . . . . . ",
". . . .     # $ % % % % % % % % % % % % & % % % & % % % % % % % % % % % % % % % % % % ) ! ; ; ; ; ~ ; ; { , , ] ^ % . . . . . . ",
". . . .     # $ % % % % % & & % % % % % & & & & & / & & & & & & / ( & % _ _ _ _ _ : < [ - } ; ; ; ; ; ; > , , | ^ % . . . . . . ",
". . . .     # $ % % % % % 1 2 3 % % % 4 5 2 2 2 2 2 2 2 2 2 2 2 2 5 2 6 7 8 8 8 8 9 0 a b c d ; ; ; ; ; e , f , ^ % . . . . . . ",
". . . .     # $ % & & % % g h i % % % j h h h k h h k l m h n o p h h q r ] ] ] , s t u v w x ; ; ; ; ; > , , | y % . . . . . . ",
". . . .     # $ % % % % % z A B % % % / C D D A E D A D A D F A G D D H I J K L , s t M N v x ; ; ; ; ; > , , O P % . . . . . . ",
". . . .     # Q % % % % % % % % & % % % % % % / % % % % R S < R % % % P T ; ; U , s t V w W x ; X Y ; ; e , , Z y / . . . . . . ",
"            # `  ...% +. . .2  . . . . . .2  . .@. . .#.$.%.%.7 &.&.&.*.=.-.~ U ;.s t M >.W x ; ; ,.; ; > , , ] '. .            ",
"            ).!.~.{.% ].~.~.~.~.~.h ~.~.~.~.~.~.~.~.~.^./., , (._.:.:.<.[.w } U , s t }.|.1.x ; 2.,.3.4.e , , ] 5.~.            ",
"            # 6.7.8.% 9.0.a.~.b.0.c.~.~.~.~.~.~.~.~.~.d.e.f., ] g.h.i.<.j.k.l.U , s t M -.1.m.n.o.p.x q.r., , ] s.7.            ",
"            # $ % % % % % t.~.i % u.~.~.h h h h h h h v.} w., , , x.y.z.W k.l.A., s t V k.k.k.k.k.B.,.; e , , | C.%             ",
"            # D.E.F. .G.F.H.~.I.F.J.~.K.L.M.N.N.N.N.N.O.P.Q., , , R.y.<.W w } U , s t S.T.U.V.w k.W.,.; e , , ] X.F.. . . . . . ",
"            # !.~.~.h ~.~.~.~.~.~.~.~.Y.# Z.:.:.:.:.:.`.B. +.+, , R.y.<.j.1.~ U , s t ++@+#+V.k.k.k.$+} e , , ] 5.~.. . . . . . ",
"            # %+&+&+&+&+&+&+*+&+&+&+&+=+-+;+>+,+'+)+:.!+B.~+{+]+, R.y.^+/+k.(+_+-+:+<+[+}+|+V.w k.k.,.1+e , , ] 2+*+. . . . . . ",
"            # 3+4+4+4+4+4+4+4+4+4+4+4+5+Y 6+, , , 7+:.!+B.8+; 9+# R.y.<.j.k.k.|.! 2.0+++a+#+V.k.k.B.Y ; > , , ] b+4+. . . . . . ",
"        . . # 3+4+4+4+c+d+d+d+e+d+d+d+f+} g+, , , h+:.!+B.i+; 9+# R.y.<.[.k.k.j.; 2.0+j+k+l+m+n+n+n+} ; e , , ] o+4+            ",
"        . . # 3+4+4+4+p+:.:.:.:.:.:.:.q+} r+, , , 7+:.!+B.s+t+9+# R.y.<.W k.k.|.2.2.0+V k.|.x ; ; ; ~ ~ > , , ] u+4+            ",
"        . . # 3+4+v+w+x+h.y+:.:.:.:.:.z+1+J A+B+, 7+:.!+C+D+_+E+F+G+H+<.W k.k.|.; 2.I+j+J+K+m+L+M+L+} ; r., , ] N+4+            ",
"        . . # 3+4+O+h P+, Q+:.:.:.:.:.z+; ; ; R+.+S+:.!+B.k.w >.} T+U+<.[.k.k.V+; 2.0+S.W+|+V.k.k.B.,.; > , , ] X+4+            ",
". . . .     # Y+Z+`+ @.@+@@@#@$@:.:.:.%@~ ; ; &@.+7+:.!+B.k.k.>.} K U+<.[.k.o.(+; 2.0+S.*@=@C+k.k.k.Y ; -@, , ] ;@Z+            ",
". . . .     , >@:.:.i.,@; '@, )@:.:.:.z+; ; ; &@.+!@:.!+B.k.k.>.} T+U+<.W k.~ ; ; 2.0+M ~@k.k.k.w k.,.{@> , , , ]@:.            ",
". . . .     , >@:.:.i.^@; /@, !@(@]@:.z+; 2.F+_@, :@:.!+B.|.m+<@[@}@H+<.[.k.|@1@; 2.0+j+2@3@C+B.k.B.L+|@4@, , , ]@:.            ",
". . . .     , >@:.:.i.5@; 6@, , 7@8@:.z+; 9@, , , !@:.0@B.p.1+a@/.b@y.<.[.k.k.W ; 2.0+S.W+#+V.k.k.k.k.1.c@, , , 0+:.            ",
"            , >@:.:.i.5@; d@, , , 8@:.%@} e@f@g@, 7+:.`.B.~@h@i@j@k@y.<.W k.l@p.; 2.0+++m@|+n@k.B.k.o@n.p@, , , ]@:.            ",
"            , >@:.:.i.5@; q@, , , 8@:.z+1+; ; -+.+r@:.s@B.k.k.>.l.t@U+<.[.w ~ ; ; 2.0+++}+|+V.k.k.k.Y ~ > , , , ]@:.            ",
"            , >@:.:.i.5@; d@, , , 8@:.z+; T {@u@, 7+:.0@B./+~@n.v@w@H+s@/+k.x@y@~ 2.0+++}+|+V.k.k.B.x@z@-@, , ] A@:.            ",
"            , >@:.:.i.5@; }@, , , 8@:.q+; 9@] , , 7+:.`.B.B@C@D@, E@y.F@W k.k.W ; 2.0+++G@|+V.k.w k.k.k.c@, , , H@:.            ",
"            , >@:.:.:.I@J@K@S+h+h+L@:.M@} N@, O@h+P@:.!+B.l@; 9+# Q@y.<.[.k.w |.X 2.0+S.R@S@~@o@o@o@o@T@U@, , , 0+:.            ",
"            , >@:.:.:.:._.:.:.:.:.:.:.z+V@6+, W@:.:.:.!+B.v ; 9+# R.y.<.[.k.k.|.; 2.0+V k.X@x ; ; ; ; ; e , , , Y@:.            ",
"            , >@:.:.:._.Z@Z@Z@`@:.:.:.z+; r+ #.#Z@+#:.!+B.@#Y ##$#%#y.<.[.k.k.V+; 2.0+M V+w &#,.,.,.; *#g@, , , ]@:.            ",
"            , >@:.:.:.'+, , , =#:.:.:.z+; ; X -#, S+:.!+B.k.k.V+} K U+<.[.k.k.|.X 2.0+++a+#+;#k.B.B.Y } > , , , ]@:.            ",
"        . . , >@:.:.:.>#,#'#, h.<+t :.z+; ; ; 6+.+7+:.!+B.w k.>.Y t@U+<.|.k.)#8+; 2.0+!#m@#+V.k.B.k.~#1+e , , , 0+:.            ",
"        . . , >@:.:.i.^@; /@, , , 8@:.%@} ; ; &@.+7+:.!+B.k.k.>.} T+U+<.[.X@} l.; 2.0+++m@#+V.k.k.B.{#; > , , Z 0+:.            ",
"        . . , >@:.:.i.5@; '@, , , 8@:.z+1+X T -+]#!@:.!+B.k./+^#/#6+(#<.[.1._#$+; 2.0+++m@#+V.k.k.B.:#Y r., , Z <#[#            ",
"        . . , >@:.:.i.5@; d@, , , 8@:.z+; g+}#|#, 1#:.!+W.n.x A.2#3#y.<.[.k.|.~@; 2.0+++m@|+n@4#V+k.j.V+5#, , , ]@6#            ",
". . . . . . , >@:.:.i.K@7#}@| # 8#9#:.z+; 0#, , 7@7+:.!+B.o@; 9+# a#y.<.[.k.w V+; 2.b#c#a+#+V.B.~@B.d#k.c@, , , 0+:.            ",
". . . . . . , >@:.:.:.y.U+y.y.y.y.i.:.z+~ e#, f#H+i.:.!+W.g#; 9+# Q@y.<.W k.k.V+~ 2.0+M -.|.d X 4.X X X > , , , ]@:.            ",
". . . . . . $#h#:.:.:._.Z@t t _.:.:.:.q+X 9@$#i#Z@j#:.s@B.c ,.##$#k#y.<.[.B.k.V+} 2.0+V k.j.l#x x ,.; ; > , }#}#y+:.            ",
". . . . . . ##m#:.:.:.n#%#O@O@o#:.:.:.z+} X C@p#%#q#:.!+W.k.|.c ##R+(#<.[.k.k.V+1+2.0+V k.k.1.|.|.j.Y ; e ] I r#s#:.            ",
"            } r@:.:.:.8@, , , =#:.:.:.z+; ; X t#, 7+:.!+B.w k.>.} u#U+<.[.k.k.V+; 2.0+V X@k.k.k.w k.Y ; > ] 9@/#v#:.            ",
"            ; w#(.x#i.y#- _@, s r L@:.z+; ; ; 6+.+7+:.!+B.k.w V+z#t@U+<.[.A#B#x ; 2.0+M >.k.k.k.w k.x } e ] 9@; ,#r             ",
"            ~ C#, L.i.D#; d@, , , 8@:.z+; ; X E#.+7+:.F#1.j.k.-.; G#(#<.[.k.H#} ; 2.0+I#j.W.k.k.k.B.J#} e ] J } K#,             ",
"            X@L#, M#y.5@; X N#:+, 8@:.z+; g+'#O#, 7+:.P#z#z#,./#2#3#y.<.[.B.j.V+; 2.0+[+Q#m@V.k.w k.R#W U@s S#W T#,             ",
"            B.e.# U#V#^@; ; ; :+/.W#_.q+; I , , , X#Y#v#~ ; ; D@# R.:.Z#V+1.X@`#l. $.$[+#+|+4#1.X@1.A#j.5#] +$k.@$#             ",
"            k.B@#$$$%$&$; ; 1+T g+*$[@=$> -$, , , O@;$>$e e e g@O , h+x.,$'$)$T#g@g@!$~${$]$^$)$U@T#U@'$2#s /$k.($_$            ",
"                . . . . . . . .                 . . . . . . . . . . . . + + + + @ @ @ @ + + + + . . . .                         ",
"                . . . . . . . .                 . . . . . . . . . . . . + + + + @ @ @ @ + + + + . . . .                         ",
". . . .                         . . . . . . . . . . . . . . . .                                         . . . . . . . . . . . . ",
". . . .                         . . . . . . . . . . . . . . . .                                         . . . . . . . . . . . . ",
". . . .                         . . . . . . . . . . . . . . . .                                         . . . . . . . . . . . . ",
". . . .                         . . . . . . . . . . . . . . . .                                         . . . . . . . . . . . . ",
". . . . . . . . . . . .                                                                                                         ",
". . . . . . . . . . . .                                                                                                         ",
". . . . . . . . . . . .                                                                                                         ",
". . . . . . . . . . . .                                                                                                         "};
